<?xml version="1.0" standalone="no"?>
<!DOCTYPE svg PUBLIC "-//W3C//DTD SVG 1.1//EN" "http://www.w3.org/Graphics/SVG/1.1/DTD/svg11.dtd" >
<svg xmlns="http://www.w3.org/2000/svg" xmlns:xlink="http://www.w3.org/1999/xlink" version="1.1">
<metadata>
Created by FontForge 20170910 at Fri Jun 16 01:21:53 2017
 By Jimmy Wärting
Copyright \(c\) 2017 by Alexander Slobzheninov. All rights reserved.
</metadata>
<defs>
<font id="FivoSans-Heavy" horiz-adv-x="610" >
  <font-face 
    font-family="Fivo Sans"
    font-weight="900"
    font-stretch="normal"
    units-per-em="1000"
    panose-1="0 0 0 0 0 0 0 0 0 0"
    ascent="800"
    descent="-200"
    x-height="500"
    cap-height="700"
    bbox="-80 -251.011 1300 960"
    underline-thickness="50"
    underline-position="975"
    stemh="120"
    stemv="180"
    unicode-range="U+000D-E133"
  />
<missing-glyph horiz-adv-x="180" 
 />
    <glyph glyph-name=".notdef" horiz-adv-x="180" 
 />
    <glyph glyph-name="NULL" horiz-adv-x="760" 
d="M70 700h620v-700h-620v700zM240 550v-400h280v400h-280z" />
    <glyph glyph-name="NULL" horiz-adv-x="760" 
d="M70 700h620v-700h-620v700zM240 550v-400h280v400h-280z" />
    <glyph glyph-name="CR" unicode="&#xd;" horiz-adv-x="250" 
 />
    <glyph glyph-name="space" unicode=" " horiz-adv-x="300" 
 />
    <glyph glyph-name="exclam" unicode="!" horiz-adv-x="300" 
d="M150 180c70 0 100 -29 100 -96c0 -66 -30 -95 -100 -95s-100 28 -100 95s30 96 100 96zM55 700h190v-190l-40 -250h-110l-40 250v190z" />
    <glyph glyph-name="quotedbl" unicode="&#x22;" horiz-adv-x="480" 
d="M210 700v-140l-20 -240h-120l-20 240v140h160zM430 700v-140l-20 -240h-120l-20 240v140h160z" />
    <glyph glyph-name="numbersign" unicode="#" horiz-adv-x="710" 
d="M350 0l24 170h-90l-24 -170h-130l24 170h-124v120h141l13 90h-124v120h141l29 200h130l-29 -200h90l29 200h130l-29 -200h129v-120h-146l-13 -90h129v-120h-146l-24 -170h-130zM404 380h-90l-13 -90h90z" />
    <glyph glyph-name="dollar" unicode="$" horiz-adv-x="660" 
d="M260 -100v1v83c-160 14 -230 81 -230 217h180c0 -63 36 -90 120 -90c77 0 110 21 110 70c0 140 -400 60 -400 310c0 141 67 211 220 226v83h140v-83c153 -15 220 -82 220 -217h-180c0 63 -33 90 -110 90c-70 0 -100 -21 -100 -70c0 -110 400 -40 400 -310
c0 -142 -70 -212 -230 -227v-83h-140z" />
    <glyph glyph-name="percent" unicode="%" horiz-adv-x="920" 
d="M210 710c126 1 180 -59 180 -199s-54 -200 -180 -200s-180 60 -180 200s54 200 180 199zM210 410c35 0 50 30 50 100s-15 100 -50 100s-50 -30 -50 -100s15 -100 50 -100zM320 -30h-160l440 760h160zM710 390c126 1 180 -59 180 -199s-54 -200 -180 -200
s-180 60 -180 200s54 200 180 199zM710 90c35 0 50 30 50 100s-15 100 -50 100s-50 -30 -50 -100s15 -100 50 -100z" />
    <glyph glyph-name="ampersand" unicode="&#x26;" horiz-adv-x="799" 
d="M799 0l-3.03125 2.99023h-227.96l-36 36c-59 -38 -136 -56 -234 -56c-189 -1 -270 59 -270 199c0 103 72 165 154 211c-35 43 -63 90 -63 137c0 17 1 32 3 46c15 100 85 144 226 144c154 0 220 -48 220 -160c0 -88 -75 -139 -155 -184c31 -30 72 -70 116 -113
c8 26 14 55 19 88l140 -1c-8 -77 -24 -141 -49 -193c76.5703 -74.8096 142.301 -139.55 156.951 -153.99h2.04004zM434.009 137.99l-159 159c-34 -26 -56 -56 -56 -94c0 -63 30 -90 100 -90c46 0 84 8 115 25zM327.009 465.99v-1c53 27 92 53 92 88c0 42 -21 60 -70 60
s-70 -18 -70 -60c0 -29 21 -58 48 -87z" />
    <glyph glyph-name="quotesingle" unicode="'" horiz-adv-x="260" 
d="M210 700v-140l-20 -240h-120l-20 240v140h160z" />
    <glyph glyph-name="parenleft" unicode="(" horiz-adv-x="300" 
d="M160 -200c-20 50 -130 210 -130 460s110 390 130 440h140c-20 -50 -120 -190 -120 -440s100 -410 120 -460h-140z" />
    <glyph glyph-name="parenright" unicode=")" horiz-adv-x="300" 
d="M140 -200h-140c20 50 120 210 120 460s-100 390 -120 440h140c20 -50 130 -190 130 -440s-110 -410 -130 -460z" />
    <glyph glyph-name="asterisk" unicode="*" horiz-adv-x="340" 
d="M130 400l-2 2v60l9 36l-27 -26l-52 -30l-40 69l52 30l36 10l-36 10l-52 30l40 69l52 -30l28 -27l-9 37v60h80v-60l-9 -37l28 27l52 30l40 -69l-52 -30l-37 -11l36 -10l52 -30l-40 -69l-52 30l-26 25l9 -36v-60h-80z" />
    <glyph glyph-name="plus" unicode="+" horiz-adv-x="580" 
d="M550 320v-130h-190v-190h-140v190h-190v130h190v180h140v-180h190z" />
    <glyph glyph-name="comma" unicode="," horiz-adv-x="240" 
d="M110 180h1c63 0 97 -30 107 -98c2 -15 3 -32 3 -51c0 -154 -57 -220 -190 -220v80c56 0 80 30 80 100c-63 0 -90 28 -90 94c0 8 0 16 1 23c6 50 33 72 88 72z" />
    <glyph glyph-name="hyphen" unicode="-" horiz-adv-x="390" 
d="M360 200h-330v130h330v-130z" />
    <glyph glyph-name="period" unicode="." horiz-adv-x="240" 
d="M120 180c70 0 100 -29 100 -96c0 -66 -30 -95 -100 -95s-100 28 -100 95s30 96 100 96z" />
    <glyph glyph-name="slash" unicode="/" horiz-adv-x="400" 
d="M240 700h160l-240 -700h-160z" />
    <glyph glyph-name="zero" unicode="0" horiz-adv-x="720" 
d="M360 720c231 0 330 -111 330 -370s-99 -370 -330 -370s-330 111 -330 370c0 260 99 370 330 370zM360 110c98 0 140 72 140 240s-42 240 -140 240s-140 -72 -140 -240s42 -240 140 -240z" />
    <glyph glyph-name="one" unicode="1" horiz-adv-x="370" 
d="M0 570v130h300v-700h-180v570h-120z" />
    <glyph glyph-name="two" unicode="2" horiz-adv-x="530" 
d="M250 130h270v-130h-520v110c210 190 350 260 350 380c0 70 -24 100 -80 100s-80 -36 -80 -120h-180c0 175 78 250 260 250s260 -69 260 -230c0 -130 -100 -200 -280 -360z" />
    <glyph glyph-name="three" unicode="3" horiz-adv-x="640" 
d="M310 300h-50v120h50c77 0 110 24 110 80c0 63 -30 90 -100 90s-100 -33 -100 -110h-160c0 168 78 240 260 240s260 -63 260 -210c0 -130 -100 -140 -100 -140s130 -20 130 -160c0 -161 -87 -230 -290 -230s-290 75 -290 250h170c0 -84 36 -120 120 -120
c77 0 110 30 110 100c0 63 -36 90 -120 90z" />
    <glyph glyph-name="four" unicode="4" horiz-adv-x="600" 
d="M490 700h1h30v-410h70v-130h-70v-160h-180v160h-340v92v58l320 390h20h149zM158 290h1h183v226z" />
    <glyph glyph-name="five" unicode="5" horiz-adv-x="660" 
d="M290 570l-19 -108c30 12 66 18 109 18c175 0 250 -75 250 -250s-90 -250 -300 -250c-171 0 -249 66 -260 220h160c11 -63 44 -90 111 -90c77 0 110 36 110 120s-33 120 -110 120c-60 0 -90 -18 -101 -60h-150l70 410h420v-130h-290z" />
    <glyph glyph-name="six" unicode="6" horiz-adv-x="630" 
d="M30 340l-1 -1c0 266 87 380 290 380c154 0 232 -60 260 -200h-170c-14 56 -41 80 -90 80c-77 0 -110 -54 -110 -180c0 0 21 61 131 61c182 0 260 -75 260 -250s-84 -250 -280 -250c-203 0 -290 108 -290 360zM319 349c-70 0 -100 -36 -100 -120s30 -120 100 -120
s100 36 100 120s-30 120 -100 120z" />
    <glyph glyph-name="seven" unicode="7" horiz-adv-x="510" 
d="M510 590l-300 -590h-190l300 570h-320v130h510v-110z" />
    <glyph glyph-name="eight" unicode="8" horiz-adv-x="660" 
d="M60 510c0 147 81 210 270 210s270 -63 270 -210c0 -66 -22 -112 -70 -141c69 -31 100 -86 100 -169c0 -154 -90 -220 -300 -220s-300 66 -300 220c0 83 31 138 100 169c-48 29 -70 75 -70 141zM330 110c84 0 120 30 120 95c0 68 -36 95 -120 95s-120 -27 -120 -95
c0 -65 36 -95 120 -95zM330 590c-70 0 -100 -27 -100 -85c0 -61 30 -85 100 -85s100 24 100 85c0 58 -30 85 -100 85z" />
    <glyph glyph-name="nine" unicode="9" horiz-adv-x="630" 
d="M600 360h1c0 -266 -87 -380 -290 -380c-154 0 -232 60 -260 200h170c14 -56 41 -80 90 -80c77 0 110 54 110 180c0 0 -21 -60 -131 -60c-182 0 -260 75 -260 250s84 250 280 250c203 0 290 -108 290 -360zM311 350c70 0 100 36 100 120s-30 120 -100 120
s-100 -36 -100 -120s30 -120 100 -120z" />
    <glyph glyph-name="colon" unicode=":" horiz-adv-x="300" 
d="M150 180c70 0 100 -29 100 -96c0 -66 -30 -95 -100 -95s-100 28 -100 95s30 96 100 96zM150 500c70 0 100 -29 100 -96c0 -66 -30 -95 -100 -95s-100 28 -100 95s30 96 100 96z" />
    <glyph glyph-name="semicolon" unicode=";" horiz-adv-x="300" 
d="M150 500c70 0 100 -29 100 -96c0 -66 -30 -95 -100 -95s-100 28 -100 95s30 96 100 96zM140 180h1c63 0 97 -30 107 -98c2 -15 3 -32 3 -51c0 -154 -57 -220 -190 -220v80c56 0 80 30 80 100c-63 0 -90 28 -90 94c0 8 0 16 1 23c6 50 33 72 88 72z" />
    <glyph glyph-name="less" unicode="&#x3c;" horiz-adv-x="500" 
d="M30 340l400 160v-160l-225 -90l225 -90v-160l-400 160v20v140v20z" />
    <glyph glyph-name="equal" unicode="=" horiz-adv-x="660" 
d="M630 230v-130h-600v130h600zM630 430v-130h-600v130h600z" />
    <glyph glyph-name="greater" unicode="&#x3e;" horiz-adv-x="500" 
d="M70 500l400 -160v-20v-140v-20l-400 -160v160l225 90l-225 90v160z" />
    <glyph glyph-name="question" unicode="?" horiz-adv-x="560" 
d="M265 180c70 0 100 -29 100 -96c0 -66 -30 -95 -100 -95s-100 28 -100 95s30 96 100 96zM190 260c0 210 160 160 160 270c0 42 -24 60 -80 60s-80 -30 -80 -100h-170c0 161 78 230 260 230s260 -57 260 -190c0 -180 -200 -130 -200 -270h-150z" />
    <glyph glyph-name="at" unicode="@" horiz-adv-x="910" 
d="M660 460v-270c0 -49 12 -70 40 -70c35 0 50 39 50 130c0 210 -87 300 -290 300c-210 0 -300 -90 -300 -300c0 -203 75 -290 250 -290c100 0 151 40 160 50v-120c-10 -11 -70 -40 -160 -40c-266 -1 -380 119 -380 400c0 287 129 410 430 410c294 0 420 -123 420 -410
c0 -161 -61 -230 -180 -230c-75 0 -126 19 -154 61c-31 -28 -76 -41 -137 -41c-132 0 -189 63 -189 210c0 154 57 220 190 220c47 0 92 -18 126 -51l24 41h100zM440 140c56 0 80 33 80 110s-24 110 -80 110s-80 -33 -80 -110s24 -110 80 -110z" />
    <glyph glyph-name="A" unicode="A" horiz-adv-x="700" 
d="M490 0h-1l-34 130h-219l-36 -130h-200l220 700h280l200 -700h-210zM349 533l-77 -273h149z" />
    <glyph glyph-name="B" unicode="B" horiz-adv-x="700" 
d="M560 370c0 0 110 -40 110 -160c0 -147 -85 -210 -280 -210h-320v700h310c182 0 260 -57 260 -190c0 -110 -80 -140 -80 -140zM360 130c70 0 100 24 100 80c0 63 -30 90 -100 90h-90v-170h90zM270 570v-150h80c56 0 80 24 80 80c0 49 -24 70 -80 70h-80z" />
    <glyph glyph-name="C" unicode="C" horiz-adv-x="770" 
d="M540 240h200c-39 -182 -141 -260 -340 -260c-259 0 -370 111 -370 370s111 370 370 370c212 0 314 -78 340 -260h-200c-15 77 -57 110 -140 110c-112 0 -160 -66 -160 -220s48 -220 160 -220c83 0 125 33 140 110z" />
    <glyph glyph-name="D" unicode="D" horiz-adv-x="750" 
d="M720 350c0 -245 -108 -350 -360 -350h-290v700h290c252 0 360 -105 360 -350zM350 560h-80v-420h80c112 0 160 63 160 210s-48 210 -160 210z" />
    <glyph glyph-name="E" unicode="E" 
d="M590 560h-320v-130h280v-140h-280v-150h320v-140h-520v700h520v-140z" />
    <glyph glyph-name="F" unicode="F" horiz-adv-x="600" 
d="M590 560h-320v-130h280v-140h-280v-290h-200v700h520v-140z" />
    <glyph glyph-name="G" unicode="G" horiz-adv-x="780" 
d="M400 280v130h350v-60c0 -259 -105 -370 -350 -370c-259 0 -370 111 -370 370s111 370 370 370c204 0 306 -72 340 -240h-190c-16 63 -61 90 -150 90c-112 0 -160 -66 -160 -220s48 -220 160 -220s160 45 160 150h-160z" />
    <glyph glyph-name="H" unicode="H" horiz-adv-x="760" 
d="M490 700h200v-700h-200v300h-220v-300h-200v700h200v-250h220v250z" />
    <glyph glyph-name="I" unicode="I" horiz-adv-x="340" 
d="M70 700h200v-700h-200v700z" />
    <glyph glyph-name="J" unicode="J" horiz-adv-x="580" 
d="M0 210v40h190v-40c0 -56 18 -80 60 -80s60 24 60 80v490h200v-490c0 -154 -78 -220 -260 -220c-175 0 -250 66 -250 220z" />
    <glyph glyph-name="K" unicode="K" horiz-adv-x="740" 
d="M270 700v-255l210 255h240l-280 -340l300 -360h-240l-230 276v-276h-200v700h200z" />
    <glyph glyph-name="L" unicode="L" horiz-adv-x="560" 
d="M550 150v-150h-480v700h200v-550h280z" />
    <glyph glyph-name="M" unicode="M" horiz-adv-x="940" 
d="M260 1h-190v700h110h80h80l135 -430l135 430h70h80h110v-700h-190v457l-135 -410l-15 -47h-120l-10 31l-140 425v-456z" />
    <glyph glyph-name="N" unicode="N" horiz-adv-x="780" 
d="M520 700h190v-700h-230l-220 450v-450h-190v700h230l220 -450v450z" />
    <glyph glyph-name="O" unicode="O" horiz-adv-x="800" 
d="M400 720c259 0 370 -111 370 -370s-111 -370 -370 -370s-370 111 -370 370s111 370 370 370zM400 570c-112 0 -160 -66 -160 -220s48 -220 160 -220s160 66 160 220s-48 220 -160 220z" />
    <glyph glyph-name="P" unicode="P" horiz-adv-x="690" 
d="M670 470c0 -120 -80 -230 -280 -230h-120v-240h-200v700h320c200 0 280 -110 280 -230zM470 470c0 50 -30 90 -90 90h-110v-180h110c60 0 90 40 90 90z" />
    <glyph glyph-name="Q" unicode="Q" horiz-adv-x="800" 
d="M590 -70v-1l-52 64c-40 -9 -86 -13 -138 -13c-259 0 -370 111 -370 370s111 370 370 370s370 -111 370 -370c0 -140 -32 -237 -102 -296l102 -124h-180zM424 130v-1c56 6 93 32 114 81c15 34 22 80 22 139c0 154 -48 220 -160 220s-160 -66 -160 -220s48 -220 160 -220
c8 0 16 0 24 1z" />
    <glyph glyph-name="R" unicode="R" horiz-adv-x="720" 
d="M352 250h-82v-250h-200v700h330c200 0 280 -110 280 -230c0 -93 -41 -166 -138 -200l158 -270h-210zM270 380h120c60 0 90 40 90 90s-30 90 -90 90h-120v-180z" />
    <glyph glyph-name="S" unicode="S" horiz-adv-x="660" 
d="M230 520c0 -110 400 -40 400 -310c0 -161 -90 -230 -300 -230s-300 66 -300 220h180c0 -63 36 -90 120 -90c77 0 110 21 110 70c0 140 -400 60 -400 310c0 161 87 230 290 230s290 -66 290 -220h-180c0 63 -33 90 -110 90c-70 0 -100 -21 -100 -70z" />
    <glyph glyph-name="T" unicode="T" horiz-adv-x="620" 
d="M610 700v-160h-200v-540h-200v540h-200v160h600z" />
    <glyph glyph-name="U" unicode="U" horiz-adv-x="740" 
d="M60 260v440h200v-440c0 -91 33 -130 110 -130s110 39 110 130v440h200v-440c0 -196 -93 -280 -310 -280s-310 84 -310 280z" />
    <glyph glyph-name="V" unicode="V" horiz-adv-x="690" 
d="M200 700l145 -564l145 564h200l-200 -700h-290l-200 700h200z" />
    <glyph glyph-name="W" unicode="W" horiz-adv-x="1000" 
d="M380 700h240l83 -495l97 495h200l-160 -700h-260l-87 487l-73 -487h-260l-160 700h200l97 -495z" />
    <glyph glyph-name="X" unicode="X" horiz-adv-x="700" 
d="M230 700l122 -218l128 218h210l-210 -340l220 -360h-220l-132 237l-138 -237h-210l210 360l-200 340h220z" />
    <glyph glyph-name="Y" unicode="Y" horiz-adv-x="680" 
d="M440 260v-260h-190v260l-250 440h220l125 -250l125 250h210z" />
    <glyph glyph-name="Z" unicode="Z" horiz-adv-x="580" 
d="M230 140h350v-140h-580v120l340 440h-330v140h560v-120z" />
    <glyph glyph-name="bracketleft" unicode="[" horiz-adv-x="330" 
d="M70 700h260v-130h-110v-640h110v-130h-260v900z" />
    <glyph glyph-name="backslash" unicode="\" horiz-adv-x="400" 
d="M0 700h160l240 -700h-160z" />
    <glyph glyph-name="bracketright" unicode="]" horiz-adv-x="330" 
d="M0 700h260v-900h-260v130h110v640h-110v130z" />
    <glyph glyph-name="asciicircum" unicode="^" horiz-adv-x="500" 
d="M340 670l140 -350h-140l-90 225l-90 -225h-140l140 350h40h100h40z" />
    <glyph glyph-name="underscore" unicode="_" horiz-adv-x="500" 
d="M510 0v-130h-520v130h520z" />
    <glyph glyph-name="grave" unicode="`" horiz-adv-x="310" 
d="M200 700l90 -150h-140l-130 150h180z" />
    <glyph glyph-name="a" unicode="a" horiz-adv-x="560" 
d="M359.35 36.3799c-32.9902 -31.5703 -81.79 -46.3799 -149.35 -46.3799c-133 0 -190 48 -190 160c0 119 75 170 250 170h70v20c0 49 -20 70 -66 70c-45 0 -64 -18 -64 -60h-170c0 112 72 160 240 160s240 -57 240 -190v-320h-140zM201 160l1 -1c0 -38 18 -50 60 -50
c52 0 76 23 79 76v14v20h-50h-15c-52 -2 -75 -17 -75 -59z" />
    <glyph glyph-name="b" unicode="b" 
d="M370 -10l2 -1c-70 0 -122 16 -158 50l-23 -40h-140v127v573h180v-226c34 25 80 37 139 37c154 0 220 -78 220 -260s-66 -260 -220 -260zM322 119c63 0 90 39 90 130s-27 130 -90 130s-90 -39 -90 -130s27 -130 90 -130z" />
    <glyph glyph-name="c" unicode="c" horiz-adv-x="580" 
d="M380 190h180c-14 -140 -92 -200 -260 -200c-196 0 -280 78 -280 260s84 260 280 260c168 0 246 -60 260 -200h-180c-8 49 -32 70 -80 70c-70 0 -100 -39 -100 -130s30 -130 100 -130c47 0 71 21 80 70z" />
    <glyph glyph-name="d" unicode="d" 
d="M240 -10l2 1c-154 0 -220 78 -220 260s66 260 220 260c59 0 105 -12 139 -37v226h180v-573v-127h-140l-23 40c-36 -34 -88 -50 -158 -50zM292 121c63 0 90 39 90 130s-27 130 -90 130s-90 -39 -90 -130s27 -130 90 -130z" />
    <glyph glyph-name="e" unicode="e" horiz-adv-x="580" 
d="M199 200c8 -69 37 -100 91 -100c47 0 71 18 80 60h170c-21 -119 -96 -170 -250 -170c-189 0 -270 78 -270 260s81 260 270 260s270 -78 270 -260v-50h-361zM290 400c-54 0 -82 -31 -90 -100h180c0 70 -27 100 -90 100z" />
    <glyph glyph-name="f" unicode="f" horiz-adv-x="415" 
d="M300 570c-20 0 -30 -10 -30 -30v-40h140v-110h-140v-390h-180v390h-80v110h80v40c0 100 60 160 160 160h160v-130h-110z" />
    <glyph glyph-name="g" unicode="g" 
d="M240 -10h-3c-154 0 -220 78 -220 260s66 260 220 260c70 0 122 -16 158 -50l23 40h140v-450c0 -182 -81 -260 -270 -260c-157 0 -232 51 -249 170h170c8 -42 29 -60 70 -60c70 0 100 36 100 119v8c-34 -25 -80 -37 -139 -37zM287 120c63 0 90 39 90 130s-27 130 -90 130
s-90 -39 -90 -130s27 -130 90 -130z" />
    <glyph glyph-name="h" unicode="h" horiz-adv-x="590" 
d="M50 0v700h180v-218c30 19 70 28 120 28c140 0 200 -72 200 -240v-270h-180v270c0 77 -21 110 -70 110s-70 -33 -70 -110v-270h-180z" />
    <glyph glyph-name="i" unicode="i" horiz-adv-x="280" 
d="M230 0h-180v500h180v-500zM140 730c70 0 100 -27 100 -90s-30 -90 -100 -90s-100 27 -100 90s30 90 100 90z" />
    <glyph glyph-name="j" unicode="j" horiz-adv-x="290" 
d="M10 -50c30 0 50 20 50 50v500h180v-520c0 -100 -60 -160 -160 -160h-160v130h90zM150 730c70 0 100 -27 100 -90s-30 -90 -100 -90s-100 27 -100 90s30 90 100 90z" />
    <glyph glyph-name="k" unicode="k" 
d="M230 700v-380l150 180h210l-200 -240l220 -260h-210l-170 201v-201h-180v700h180z" />
    <glyph glyph-name="l" unicode="l" horiz-adv-x="280" 
d="M50 0v700h180v-700h-180z" />
    <glyph glyph-name="m" unicode="m" horiz-adv-x="870" 
d="M230 270v-270h-180v500h140l28 -50c28 41 71 60 132 60c66 0 112 -20 141 -63c31 43 80 63 149 63c133 0 190 -72 190 -240v-270h-180v270c0 77 -18 110 -60 110s-60 -33 -60 -110v-270h-180v270c0 77 -18 110 -60 110s-60 -33 -60 -110z" />
    <glyph glyph-name="n" unicode="n" horiz-adv-x="590" 
d="M190 500l20 -34c32 30 78 44 140 44c140 0 200 -72 200 -240v-270h-180v270c0 77 -21 110 -70 110s-70 -33 -70 -110v-270h-180v500h140z" />
    <glyph glyph-name="o" unicode="o" horiz-adv-x="600" 
d="M300 510c196 0 280 -78 280 -260s-84 -260 -280 -260s-280 78 -280 260s84 260 280 260zM200 250c0 -91 30 -130 100 -130s100 39 100 130s-30 130 -100 130s-100 -39 -100 -130z" />
    <glyph glyph-name="p" unicode="p" 
d="M370 510l-2 -1c154 0 220 -78 220 -260s-66 -260 -220 -260c-59 0 -105 12 -139 37v-226h-180v573v127h140l23 -40c36 34 88 50 158 50zM318 379c-63 0 -90 -39 -90 -130s27 -130 90 -130s90 39 90 130s-27 130 -90 130z" />
    <glyph glyph-name="q" unicode="q" 
d="M240 510l-2 1c70 0 122 -16 158 -50l23 40h140v-127v-573h-180v226c-34 -25 -80 -37 -139 -37c-154 0 -220 78 -220 260s66 260 220 260zM288 381c-63 0 -90 -39 -90 -130s27 -130 90 -130s90 39 90 130s-27 130 -90 130z" />
    <glyph glyph-name="r" unicode="r" horiz-adv-x="420" 
d="M230 250l1 -1v-250h-180v500h140l24 -42c31 35 71 53 115 53h80v-150h-80c-77 0 -100 -20 -100 -110z" />
    <glyph glyph-name="s" unicode="s" horiz-adv-x="510" 
d="M190 369v-1c0 -79 300 -9 300 -209c0 -119 -74 -170 -246 -170c-157 0 -224 48 -224 160h170c0 -42 18 -60 60 -60s60 15 60 50c0 90 -290 10 -290 210c0 112 69 160 230 160c154 0 220 -45 220 -150h-160c0 35 -18 50 -60 50s-60 -12 -60 -40z" />
    <glyph glyph-name="t" unicode="t" horiz-adv-x="425" 
d="M270 180c0 -30 20 -50 50 -50h90v-130h-160c-100 0 -160 60 -160 160v230h-80v110h80v130h180v-130h140v-110h-140v-210z" />
    <glyph glyph-name="u" unicode="u" horiz-adv-x="590" 
d="M400 0v-1l-20 34c-32 -30 -78 -44 -140 -44c-140 0 -200 72 -200 240v270h180v-270c0 -77 21 -110 70 -110s70 33 70 110v39v232h180v-500h-140z" />
    <glyph glyph-name="v" unicode="v" horiz-adv-x="550" 
d="M279 128l81 372h190l-140 -500h-270l-140 500h190z" />
    <glyph glyph-name="w" unicode="w" horiz-adv-x="870" 
d="M720 0h-220l-65 366l-65 -366h-219h-1l-140 500h180l78 -350l62 350h220l54 -344l76 344h180z" />
    <glyph glyph-name="x" unicode="x" horiz-adv-x="540" 
d="M200 500l70 -129l70 129h190l-150 -240l160 -260h-190l-80 149l-80 -149h-190l160 260l-150 240h190z" />
    <glyph glyph-name="y" unicode="y" horiz-adv-x="540" 
d="M210 0v1l4 13l-214 487h170l111 -278l89 278h170l-170 -490c-10 -27 -19 -50 -28 -70c-44 -100 -77 -121 -152 -121h-40h-80v110h70c30 0 48 1 70 70z" />
    <glyph glyph-name="z" unicode="z" horiz-adv-x="480" 
d="M220 120h250v-120h-460v100l240 280h-230v120h440v-100z" />
    <glyph glyph-name="braceleft" unicode="{" horiz-adv-x="390" 
d="M250 140v-160c0 -35 15 -50 50 -50h36h54v-130h-65h-65c-93 0 -142 33 -156 109c-3 15 -4 32 -4 51v180c0 17 -3 30 -10 40c-11 14 -30 20 -59 20v40v30v40c29 0 48 6 59 20c7 10 10 23 10 40v170c0 19 1 36 4 51c14 76 63 109 156 109h43h87v-130h-54h-36
c-35 0 -50 -15 -50 -50v-150c0 -59 -16 -96 -52 -115c36 -19 52 -56 52 -115z" />
    <glyph glyph-name="bar" unicode="|" horiz-adv-x="290" 
d="M70 700h150v-900h-150v900z" />
    <glyph glyph-name="braceright" unicode="}" horiz-adv-x="390" 
d="M140 -20v158c0 59 16 96 52 115c-36 19 -52 56 -52 115v150c0 35 -15 50 -50 50h-36h-54v130h87h43c93 0 142 -33 156 -109c3 -15 4 -32 4 -51v-170c0 -17 3 -30 10 -39c11 -14 30 -20 59 -20v-40v-30v-40c-29 0 -48 -6 -59 -20c-7 -9 -10 -22 -10 -39v-180
c0 -19 -1 -36 -4 -51c-14 -76 -63 -109 -156 -109h-65h-65v130h54h36c35 0 50 15 50 50z" />
    <glyph glyph-name="asciitilde" unicode="~" horiz-adv-x="660" 
d="M30 200v1v120c200 200 419 -181 599 -1v-120c-200 -200 -420 180 -599 0z" />
    <glyph glyph-name="space_" unicode="&#xa0;" horiz-adv-x="300" 
 />
    <glyph glyph-name="exclamdown" unicode="&#xa1;" horiz-adv-x="300" 
d="M250 -200h-190v190l40 250h110l40 -250v-190zM150 320c-70 0 -100 29 -100 96s30 95 100 95s100 -29 100 -95c0 -67 -30 -96 -100 -96z" />
    <glyph glyph-name="cent" unicode="&#xa2;" horiz-adv-x="580" 
d="M230 -100v92c-146 18 -210 98 -210 257s64 239 210 257v84h140v-84c120 -16 178 -77 190 -196h-180c-8 49 -32 70 -80 70c-70 0 -100 -39 -100 -130s30 -130 100 -130c47 0 71 21 80 70h180c-12 -119 -70 -180 -190 -196v-94h-140z" />
    <glyph glyph-name="sterling" unicode="&#xa3;" horiz-adv-x="650" 
d="M629 140v-140h-600v160c34 13 56 34 68 65c7 18 11 40 12 66h-80v130h80v80c-1 154 74 220 250 220c17 0 33 -1 48 -2c134 -12 192 -79 192 -218h-170c0 70 -21 100 -70 100s-70 -30 -70 -100v-80h220v-130h-220c-1 -24 -4 -45 -10 -63c-14 -41 -43 -69 -89 -88h439z" />
    <glyph glyph-name="currency" unicode="&#xa4;" horiz-adv-x="640" 
d="M609 471l-51 -51c28 -41 41 -97 41 -169s-13 -128 -41 -169l52 -52l-90 -90l-67 67c-37 -11 -81 -16 -133 -16s-96 5 -133 16l-67 -67l-90 90l51 51c-28 41 -41 97 -41 169s13 128 41 169l-51 51l90 90l67 -67c37 12 81 18 133 18s96 -6 133 -18l67 67zM219 251
c0 -91 30 -130 100 -130s100 39 100 130s-30 130 -100 130s-100 -39 -100 -130z" />
    <glyph glyph-name="yen" unicode="&#xa5;" horiz-adv-x="720" 
d="M460 260v-40h200v-120h-200v-100h-190v100h-210v120h210v40l-23 40h-187v120h119l-159 280h220l125 -250l125 250h210l-153 -280h113v-120h-178z" />
    <glyph glyph-name="section" unicode="&#xa7;" horiz-adv-x="640" 
d="M250 530c0 -110 360 -30 360 -280c0 -74 -24 -124 -77 -154c17 -25 27 -56 27 -96c0 -154 -78 -220 -260 -220c-161 0 -230 66 -230 220h150c0 -63 24 -90 80 -90s80 18 80 60c0 130 -350 29 -350 280c0 75 27 124 85 152c-22 27 -35 62 -35 108c0 147 72 210 240 210
c161 0 230 -66 230 -220h-150c0 63 -24 90 -80 90c-49 0 -70 -18 -70 -60zM245 326v1c-31 -8 -45 -26 -45 -56c0 -62 113 -64 212 -96c19 11 28 29 28 55c0 58 -100 66 -195 96z" />
    <glyph glyph-name="dieresis" unicode="&#xa8;" horiz-adv-x="480" 
d="M120 710c70 0 100 -29 100 -96c0 -66 -30 -95 -100 -95s-100 28 -100 95s30 96 100 96zM360 710c70 0 100 -29 100 -96c0 -66 -30 -95 -100 -95s-100 28 -100 95s30 96 100 96z" />
    <glyph glyph-name="copyright" unicode="&#xa9;" horiz-adv-x="840" 
d="M420 720c273 0 390 -111 390 -370s-117 -370 -390 -370s-390 111 -390 370s117 370 390 370zM420 90c189 0 270 78 270 260s-81 260 -270 260s-270 -78 -270 -260s81 -260 270 -260zM420 550h1c133 0 196 -48 209 -160h-140c-10 42 -31 60 -70 60c-49 0 -70 -30 -70 -100
s21 -100 70 -100c38 0 59 18 70 60h140c-14 -112 -77 -160 -210 -160c-147 0 -210 60 -210 200s63 200 210 200z" />
    <glyph glyph-name="guillemotleft" unicode="&#xab;" horiz-adv-x="580" 
d="M150 450h170l-120 -190l120 -200h-170l-130 200zM380 450h170l-120 -190l120 -200h-170l-130 200z" />
    <glyph glyph-name="logicalnot" unicode="&#xac;" horiz-adv-x="590" 
d="M550 330v-260h-140v130h-380v130h520z" />
    <glyph glyph-name="registered" unicode="&#xae;" horiz-adv-x="840" 
d="M420 720c273 0 390 -111 390 -370s-117 -370 -390 -370s-390 111 -390 370s117 370 390 370zM420 90c189 0 270 78 270 260s-81 260 -270 260s-270 -78 -270 -260s81 -260 270 -260zM491 170l-72 120h-48v-120h-109l-1 360h180c112 0 160 -36 160 -120
c0 -59 -24 -94 -77 -110l86 -130h-119zM441 450h-70v-80h70c35 0 50 12 50 40s-15 40 -50 40z" />
    <glyph glyph-name="macron" unicode="&#xaf;" horiz-adv-x="400" 
d="M30 550v100h340v-100h-340z" />
    <glyph glyph-name="degree" unicode="&#xb0;" horiz-adv-x="420" 
d="M20 520c0 133 57 190 190 190s190 -57 190 -190s-57 -190 -190 -190s-190 57 -190 190zM130 520c0 -63 24 -90 80 -90s80 27 80 90s-24 90 -80 90s-80 -27 -80 -90z" />
    <glyph glyph-name="plusminus" unicode="&#xb1;" horiz-adv-x="580" 
d="M30 0v130h520v-130h-520zM550 410v-130h-190v-100h-140v100h-190v130h190v90h140v-90h190z" />
    <glyph glyph-name="acute" unicode="&#xb4;" horiz-adv-x="310" 
d="M20 550l90 150h180l-130 -150h-140z" />
    <glyph glyph-name="paragraph" unicode="&#xb6;" horiz-adv-x="760" 
d="M660 570v-770h-150v770h-120v-770h-150v500c-147 0 -210 60 -210 200s75 200 250 200h470v-130h-90z" />
    <glyph glyph-name="periodcentered" unicode="&#xb7;" horiz-adv-x="240" 
d="M120 350c70 0 100 -29 100 -96c0 -66 -30 -95 -100 -95s-100 28 -100 95s30 96 100 96z" />
    <glyph glyph-name="cedilla" unicode="&#xb8;" horiz-adv-x="250" 
d="M70 40h91l-21 -90s90 -20 90 -90c0 -69 -80 -110 -210 -110v70c49 0 80 10 80 40c0 20 -30 30 -70 30z" />
    <glyph glyph-name="guillemotright" unicode="&#xbb;" horiz-adv-x="580" 
d="M30 450h170l130 -190l-130 -200h-170l120 200zM260 450h170l130 -190l-130 -200h-170l120 200z" />
    <glyph glyph-name="questiondown" unicode="&#xbf;" horiz-adv-x="560" 
d="M370 240c0 -210 -160 -160 -160 -270c0 -42 24 -60 80 -60s80 30 80 100h170c0 -161 -78 -230 -260 -230s-260 57 -260 190c0 180 200 130 200 270h150zM295 320c-70 0 -100 29 -100 96c0 66 30 95 100 95s100 -28 100 -95s-30 -96 -100 -96z" />
    <glyph glyph-name="Agrave" unicode="&#xc0;" horiz-adv-x="700" 
d="M490 0h-1l-34 130h-219l-36 -130h-200l220 700h280l200 -700h-210zM349 533l-77 -273h149zM339 870l100 -120h-130l-130 120h160z" />
    <glyph glyph-name="Aacute" unicode="&#xc1;" horiz-adv-x="700" 
d="M490 0h-1l-34 130h-219l-36 -130h-200l220 700h280l200 -700h-210zM349 533l-77 -273h149zM279 750l90 120h170l-120 -120h-140z" />
    <glyph glyph-name="Acircumflex" unicode="&#xc2;" horiz-adv-x="700" 
d="M490 0h-1l-34 130h-219l-36 -130h-200l220 700h280l200 -700h-210zM349 533l-77 -273h149zM449 870l80 -120h-120l-50 50l-50 -50h-120l80 120h180z" />
    <glyph glyph-name="Atilde" unicode="&#xc3;" horiz-adv-x="700" 
d="M490 0h-1l-34 130h-219l-36 -130h-200l220 700h280l200 -700h-210zM349 533l-77 -273h149zM189 760c0 70 50 110 110 110c90 0 100 -40 140 -40c10 0 20 10 20 20h70c0 -70 -50 -110 -110 -110c-90 0 -100 40 -140 40c-10 0 -20 -10 -20 -20h-70z" />
    <glyph glyph-name="Adieresis" unicode="&#xc4;" horiz-adv-x="700" 
d="M490 0h-1l-34 130h-219l-36 -130h-200l220 700h280l200 -700h-210zM349 533l-77 -273h149zM229 890c70 0 100 -24 100 -80s-30 -80 -100 -80s-100 24 -100 80s30 80 100 80zM489 890c70 0 100 -24 100 -80s-30 -80 -100 -80s-100 24 -100 80s30 80 100 80z" />
    <glyph glyph-name="Aring" unicode="&#xc5;" horiz-adv-x="700" 
d="M490 0h-1l-34 130h-219l-36 -130h-200l220 700h280l200 -700h-210zM349 533l-77 -273h149zM359 950c91 0 130 -33 130 -110s-39 -110 -130 -110s-130 33 -130 110s39 110 130 110zM359 800c28 0 40 12 40 40s-12 40 -40 40s-40 -12 -40 -40s12 -40 40 -40z" />
    <glyph glyph-name="AE" unicode="&#xc6;" horiz-adv-x="950" 
d="M930 560h-290v-130h250v-140h-250v-150h290v-140h-470v130h-201l-59 -130h-200l340 700h120h60h410v-140zM460 569l-141 -309h141v309z" />
    <glyph glyph-name="Ccedilla" unicode="&#xc7;" horiz-adv-x="770" 
d="M344 -18l-1 -2c-219 16 -314 129 -314 369c0 259 111 370 370 370c212 0 314 -78 340 -260h-200c-15 77 -57 110 -140 110c-112 0 -160 -66 -160 -220s48 -220 160 -220c83 0 125 33 140 110h200c-36 -170 -128 -249 -303 -258l-7 -31s90 -20 90 -90
c0 -69 -80 -110 -210 -110v70c49 0 80 10 80 40c0 20 -30 30 -70 30z" />
    <glyph glyph-name="Egrave" unicode="&#xc8;" 
d="M590 560h-320v-130h280v-140h-280v-150h320v-140h-520v700h520v-140zM310 870l100 -120h-130l-130 120h160z" />
    <glyph glyph-name="Eacute" unicode="&#xc9;" 
d="M590 560h-320v-130h280v-140h-280v-150h320v-140h-520v700h520v-140zM250 750l90 120h170l-120 -120h-140z" />
    <glyph glyph-name="Ecircumflex" unicode="&#xca;" 
d="M590 560h-320v-130h280v-140h-280v-150h320v-140h-520v700h520v-140zM420 870l80 -120h-120l-50 50l-50 -50h-120l80 120h180z" />
    <glyph glyph-name="Edieresis" unicode="&#xcb;" 
d="M590 560h-320v-130h280v-140h-280v-150h320v-140h-520v700h520v-140zM200 890c70 0 100 -24 100 -80s-30 -80 -100 -80s-100 24 -100 80s30 80 100 80zM460 890c70 0 100 -24 100 -80s-30 -80 -100 -80s-100 24 -100 80s30 80 100 80z" />
    <glyph glyph-name="Igrave" unicode="&#xcc;" horiz-adv-x="340" 
d="M70 700h200v-700h-200v700zM150 870l100 -120h-130l-130 120h160z" />
    <glyph glyph-name="Iacute" unicode="&#xcd;" horiz-adv-x="340" 
d="M70 700h200v-700h-200v700zM90 750l90 120h170l-120 -120h-140z" />
    <glyph glyph-name="Icircumflex" unicode="&#xce;" horiz-adv-x="340" 
d="M70 700h200v-700h-200v700zM260 870l80 -120h-120l-50 50l-50 -50h-120l80 120h180z" />
    <glyph glyph-name="Idieresis" unicode="&#xcf;" horiz-adv-x="340" 
d="M70 700h200v-700h-200v700zM40 890c70 0 100 -24 100 -80s-30 -80 -100 -80s-100 24 -100 80s30 80 100 80zM300 890c70 0 100 -24 100 -80s-30 -80 -100 -80s-100 24 -100 80s30 80 100 80z" />
    <glyph glyph-name="Ntilde" unicode="&#xd1;" horiz-adv-x="780" 
d="M520 700h190v-700h-230l-220 450v-450h-190v700h230l220 -450v450zM220 760c0 70 50 110 110 110c90 0 100 -40 140 -40c10 0 20 10 20 20h70c0 -70 -50 -110 -110 -110c-90 0 -100 40 -140 40c-10 0 -20 -10 -20 -20h-70z" />
    <glyph glyph-name="Ograve" unicode="&#xd2;" horiz-adv-x="800" 
d="M400 720c259 0 370 -111 370 -370s-111 -370 -370 -370s-370 111 -370 370s111 370 370 370zM400 570c-112 0 -160 -66 -160 -220s48 -220 160 -220s160 66 160 220s-48 220 -160 220zM380 870l100 -120h-130l-130 120h160z" />
    <glyph glyph-name="Oacute" unicode="&#xd3;" horiz-adv-x="800" 
d="M400 720c259 0 370 -111 370 -370s-111 -370 -370 -370s-370 111 -370 370s111 370 370 370zM400 570c-112 0 -160 -66 -160 -220s48 -220 160 -220s160 66 160 220s-48 220 -160 220zM320 750l90 120h170l-120 -120h-140z" />
    <glyph glyph-name="Ocircumflex" unicode="&#xd4;" horiz-adv-x="800" 
d="M400 720c259 0 370 -111 370 -370s-111 -370 -370 -370s-370 111 -370 370s111 370 370 370zM400 570c-112 0 -160 -66 -160 -220s48 -220 160 -220s160 66 160 220s-48 220 -160 220zM490 870l80 -120h-120l-50 50l-50 -50h-120l80 120h180z" />
    <glyph glyph-name="Otilde" unicode="&#xd5;" horiz-adv-x="800" 
d="M400 720c259 0 370 -111 370 -370s-111 -370 -370 -370s-370 111 -370 370s111 370 370 370zM400 570c-112 0 -160 -66 -160 -220s48 -220 160 -220s160 66 160 220s-48 220 -160 220zM230 760c0 70 50 110 110 110c90 0 100 -40 140 -40c10 0 20 10 20 20h70
c0 -70 -50 -110 -110 -110c-90 0 -100 40 -140 40c-10 0 -20 -10 -20 -20h-70z" />
    <glyph glyph-name="Odieresis" unicode="&#xd6;" horiz-adv-x="800" 
d="M400 720c259 0 370 -111 370 -370s-111 -370 -370 -370s-370 111 -370 370s111 370 370 370zM400 570c-112 0 -160 -66 -160 -220s48 -220 160 -220s160 66 160 220s-48 220 -160 220zM270 890c70 0 100 -24 100 -80s-30 -80 -100 -80s-100 24 -100 80s30 80 100 80z
M530 890c70 0 100 -24 100 -80s-30 -80 -100 -80s-100 24 -100 80s30 80 100 80z" />
    <glyph glyph-name="multiply" unicode="&#xd7;" horiz-adv-x="560" 
d="M130 500l150 -150l150 150l100 -100l-150 -150l150 -150l-100 -100l-150 150l-150 -150l-100 100l150 150l-150 150z" />
    <glyph glyph-name="Oslash" unicode="&#xd8;" horiz-adv-x="800" 
d="M310 -80h-120l30 86c-131 46 -190 156 -190 344c0 259 111 370 370 370c24 0 47 -1 68 -3l22 63h120l-30 -86c131 -46 190 -156 190 -344c0 -259 -111 -370 -370 -370c-24 0 -47 1 -68 3zM400 570h-1c-112 0 -160 -66 -160 -220c0 -79 13 -135 41 -171
c23 -30 57 -46 103 -49h17c112 0 160 66 160 220c0 79 -13 135 -41 171c-23 30 -57 46 -103 49h-16z" />
    <glyph glyph-name="Ugrave" unicode="&#xd9;" horiz-adv-x="740" 
d="M60 260v440h200v-440c0 -91 33 -130 110 -130s110 39 110 130v440h200v-440c0 -196 -93 -280 -310 -280s-310 84 -310 280zM350 870l100 -120h-130l-130 120h160z" />
    <glyph glyph-name="Uacute" unicode="&#xda;" horiz-adv-x="740" 
d="M60 260v440h200v-440c0 -91 33 -130 110 -130s110 39 110 130v440h200v-440c0 -196 -93 -280 -310 -280s-310 84 -310 280zM290 750l90 120h170l-120 -120h-140z" />
    <glyph glyph-name="Ucircumflex" unicode="&#xdb;" horiz-adv-x="740" 
d="M60 260v440h200v-440c0 -91 33 -130 110 -130s110 39 110 130v440h200v-440c0 -196 -93 -280 -310 -280s-310 84 -310 280zM460 870l80 -120h-120l-50 50l-50 -50h-120l80 120h180z" />
    <glyph glyph-name="Udieresis" unicode="&#xdc;" horiz-adv-x="740" 
d="M60 260v440h200v-440c0 -91 33 -130 110 -130s110 39 110 130v440h200v-440c0 -196 -93 -280 -310 -280s-310 84 -310 280zM240 890c70 0 100 -24 100 -80s-30 -80 -100 -80s-100 24 -100 80s30 80 100 80zM500 890c70 0 100 -24 100 -80s-30 -80 -100 -80
s-100 24 -100 80s30 80 100 80z" />
    <glyph glyph-name="Yacute" unicode="&#xdd;" horiz-adv-x="680" 
d="M440 260v-260h-190v260l-250 440h220l125 -250l125 250h210zM270 750l90 120h170l-120 -120h-140z" />
    <glyph glyph-name="germandbls" unicode="&#xdf;" horiz-adv-x="680" 
d="M340 720l1 -1c182 0 267 -52 278 -163c1 -9 1 -18 1 -27c0 -69 -27 -108 -90 -139c84 -34 120 -88 120 -180c0 -147 -66 -210 -220 -210c-60 0 -110 20 -110 20v120s30 -10 60 -10c63 0 90 27 90 90c0 70 -39 100 -130 100v120c77 0 110 21 110 70c0 56 -30 80 -100 80
c-77 0 -110 -37 -110 -100v-10v-480h-180v470c0 10 0 20 1 29c10 140 95 221 279 221z" />
    <glyph glyph-name="agrave" unicode="&#xe0;" horiz-adv-x="560" 
d="M359.35 36.3799c-32.9902 -31.5703 -81.79 -46.3799 -149.35 -46.3799c-133 0 -190 48 -190 160c0 119 75 170 250 170h70v20c0 49 -20 70 -66 70c-45 0 -64 -18 -64 -60h-170c0 112 72 160 240 160s240 -57 240 -190v-320h-140zM201 160l1 -1c0 -38 18 -50 60 -50
c52 0 76 23 79 76v14v20h-50h-15c-52 -2 -75 -17 -75 -59zM272 699l90 -150h-140l-130 150h180z" />
    <glyph glyph-name="aacute" unicode="&#xe1;" horiz-adv-x="560" 
d="M359.35 36.3799c-32.9902 -31.5703 -81.79 -46.3799 -149.35 -46.3799c-133 0 -190 48 -190 160c0 119 75 170 250 170h70v20c0 49 -20 70 -66 70c-45 0 -64 -18 -64 -60h-170c0 112 72 160 240 160s240 -57 240 -190v-320h-140zM201 160l1 -1c0 -38 18 -50 60 -50
c52 0 76 23 79 76v14v20h-50h-15c-52 -2 -75 -17 -75 -59zM192 549l90 150h180l-130 -150h-140z" />
    <glyph glyph-name="acircumflex" unicode="&#xe2;" horiz-adv-x="560" 
d="M359.35 36.3799c-32.9902 -31.5703 -81.79 -46.3799 -149.35 -46.3799c-133 0 -190 48 -190 160c0 119 75 170 250 170h70v20c0 49 -20 70 -66 70c-45 0 -64 -18 -64 -60h-170c0 112 72 160 240 160s240 -57 240 -190v-320h-140zM201 160l1 -1c0 -38 18 -50 60 -50
c52 0 76 23 79 76v14v20h-50h-15c-52 -2 -75 -17 -75 -59zM372 699l80 -150h-110l-60 70l-60 -70h-110l80 150h180z" />
    <glyph glyph-name="atilde" unicode="&#xe3;" horiz-adv-x="560" 
d="M359.35 36.3799c-32.9902 -31.5703 -81.79 -46.3799 -149.35 -46.3799c-133 0 -190 48 -190 160c0 119 75 170 250 170h70v20c0 49 -20 70 -66 70c-45 0 -64 -18 -64 -60h-170c0 112 72 160 240 160s240 -57 240 -190v-320h-140zM201 160l1 -1c0 -38 18 -50 60 -50
c52 0 76 23 79 76v14v20h-50h-15c-52 -2 -75 -17 -75 -59zM112 579c0 70 50 130 110 130c90 0 100 -70 130 -70c10 0 20 10 20 30h80c0 -70 -50 -130 -110 -130c-90 0 -100 70 -130 70c-10 0 -20 -10 -20 -30h-80z" />
    <glyph glyph-name="adieresis" unicode="&#xe4;" horiz-adv-x="560" 
d="M359.35 36.3799c-32.9902 -31.5703 -81.79 -46.3799 -149.35 -46.3799c-133 0 -190 48 -190 160c0 119 75 170 250 170h70v20c0 49 -20 70 -66 70c-45 0 -64 -18 -64 -60h-170c0 112 72 160 240 160s240 -57 240 -190v-320h-140zM201 160l1 -1c0 -38 18 -50 60 -50
c52 0 76 23 79 76v14v20h-50h-15c-52 -2 -75 -17 -75 -59zM162 709c70 0 100 -29 100 -96c0 -66 -30 -95 -100 -95s-100 28 -100 95s30 96 100 96zM402 709c70 0 100 -29 100 -96c0 -66 -30 -95 -100 -95s-100 28 -100 95s30 96 100 96z" />
    <glyph glyph-name="aring" unicode="&#xe5;" horiz-adv-x="560" 
d="M359.35 36.3799c-32.9902 -31.5703 -81.79 -46.3799 -149.35 -46.3799c-133 0 -190 48 -190 160c0 119 75 170 250 170h70v20c0 49 -20 70 -66 70c-45 0 -64 -18 -64 -60h-170c0 112 72 160 240 160s240 -57 240 -190v-320h-140zM201 160l1 -1c0 -38 18 -50 60 -50
c52 0 76 23 79 76v14v20h-50h-15c-52 -2 -75 -17 -75 -59zM282 749c91 0 130 -33 130 -110s-39 -110 -130 -110s-130 33 -130 110s39 110 130 110zM282 599c28 0 40 12 40 40s-12 40 -40 40s-40 -12 -40 -40s12 -40 40 -40z" />
    <glyph glyph-name="ae" unicode="&#xe6;" horiz-adv-x="900" 
d="M519 200l-1 -1c8 -69 37 -100 92 -100c46 0 70 18 80 60h170c-21 -119 -96 -170 -250 -170c-101 0 -164 33 -196 107c-28 -74 -93 -107 -205 -107c-133 0 -190 48 -190 160s66 164 218 170h32h70v20c0 42 -21 60 -70 60c-42 0 -60 -15 -60 -50h-170c0 112 72 160 240 160
c80 0 134 -18 166 -58c36 40 90 59 165 59c189 0 270 -78 270 -260v-50h-361zM339 218h-49c-63 0 -90 -18 -90 -60c0 -35 18 -50 60 -50c56 0 79 28 79 91v19zM610 398c-53 0 -81 -31 -90 -100h180c0 70 -27 100 -90 100z" />
    <glyph glyph-name="ccedilla" unicode="&#xe7;" horiz-adv-x="580" 
d="M246.51 -9.87012c-156.94 14.3701 -225.51 94.3799 -225.51 258.86c0 182 84 260 280 260c168 0 246 -60 260 -200h-180c-8 49 -32 70 -80 70c-70 0 -100 -39 -100 -130s30 -130 100 -130c47 0 71 21 80 70h180c-13 -128 -80 -189 -221 -198l-10 -41s90 -20 90 -90
c0 -69 -80 -110 -210 -110v70c49 0 80 10 80 40c0 20 -30 30 -70 30z" />
    <glyph glyph-name="egrave" unicode="&#xe8;" horiz-adv-x="580" 
d="M199 200c8 -69 37 -100 91 -100c47 0 71 18 80 60h170c-21 -119 -96 -170 -250 -170c-189 0 -270 78 -270 260s81 260 270 260s270 -78 270 -260v-50h-361zM290 400c-54 0 -82 -31 -90 -100h180c0 70 -27 100 -90 100zM280 700l90 -150h-140l-130 150h180z" />
    <glyph glyph-name="eacute" unicode="&#xe9;" horiz-adv-x="580" 
d="M199 200c8 -69 37 -100 91 -100c47 0 71 18 80 60h170c-21 -119 -96 -170 -250 -170c-189 0 -270 78 -270 260s81 260 270 260s270 -78 270 -260v-50h-361zM290 400c-54 0 -82 -31 -90 -100h180c0 70 -27 100 -90 100zM210 550l90 150h180l-130 -150h-140z" />
    <glyph glyph-name="ecircumflex" unicode="&#xea;" horiz-adv-x="580" 
d="M199 200c8 -69 37 -100 91 -100c47 0 71 18 80 60h170c-21 -119 -96 -170 -250 -170c-189 0 -270 78 -270 260s81 260 270 260s270 -78 270 -260v-50h-361zM290 400c-54 0 -82 -31 -90 -100h180c0 70 -27 100 -90 100zM380 700l80 -150h-110l-60 70l-60 -70h-110l80 150
h180z" />
    <glyph glyph-name="edieresis" unicode="&#xeb;" horiz-adv-x="580" 
d="M199 200c8 -69 37 -100 91 -100c47 0 71 18 80 60h170c-21 -119 -96 -170 -250 -170c-189 0 -270 78 -270 260s81 260 270 260s270 -78 270 -260v-50h-361zM290 400c-54 0 -82 -31 -90 -100h180c0 70 -27 100 -90 100zM170 710c70 0 100 -29 100 -96
c0 -66 -30 -95 -100 -95s-100 28 -100 95s30 96 100 96zM410 710c70 0 100 -29 100 -96c0 -66 -30 -95 -100 -95s-100 28 -100 95s30 96 100 96z" />
    <glyph glyph-name="igrave" unicode="&#xec;" horiz-adv-x="260" 
d="M220 0h-180v500h180v-500zM120 700l90 -150h-140l-130 150h180z" />
    <glyph glyph-name="iacute" unicode="&#xed;" horiz-adv-x="270" 
d="M230 0h-180v500h180v-500zM50 550l90 150h180l-130 -150h-140z" />
    <glyph glyph-name="icircumflex" unicode="&#xee;" horiz-adv-x="260" 
d="M220 0h-180v500h180v-500zM220 700l80 -150h-110l-60 70l-60 -70h-110l80 150h180z" />
    <glyph glyph-name="idieresis" unicode="&#xef;" horiz-adv-x="280" 
d="M230 0h-180v500h180v-500zM20 710c70 0 100 -29 100 -96c0 -66 -30 -95 -100 -95s-100 28 -100 95s30 96 100 96zM260 710c70 0 100 -29 100 -96c0 -66 -30 -95 -100 -95s-100 28 -100 95s30 96 100 96z" />
    <glyph glyph-name="ntilde" unicode="&#xf1;" horiz-adv-x="590" 
d="M190 500l20 -34c32 30 78 44 140 44c140 0 200 -72 200 -240v-270h-180v270c0 77 -21 110 -70 110s-70 -33 -70 -110v-270h-180v500h140zM130 580c0 70 50 130 110 130c90 0 100 -70 130 -70c10 0 20 10 20 30h80c0 -70 -50 -130 -110 -130c-90 0 -100 70 -130 70
c-10 0 -20 -10 -20 -30h-80z" />
    <glyph glyph-name="ograve" unicode="&#xf2;" horiz-adv-x="600" 
d="M300 510c196 0 280 -78 280 -260s-84 -260 -280 -260s-280 78 -280 260s84 260 280 260zM200 250c0 -91 30 -130 100 -130s100 39 100 130s-30 130 -100 130s-100 -39 -100 -130zM290 700l90 -150h-140l-130 150h180z" />
    <glyph glyph-name="oacute" unicode="&#xf3;" horiz-adv-x="600" 
d="M300 510c196 0 280 -78 280 -260s-84 -260 -280 -260s-280 78 -280 260s84 260 280 260zM200 250c0 -91 30 -130 100 -130s100 39 100 130s-30 130 -100 130s-100 -39 -100 -130zM220 550l90 150h180l-130 -150h-140z" />
    <glyph glyph-name="ocircumflex" unicode="&#xf4;" horiz-adv-x="600" 
d="M300 510c196 0 280 -78 280 -260s-84 -260 -280 -260s-280 78 -280 260s84 260 280 260zM200 250c0 -91 30 -130 100 -130s100 39 100 130s-30 130 -100 130s-100 -39 -100 -130zM390 700l80 -150h-110l-60 70l-60 -70h-110l80 150h180z" />
    <glyph glyph-name="otilde" unicode="&#xf5;" horiz-adv-x="600" 
d="M300 510c196 0 280 -78 280 -260s-84 -260 -280 -260s-280 78 -280 260s84 260 280 260zM200 250c0 -91 30 -130 100 -130s100 39 100 130s-30 130 -100 130s-100 -39 -100 -130zM130 580c0 70 50 130 110 130c90 0 100 -70 130 -70c10 0 20 10 20 30h80
c0 -70 -50 -130 -110 -130c-90 0 -100 70 -130 70c-10 0 -20 -10 -20 -30h-80z" />
    <glyph glyph-name="odieresis" unicode="&#xf6;" horiz-adv-x="600" 
d="M300 510c196 0 280 -78 280 -260s-84 -260 -280 -260s-280 78 -280 260s84 260 280 260zM200 250c0 -91 30 -130 100 -130s100 39 100 130s-30 130 -100 130s-100 -39 -100 -130zM180 710c70 0 100 -29 100 -96c0 -66 -30 -95 -100 -95s-100 28 -100 95s30 96 100 96z
M420 710c70 0 100 -29 100 -96c0 -66 -30 -95 -100 -95s-100 28 -100 95s30 96 100 96z" />
    <glyph glyph-name="divide" unicode="&#xf7;" horiz-adv-x="580" 
d="M550 190h-520v130h520v-130zM200 75c0 51 36 85 90 85s90 -34 90 -85s-36 -85 -90 -85s-90 34 -90 85zM200 445c0 51 36 85 90 85s90 -34 90 -85s-36 -85 -90 -85s-90 34 -90 85z" />
    <glyph glyph-name="oslash" unicode="&#xf8;" horiz-adv-x="600" 
d="M230 -70v-1h-80l26 74c-107 30 -155 108 -155 245c0 182 84 260 280 260c17 0 33 -1 48 -2l21 62h80l-26 -74c108 -30 156 -108 156 -245c0 -182 -84 -260 -280 -260c-17 0 -33 1 -49 2zM299 119c70 0 100 39 100 130c0 47 -8 80 -25 101c-16 19 -39 28 -71 29h-4
c-70 0 -100 -39 -100 -130c0 -47 8 -80 25 -101c15 -19 38 -28 70 -29h5z" />
    <glyph glyph-name="ugrave" unicode="&#xf9;" horiz-adv-x="590" 
d="M400 0v-1l-20 34c-32 -30 -78 -44 -140 -44c-140 0 -200 72 -200 240v270h180v-270c0 -77 21 -110 70 -110s70 33 70 110v39v232h180v-500h-140zM300 699l90 -150h-140l-130 150h180z" />
    <glyph glyph-name="uacute" unicode="&#xfa;" horiz-adv-x="590" 
d="M400 0v-1l-20 34c-32 -30 -78 -44 -140 -44c-140 0 -200 72 -200 240v270h180v-270c0 -77 21 -110 70 -110s70 33 70 110v39v232h180v-500h-140zM190 549l90 150h180l-130 -150h-140z" />
    <glyph glyph-name="ucircumflex" unicode="&#xfb;" horiz-adv-x="590" 
d="M400 0v-1l-20 34c-32 -30 -78 -44 -140 -44c-140 0 -200 72 -200 240v270h180v-270c0 -77 21 -110 70 -110s70 33 70 110v39v232h180v-500h-140zM380 699l80 -150h-110l-60 70l-60 -70h-110l80 150h180z" />
    <glyph glyph-name="udieresis" unicode="&#xfc;" horiz-adv-x="590" 
d="M400 0v-1l-20 34c-32 -30 -78 -44 -140 -44c-140 0 -200 72 -200 240v270h180v-270c0 -77 21 -110 70 -110s70 33 70 110v39v232h180v-500h-140zM160 709c70 0 100 -29 100 -96c0 -66 -30 -95 -100 -95s-100 28 -100 95s30 96 100 96zM400 709c70 0 100 -29 100 -96
c0 -66 -30 -95 -100 -95s-100 28 -100 95s30 96 100 96z" />
    <glyph glyph-name="yacute" unicode="&#xfd;" horiz-adv-x="540" 
d="M210 0v1l4 13l-214 487h170l111 -278l89 278h170l-170 -490c-10 -27 -19 -50 -28 -70c-44 -100 -77 -121 -152 -121h-40h-80v110h70c30 0 48 1 70 70zM210 551l90 150h180l-130 -150h-140z" />
    <glyph glyph-name="ydieresis" unicode="&#xff;" horiz-adv-x="540" 
d="M210 0v1l4 13l-214 487h170l111 -278l89 278h170l-170 -490c-10 -27 -19 -50 -28 -70c-44 -100 -77 -121 -152 -121h-40h-80v110h70c30 0 48 1 70 70zM160 711c70 0 100 -29 100 -96c0 -66 -30 -95 -100 -95s-100 28 -100 95s30 96 100 96zM400 711c70 0 100 -29 100 -96
c0 -66 -30 -95 -100 -95s-100 28 -100 95s30 96 100 96z" />
    <glyph glyph-name="Amacron" unicode="&#x100;" horiz-adv-x="700" 
d="M490 0h-1l-34 130h-219l-36 -130h-200l220 700h280l200 -700h-210zM349 533l-77 -273h149zM189 750v100h340v-100h-340z" />
    <glyph glyph-name="amacron" unicode="&#x101;" horiz-adv-x="560" 
d="M359.35 36.3799c-32.9902 -31.5703 -81.79 -46.3799 -149.35 -46.3799c-133 0 -190 48 -190 160c0 119 75 170 250 170h70v20c0 49 -20 70 -66 70c-45 0 -64 -18 -64 -60h-170c0 112 72 160 240 160s240 -57 240 -190v-320h-140zM201 160l1 -1c0 -38 18 -50 60 -50
c52 0 76 23 79 76v14v20h-50h-15c-52 -2 -75 -17 -75 -59zM112 549v100h340v-100h-340z" />
    <glyph glyph-name="Abreve" unicode="&#x102;" horiz-adv-x="700" 
d="M490 0h-1l-34 130h-219l-36 -130h-200l220 700h280l200 -700h-210zM349 533l-77 -273h149zM529 870c0 -84 -51 -120 -170 -120s-170 36 -170 120h130c0 -28 12 -40 40 -40s40 12 40 40h130z" />
    <glyph glyph-name="abreve" unicode="&#x103;" horiz-adv-x="560" 
d="M359.35 36.3799c-32.9902 -31.5703 -81.79 -46.3799 -149.35 -46.3799c-133 0 -190 48 -190 160c0 119 75 170 250 170h70v20c0 49 -20 70 -66 70c-45 0 -64 -18 -64 -60h-170c0 112 72 160 240 160s240 -57 240 -190v-320h-140zM201 160l1 -1c0 -38 18 -50 60 -50
c52 0 76 23 79 76v14v20h-50h-15c-52 -2 -75 -17 -75 -59zM452 699c0 -105 -51 -150 -170 -150s-170 45 -170 150h120c0 -42 15 -60 50 -60s50 18 50 60h120z" />
    <glyph glyph-name="Aogonek" unicode="&#x104;" horiz-adv-x="700" 
d="M563.94 -1l-74.9395 -0.0107422l-34 130h-219l-36 -130h-200l220 700h280l200 -700h-44c-42 -42 -57 -100 -6 -100c19 0 40 10 40 10v-140s-30 -20 -70 -20c-7 0 -14 1 -21 2c-103.61 16.9404 -128.811 158.94 -35.0605 248.011zM349.001 531.989l-77 -273h149z" />
    <glyph glyph-name="aogonek" unicode="&#x105;" horiz-adv-x="560" 
d="M376 7l2 1l-17 30c-33 -32 -82 -47 -150 -47c-133 0 -190 48 -190 160c0 119 75 170 250 170h70v20c0 49 -20 70 -66 70c-45 0 -64 -18 -64 -60h-170c0 112 72 160 240 160s240 -57 240 -190v-320h-61c-42 -42 -57 -100 -6 -100c19 0 40 10 40 10v-140s-30 -20 -70 -20
c-124 0 -157 163 -48 256zM202 161l1 -1c0 -38 18 -50 60 -50c52 0 76 23 79 76v14v20h-50h-15c-52 -2 -75 -17 -75 -59z" />
    <glyph glyph-name="Cacute" unicode="&#x106;" horiz-adv-x="770" 
d="M540 240h200c-39 -182 -141 -260 -340 -260c-259 0 -370 111 -370 370s111 370 370 370c212 0 314 -78 340 -260h-200c-15 77 -57 110 -140 110c-112 0 -160 -66 -160 -220s48 -220 160 -220c83 0 125 33 140 110zM320 750l90 120h170l-120 -120h-140z" />
    <glyph glyph-name="cacute" unicode="&#x107;" horiz-adv-x="580" 
d="M380 190h180c-14 -140 -92 -200 -260 -200c-196 0 -280 78 -280 260s84 260 280 260c168 0 246 -60 260 -200h-180c-8 49 -32 70 -80 70c-70 0 -100 -39 -100 -130s30 -130 100 -130c47 0 71 21 80 70zM220 550l90 150h180l-130 -150h-140z" />
    <glyph glyph-name="Ccircumflex" unicode="&#x108;" horiz-adv-x="770" 
d="M540 240h200c-39 -182 -141 -260 -340 -260c-259 0 -370 111 -370 370s111 370 370 370c212 0 314 -78 340 -260h-200c-15 77 -57 110 -140 110c-112 0 -160 -66 -160 -220s48 -220 160 -220c83 0 125 33 140 110zM490 870l80 -120h-120l-50 50l-50 -50h-120l80 120h180z
" />
    <glyph glyph-name="ccircumflex" unicode="&#x109;" horiz-adv-x="580" 
d="M380 190h180c-14 -140 -92 -200 -260 -200c-196 0 -280 78 -280 260s84 260 280 260c168 0 246 -60 260 -200h-180c-8 49 -32 70 -80 70c-70 0 -100 -39 -100 -130s30 -130 100 -130c47 0 71 21 80 70zM390 700l80 -150h-110l-60 70l-60 -70h-110l80 150h180z" />
    <glyph glyph-name="Cdotaccent" unicode="&#x10a;" horiz-adv-x="770" 
d="M540 240h200c-39 -182 -141 -260 -340 -260c-259 0 -370 111 -370 370s111 370 370 370c212 0 314 -78 340 -260h-200c-15 77 -57 110 -140 110c-112 0 -160 -66 -160 -220s48 -220 160 -220c83 0 125 33 140 110zM400 900c70 0 100 -24 100 -80s-30 -80 -100 -80
s-100 24 -100 80s30 80 100 80z" />
    <glyph glyph-name="cdotaccent" unicode="&#x10b;" horiz-adv-x="580" 
d="M380 190h180c-14 -140 -92 -200 -260 -200c-196 0 -280 78 -280 260s84 260 280 260c168 0 246 -60 260 -200h-180c-8 49 -32 70 -80 70c-70 0 -100 -39 -100 -130s30 -130 100 -130c47 0 71 21 80 70zM300 720l-1 1c70 0 100 -27 100 -90s-30 -90 -100 -90
c-69 0 -99 27 -99 89c0 63 30 90 100 90z" />
    <glyph glyph-name="Ccaron" unicode="&#x10c;" horiz-adv-x="770" 
d="M540 240h200c-39 -182 -141 -260 -340 -260c-259 0 -370 111 -370 370s111 370 370 370c212 0 314 -78 340 -260h-200c-15 77 -57 110 -140 110c-112 0 -160 -66 -160 -220s48 -220 160 -220c83 0 125 33 140 110zM560 870l-80 -120h-180l-80 120h120l50 -50l50 50h120z
" />
    <glyph glyph-name="ccaron" unicode="&#x10d;" horiz-adv-x="580" 
d="M380 190h180c-14 -140 -92 -200 -260 -200c-196 0 -280 78 -280 260s84 260 280 260c168 0 246 -60 260 -200h-180c-8 49 -32 70 -80 70c-70 0 -100 -39 -100 -130s30 -130 100 -130c47 0 71 21 80 70zM470 700l-80 -150h-180l-80 150h110l60 -70l60 70h110z" />
    <glyph glyph-name="Dcaron" unicode="&#x10e;" horiz-adv-x="750" 
d="M720 350c0 -245 -108 -350 -360 -350h-290v700h290c252 0 360 -105 360 -350zM350 560h-80v-420h80c112 0 160 63 160 210s-48 210 -160 210zM510 870l-80 -120h-180l-80 120h120l50 -50l50 50h120z" />
    <glyph glyph-name="dcaron" unicode="&#x10f;" horiz-adv-x="740" 
d="M240 -10l2 1c-154 0 -220 78 -220 260s66 260 220 260c59 0 105 -12 139 -37v226h180v-573v-127h-140l-23 40c-36 -34 -88 -50 -158 -50zM292 121c63 0 90 39 90 130s-27 130 -90 130s-90 -39 -90 -130s27 -130 90 -130zM672 711l1 -1c40 0 61 -18 67 -59
c1 -9 2 -19 2 -30c0 -84 -39 -120 -130 -120v60c35 0 50 12 50 40c-42 0 -60 15 -60 50c0 5 0 9 1 13c4 33 25 47 69 47z" />
    <glyph glyph-name="Dcroat" unicode="&#x110;" horiz-adv-x="760" 
d="M730 350c0 -245 -108 -350 -360 -350h-290v320h-90v120h90v260h290c252 0 360 -105 360 -350zM360 560h-80v-120h132v-120h-132v-180h80c112 0 160 63 160 210s-48 210 -160 210z" />
    <glyph glyph-name="dcroat" unicode="&#x111;" horiz-adv-x="650" 
d="M650 630l2 1v-80h-90v-423v-127h-140l-23 40c-36 -34 -88 -50 -158 -50c-154 0 -220 78 -220 260s66 260 220 260c59 0 105 -12 139 -37v76h-160v80h160v70h180v-70h90zM292 121c63 0 90 39 90 130s-27 130 -90 130s-90 -39 -90 -130s27 -130 90 -130z" />
    <glyph glyph-name="Emacron" unicode="&#x112;" 
d="M590 560h-320v-130h280v-140h-280v-150h320v-140h-520v700h520v-140zM160 750v100h340v-100h-340z" />
    <glyph glyph-name="emacron" unicode="&#x113;" horiz-adv-x="580" 
d="M199 200c8 -69 37 -100 91 -100c47 0 71 18 80 60h170c-21 -119 -96 -170 -250 -170c-189 0 -270 78 -270 260s81 260 270 260s270 -78 270 -260v-50h-361zM290 400c-54 0 -82 -31 -90 -100h180c0 70 -27 100 -90 100zM120 550v100h340v-100h-340z" />
    <glyph glyph-name="Ebreve" unicode="&#x114;" 
d="M590 560h-320v-130h280v-140h-280v-150h320v-140h-520v700h520v-140zM500 870c0 -84 -51 -120 -170 -120s-170 36 -170 120h130c0 -28 12 -40 40 -40s40 12 40 40h130z" />
    <glyph glyph-name="ebreve" unicode="&#x115;" horiz-adv-x="580" 
d="M199 200c8 -69 37 -100 91 -100c47 0 71 18 80 60h170c-21 -119 -96 -170 -250 -170c-189 0 -270 78 -270 260s81 260 270 260s270 -78 270 -260v-50h-361zM290 400c-54 0 -82 -31 -90 -100h180c0 70 -27 100 -90 100zM460 700c0 -105 -51 -150 -170 -150
s-170 45 -170 150h120c0 -42 15 -60 50 -60s50 18 50 60h120z" />
    <glyph glyph-name="Edotaccent" unicode="&#x116;" 
d="M590 560h-320v-130h280v-140h-280v-150h320v-140h-520v700h520v-140zM330 900c70 0 100 -24 100 -80s-30 -80 -100 -80s-100 24 -100 80s30 80 100 80z" />
    <glyph glyph-name="edotaccent" unicode="&#x117;" horiz-adv-x="580" 
d="M199 200c8 -69 37 -100 91 -100c47 0 71 18 80 60h170c-21 -119 -96 -170 -250 -170c-189 0 -270 78 -270 260s81 260 270 260s270 -78 270 -260v-50h-361zM290 400c-54 0 -82 -31 -90 -100h180c0 70 -27 100 -90 100zM290 720l-1 1c70 0 100 -27 100 -90
s-30 -90 -100 -90c-69 0 -99 27 -99 89c0 63 30 90 100 90z" />
    <glyph glyph-name="Eogonek" unicode="&#x118;" 
d="M440.94 -1l-370.939 -0.0107422v700h520v-140h-320v-130h280v-140h-280v-150h320v-140h-57c-42 -42 -57 -100 -6 -100c19 0 40 10 40 10v-140s-30 -20 -70 -20c-7 0 -14 1 -21 2c-103.61 16.9404 -128.811 158.94 -35.0605 248.011z" />
    <glyph glyph-name="eogonek" unicode="&#x119;" horiz-adv-x="580" 
d="M295 -10h-5c-189 0 -270 78 -270 260s81 260 270 260s270 -78 270 -260v-50h-361c8 -69 37 -100 91 -100c47 0 71 18 80 60h170c-16 -87 -61 -138 -144 -159c-43 -42 -58 -101 -6 -101c19 0 40 10 40 10v-140s-30 -20 -70 -20c-7 0 -14 1 -21 2c-100 16 -127 149 -44 238
zM291 400c-54 0 -82 -31 -90 -100h180c0 70 -27 100 -90 100z" />
    <glyph glyph-name="Ecaron" unicode="&#x11a;" 
d="M590 560h-320v-130h280v-140h-280v-150h320v-140h-520v700h520v-140zM490 870l-80 -120h-180l-80 120h120l50 -50l50 50h120z" />
    <glyph glyph-name="ecaron" unicode="&#x11b;" horiz-adv-x="580" 
d="M199 200c8 -69 37 -100 91 -100c47 0 71 18 80 60h170c-21 -119 -96 -170 -250 -170c-189 0 -270 78 -270 260s81 260 270 260s270 -78 270 -260v-50h-361zM290 400c-54 0 -82 -31 -90 -100h180c0 70 -27 100 -90 100zM460 700l-80 -150h-180l-80 150h110l60 -70l60 70
h110z" />
    <glyph glyph-name="Gbreve" unicode="&#x11e;" horiz-adv-x="780" 
d="M400 280v130h350v-60c0 -259 -105 -370 -350 -370c-259 0 -370 111 -370 370s111 370 370 370c204 0 306 -72 340 -240h-190c-16 63 -61 90 -150 90c-112 0 -160 -66 -160 -220s48 -220 160 -220s160 45 160 150h-160zM570 870c0 -84 -51 -120 -170 -120
s-170 36 -170 120h130c0 -28 12 -40 40 -40s40 12 40 40h130z" />
    <glyph glyph-name="gbreve" unicode="&#x11f;" 
d="M240 -10h-3c-154 0 -220 78 -220 260s66 260 220 260c70 0 122 -16 158 -50l23 40h140v-450c0 -182 -81 -260 -270 -260c-157 0 -232 51 -249 170h170c8 -42 29 -60 70 -60c70 0 100 36 100 119v8c-34 -25 -80 -37 -139 -37zM287 120c63 0 90 39 90 130s-27 130 -90 130
s-90 -39 -90 -130s27 -130 90 -130zM457 700c0 -105 -51 -150 -170 -150s-170 45 -170 150h120c0 -42 15 -60 50 -60s50 18 50 60h120z" />
    <glyph glyph-name="Gdotaccent" unicode="&#x120;" horiz-adv-x="780" 
d="M400 280v130h350v-60c0 -259 -105 -370 -350 -370c-259 0 -370 111 -370 370s111 370 370 370c204 0 306 -72 340 -240h-190c-16 63 -61 90 -150 90c-112 0 -160 -66 -160 -220s48 -220 160 -220s160 45 160 150h-160zM400 900c70 0 100 -24 100 -80s-30 -80 -100 -80
s-100 24 -100 80s30 80 100 80z" />
    <glyph glyph-name="gdotaccent" unicode="&#x121;" 
d="M240 -10h-3c-154 0 -220 78 -220 260s66 260 220 260c70 0 122 -16 158 -50l23 40h140v-450c0 -182 -81 -260 -270 -260c-157 0 -232 51 -249 170h170c8 -42 29 -60 70 -60c70 0 100 36 100 119v8c-34 -25 -80 -37 -139 -37zM287 120c63 0 90 39 90 130s-27 130 -90 130
s-90 -39 -90 -130s27 -130 90 -130zM237 720l-1 1c70 0 100 -27 100 -90s-30 -90 -100 -90c-69 0 -99 27 -99 89c0 63 30 90 100 90z" />
    <glyph glyph-name="Gcedilla" unicode="&#x122;" horiz-adv-x="780" 
d="M400 280v130h350v-60c0 -259 -105 -370 -350 -370c-259 0 -370 111 -370 370s111 370 370 370c204 0 306 -72 340 -240h-190c-16 63 -61 90 -150 90c-112 0 -160 -66 -160 -220s48 -220 160 -220s160 45 160 150h-160zM400 -40l1 -1c40 0 61 -18 67 -59c1 -9 2 -19 2 -30
c0 -84 -39 -120 -130 -120v60c35 0 50 12 50 40c-42 0 -60 15 -60 50c0 5 0 9 1 13c4 33 25 47 69 47z" />
    <glyph glyph-name="gcedilla" unicode="&#x123;" horiz-adv-x="580" 
d="M240 -10h-3c-154 0 -220 78 -220 260s66 260 220 260c70 0 122 -16 158 -50l23 40h140v-450c0 -182 -81 -260 -270 -260c-157 0 -232 51 -249 170h170c8 -42 29 -60 70 -60c70 0 100 36 100 119v8c-34 -25 -80 -37 -139 -37zM287 120c63 0 90 39 90 130s-27 130 -90 130
s-90 -39 -90 -130s27 -130 90 -130zM277 550l-1 1c-40 0 -61 18 -67 59c-1 9 -2 19 -2 30c0 84 39 120 130 120v-60c-35 0 -50 -12 -50 -40c42 0 60 -15 60 -50c0 -5 0 -9 -1 -13c-4 -33 -25 -47 -69 -47z" />
    <glyph glyph-name="Itilde" unicode="&#x128;" horiz-adv-x="340" 
d="M70 700h200v-700h-200v700zM0 760c0 70 50 110 110 110c90 0 100 -40 140 -40c10 0 20 10 20 20h70c0 -70 -50 -110 -110 -110c-90 0 -100 40 -140 40c-10 0 -20 -10 -20 -20h-70z" />
    <glyph glyph-name="itilde" unicode="&#x129;" horiz-adv-x="280" 
d="M230 0h-180v500h180v-500zM-30 580c0 70 50 130 110 130c90 0 100 -70 130 -70c10 0 20 10 20 30h80c0 -70 -50 -130 -110 -130c-90 0 -100 70 -130 70c-10 0 -20 -10 -20 -30h-80z" />
    <glyph glyph-name="Imacron" unicode="&#x12a;" horiz-adv-x="340" 
d="M70 700h200v-700h-200v700zM0 750v100h340v-100h-340z" />
    <glyph glyph-name="imacron" unicode="&#x12b;" horiz-adv-x="280" 
d="M230 0h-180v500h180v-500zM-30 550v100h340v-100h-340z" />
    <glyph glyph-name="Iogonek" unicode="&#x12e;" horiz-adv-x="340" 
d="M143.94 -1l-72.9395 -0.0107422v700h200v-700h-35c-42 -42 -57 -100 -6 -100c19 0 40 10 40 10v-140s-30 -20 -70 -20c-7 0 -14 1 -21 2c-103.61 16.9404 -128.811 158.94 -35.0605 248.011z" />
    <glyph glyph-name="iogonek" unicode="&#x12f;" horiz-adv-x="300" 
d="M113.94 -1l-52.9395 -0.0107422v500h180v-500h-35c-42 -42 -57 -100 -6 -100c19 0 40 10 40 10v-140s-30 -20 -70 -20c-7 0 -14 1 -21 2c-103.61 16.9404 -128.811 158.94 -35.0605 248.011zM151.001 728.989c70 0 100 -27 100 -90s-30 -90 -100 -90s-100 27 -100 90
s30 90 100 90z" />
    <glyph glyph-name="Idotaccent" unicode="&#x130;" horiz-adv-x="340" 
d="M70 700h200v-700h-200v700zM170 900c70 0 100 -24 100 -80s-30 -80 -100 -80s-100 24 -100 80s30 80 100 80z" />
    <glyph glyph-name="dotlessi" unicode="&#x131;" horiz-adv-x="280" 
d="M230 0h-180v500h180v-500z" />
    <glyph glyph-name="IJ" unicode="&#x132;" horiz-adv-x="940" 
d="M70 700h200v-700h-200v700zM360 210v40h190v-40c0 -56 18 -80 60 -80s60 24 60 80v490h200v-490c0 -154 -78 -220 -260 -220c-175 0 -250 66 -250 220z" />
    <glyph glyph-name="ij" unicode="&#x133;" horiz-adv-x="590" 
d="M230 0h-180v500h180v-500zM310 -50c30 0 50 20 50 50v500h180v-520c0 -100 -60 -160 -160 -160h-160v130h90zM140 730c70 0 100 -27 100 -90s-30 -90 -100 -90s-100 27 -100 90s30 90 100 90zM450 730c70 0 100 -27 100 -90s-30 -90 -100 -90s-100 27 -100 90
s30 90 100 90z" />
    <glyph glyph-name="Kcedilla" unicode="&#x136;" horiz-adv-x="740" 
d="M270 700v-255l210 255h240l-280 -340l300 -360h-240l-230 276v-276h-200v700h200zM360 -40l1 -1c40 0 61 -18 67 -59c1 -9 2 -19 2 -30c0 -84 -39 -120 -130 -120v60c35 0 50 12 50 40c-42 0 -60 15 -60 50c0 5 0 9 1 13c4 33 25 47 69 47z" />
    <glyph glyph-name="kcedilla" unicode="&#x137;" 
d="M230 700v-380l150 180h210l-200 -240l220 -260h-210l-170 201v-201h-180v700h180zM300 -40l1 -1c40 0 61 -18 67 -59c1 -9 2 -19 2 -30c0 -84 -39 -120 -130 -120v60c35 0 50 12 50 40c-42 0 -60 15 -60 50c0 5 0 9 1 13c4 33 25 47 69 47z" />
    <glyph glyph-name="Lacute" unicode="&#x139;" horiz-adv-x="560" 
d="M550 150v-150h-480v700h200v-550h280zM100 750l90 120h170l-120 -120h-140z" />
    <glyph glyph-name="lacute" unicode="&#x13a;" horiz-adv-x="330" 
d="M70 0v700h180v-700h-180zM90 750l90 120h170l-120 -120h-140z" />
    <glyph glyph-name="Lcedilla" unicode="&#x13b;" horiz-adv-x="560" 
d="M550 150v-150h-480v700h200v-550h280zM310 -40l1 -1c40 0 61 -18 67 -59c1 -9 2 -19 2 -30c0 -84 -39 -120 -130 -120v60c35 0 50 12 50 40c-42 0 -60 15 -60 50c0 5 0 9 1 13c4 33 25 47 69 47z" />
    <glyph glyph-name="lcedilla" unicode="&#x13c;" horiz-adv-x="280" 
d="M50 0v700h180v-700h-180zM140 -40l1 -1c40 0 61 -18 67 -59c1 -9 2 -19 2 -30c0 -84 -39 -120 -130 -120v60c35 0 50 12 50 40c-42 0 -60 15 -60 50c0 5 0 9 1 13c4 33 25 47 69 47z" />
    <glyph glyph-name="Lcaron" unicode="&#x13d;" horiz-adv-x="560" 
d="M550 150v-150h-480v700h200v-550h280zM380 710l1 -1c40 0 61 -18 67 -59c1 -9 2 -19 2 -30c0 -84 -39 -120 -130 -120v60c35 0 50 12 50 40c-42 0 -60 15 -60 50c0 5 0 9 1 13c4 33 25 47 69 47z" />
    <glyph glyph-name="lcaron" unicode="&#x13e;" horiz-adv-x="380" 
d="M50 0v700h180v-700h-180zM340 710l1 -1c40 0 61 -18 67 -59c1 -9 2 -19 2 -30c0 -84 -39 -120 -130 -120v60c35 0 50 12 50 40c-42 0 -60 15 -60 50c0 5 0 9 1 13c4 33 25 47 69 47z" />
    <glyph glyph-name="Lslash" unicode="&#x141;" horiz-adv-x="570" 
d="M560 150v-150h-480v303l-90 -53v130l90 53v267h200v-150l170 100v-130l-170 -100v-270h280z" />
    <glyph glyph-name="lslash" unicode="&#x142;" horiz-adv-x="400" 
d="M20 250v126l90 53v268h180v-162l90 53v-130l-90 -52v-407h-180v303z" />
    <glyph glyph-name="Nacute" unicode="&#x143;" horiz-adv-x="780" 
d="M520 700h190v-700h-230l-220 450v-450h-190v700h230l220 -450v450zM310 750l90 120h170l-120 -120h-140z" />
    <glyph glyph-name="nacute" unicode="&#x144;" horiz-adv-x="590" 
d="M190 500l20 -34c32 30 78 44 140 44c140 0 200 -72 200 -240v-270h-180v270c0 77 -21 110 -70 110s-70 -33 -70 -110v-270h-180v500h140zM220 550l90 150h180l-130 -150h-140z" />
    <glyph glyph-name="Ncedilla" unicode="&#x145;" horiz-adv-x="780" 
d="M520 700h190v-700h-230l-220 450v-450h-190v700h230l220 -450v450zM390 -40l1 -1c40 0 61 -18 67 -59c1 -9 2 -19 2 -30c0 -84 -39 -120 -130 -120v60c35 0 50 12 50 40c-42 0 -60 15 -60 50c0 5 0 9 1 13c4 33 25 47 69 47z" />
    <glyph glyph-name="ncedilla" unicode="&#x146;" horiz-adv-x="590" 
d="M190 500l20 -34c32 30 78 44 140 44c140 0 200 -72 200 -240v-270h-180v270c0 77 -21 110 -70 110s-70 -33 -70 -110v-270h-180v500h140zM300 -40l1 -1c40 0 61 -18 67 -59c1 -9 2 -19 2 -30c0 -84 -39 -120 -130 -120v60c35 0 50 12 50 40c-42 0 -60 15 -60 50
c0 5 0 9 1 13c4 33 25 47 69 47z" />
    <glyph glyph-name="Ncaron" unicode="&#x147;" horiz-adv-x="780" 
d="M520 700h190v-700h-230l-220 450v-450h-190v700h230l220 -450v450zM550 870l-80 -120h-180l-80 120h120l50 -50l50 50h120z" />
    <glyph glyph-name="ncaron" unicode="&#x148;" horiz-adv-x="590" 
d="M190 500h-0.419922l25.4199 -44c39 38 91 55 145 55c120 0 190 -80 190 -240v-270h-180v236v34c0 80 -20 110 -70 110c-40 0 -70 -41 -70 -111v-270h-180v500h139.58l-0.580078 1zM469 701l-80 -150h-180l-80 150h110l60 -70l60 70h110z" />
    <glyph glyph-name="Omacron" unicode="&#x14c;" horiz-adv-x="800" 
d="M400 720c259 0 370 -111 370 -370s-111 -370 -370 -370s-370 111 -370 370s111 370 370 370zM400 570c-112 0 -160 -66 -160 -220s48 -220 160 -220s160 66 160 220s-48 220 -160 220zM230 750v100h340v-100h-340z" />
    <glyph glyph-name="omacron" unicode="&#x14d;" horiz-adv-x="600" 
d="M300 510c196 0 280 -78 280 -260s-84 -260 -280 -260s-280 78 -280 260s84 260 280 260zM200 250c0 -91 30 -130 100 -130s100 39 100 130s-30 130 -100 130s-100 -39 -100 -130zM130 550v100h340v-100h-340z" />
    <glyph glyph-name="Obreve" unicode="&#x14e;" horiz-adv-x="800" 
d="M400 720c259 0 370 -111 370 -370s-111 -370 -370 -370s-370 111 -370 370s111 370 370 370zM400 570c-112 0 -160 -66 -160 -220s48 -220 160 -220s160 66 160 220s-48 220 -160 220zM570 870c0 -84 -51 -120 -170 -120s-170 36 -170 120h130c0 -28 12 -40 40 -40
s40 12 40 40h130z" />
    <glyph glyph-name="obreve" unicode="&#x14f;" horiz-adv-x="600" 
d="M300 510c196 0 280 -78 280 -260s-84 -260 -280 -260s-280 78 -280 260s84 260 280 260zM200 250c0 -91 30 -130 100 -130s100 39 100 130s-30 130 -100 130s-100 -39 -100 -130zM470 700c0 -105 -51 -150 -170 -150s-170 45 -170 150h120c0 -42 15 -60 50 -60
s50 18 50 60h120z" />
    <glyph glyph-name="Ohungarumlaut" unicode="&#x150;" horiz-adv-x="800" 
d="M400 720c259 0 370 -111 370 -370s-111 -370 -370 -370s-370 111 -370 370s111 370 370 370zM400 570c-112 0 -160 -66 -160 -220s48 -220 160 -220s160 66 160 220s-48 220 -160 220zM220 750l80 150h170l-120 -150h-130zM450 750l80 150h170l-120 -150h-130z" />
    <glyph glyph-name="ohungarumlaut" unicode="&#x151;" horiz-adv-x="620" 
d="M300 510c196 0 280 -78 280 -260s-84 -260 -280 -260s-280 78 -280 260s84 260 280 260zM200 250c0 -91 30 -130 100 -130s100 39 100 130s-30 130 -100 130s-100 -39 -100 -130zM120 550l80 150h170l-120 -150h-130zM350 550l80 150h170l-120 -150h-130z" />
    <glyph glyph-name="OE" unicode="&#x152;" horiz-adv-x="1080" 
d="M1060 561h-300v-130h260v-140h-260v-150h300v-140h-480v60c-44 -55 -110 -80 -201 -80c-24 0 -47 1 -69 3c-195 20 -280 133 -280 366c0 259 105 370 350 370c90 0 156 -25 200 -80v60h480v-139zM400 571c-112 0 -160 -66 -160 -220s48 -220 160 -220s160 66 160 220
s-48 220 -160 220z" />
    <glyph glyph-name="oe" unicode="&#x153;" horiz-adv-x="940" 
d="M559 200l-1 -1c6 -52 26 -100 92 -100c39 0 72 25 80 61h170c-18 -101 -119 -170 -250 -170c-68 0 -123 18 -164 50c-39 -34 -98 -50 -186 -50c-196 0 -280 78 -280 260s84 260 280 260c88 0 147 -16 186 -50c41 32 96 50 164 50c163 0 270 -103 270 -260v-50h-361z
M199 249c0 -91 30 -130 100 -130s100 39 100 130s-30 130 -100 130s-100 -39 -100 -130zM649 399l0.470703 0.00878906c-65.5801 -0.259766 -85.4902 -48.1396 -91.4707 -100h181c0 59.8203 -35.79 99.7607 -89.5303 99.9912h0.530273h-1z" />
    <glyph glyph-name="Racute" unicode="&#x154;" horiz-adv-x="720" 
d="M352 250h-82v-250h-200v700h330c200 0 280 -110 280 -230c0 -93 -41 -166 -138 -200l158 -270h-210zM270 380h120c60 0 90 40 90 90s-30 90 -90 90h-120v-180zM260 750l90 120h170l-120 -120h-140z" />
    <glyph glyph-name="racute" unicode="&#x155;" horiz-adv-x="430" 
d="M230 250l1 -1v-250h-180v500h140l24 -42c31 35 71 53 115 53h80v-150h-80c-77 0 -100 -20 -100 -110zM151 549l90 150h180l-130 -150h-140z" />
    <glyph glyph-name="Rcedilla" unicode="&#x156;" horiz-adv-x="720" 
d="M352 250h-82v-250h-200v700h330c200 0 280 -110 280 -230c0 -93 -41 -166 -138 -200l158 -270h-210zM270 380h120c60 0 90 40 90 90s-30 90 -90 90h-120v-180zM370 -40l1 -1c40 0 61 -18 67 -59c1 -9 2 -19 2 -30c0 -84 -39 -120 -130 -120v60c35 0 50 12 50 40
c-42 0 -60 15 -60 50c0 5 0 9 1 13c4 33 25 47 69 47z" />
    <glyph glyph-name="rcedilla" unicode="&#x157;" horiz-adv-x="420" 
d="M230 250l1 -1v-250h-180v500h140l24 -42c31 35 71 53 115 53h80v-150h-80c-77 0 -100 -20 -100 -110zM141 -41l1 -1c40 0 61 -18 67 -59c1 -9 2 -19 2 -30c0 -84 -39 -120 -130 -120v60c35 0 50 12 50 40c-42 0 -60 15 -60 50c0 5 0 9 1 13c4 33 25 47 69 47z" />
    <glyph glyph-name="Rcaron" unicode="&#x158;" horiz-adv-x="720" 
d="M343 250h-73v-250h-200v700h330c200 0 280 -110 280 -230c0 -96 -43 -170 -146 -202l166 -268h-210zM270 380h130c60 0 80 40 80 90s-20 90 -80 90h-130v-180zM500 870l-80 -120h-180l-80 120h120l50 -50l50 50h120z" />
    <glyph glyph-name="rcaron" unicode="&#x159;" horiz-adv-x="420" 
d="M230 250l1 -1v-250h-180v500h140l24 -42c31 35 71 53 115 53h80v-150h-80c-77 0 -100 -20 -100 -110zM401 699l-80 -150h-180l-80 150h110l60 -70l60 70h110z" />
    <glyph glyph-name="Sacute" unicode="&#x15a;" horiz-adv-x="660" 
d="M230 520c0 -110 400 -40 400 -310c0 -161 -90 -230 -300 -230s-300 66 -300 220h180c0 -63 36 -90 120 -90c77 0 110 21 110 70c0 140 -400 60 -400 310c0 161 87 230 290 230s290 -66 290 -220h-180c0 63 -33 90 -110 90c-70 0 -100 -21 -100 -70zM250 750l90 120h170
l-120 -120h-140z" />
    <glyph glyph-name="sacute" unicode="&#x15b;" horiz-adv-x="510" 
d="M190 369v-1c0 -79 300 -9 300 -209c0 -119 -74 -170 -246 -170c-157 0 -224 48 -224 160h170c0 -42 18 -60 60 -60s60 15 60 50c0 90 -290 10 -290 210c0 112 69 160 230 160c154 0 220 -45 220 -150h-160c0 35 -18 50 -60 50s-60 -12 -60 -40zM170 549l90 150h180
l-130 -150h-140z" />
    <glyph glyph-name="Scircumflex" unicode="&#x15c;" horiz-adv-x="660" 
d="M230 520c0 -110 400 -40 400 -310c0 -161 -90 -230 -300 -230s-300 66 -300 220h180c0 -63 36 -90 120 -90c77 0 110 21 110 70c0 140 -400 60 -400 310c0 161 87 230 290 230s290 -66 290 -220h-180c0 63 -33 90 -110 90c-70 0 -100 -21 -100 -70zM420 870l80 -120h-120
l-50 50l-50 -50h-120l80 120h180z" />
    <glyph glyph-name="scircumflex" unicode="&#x15d;" horiz-adv-x="510" 
d="M190 369v-1c0 -79 300 -9 300 -209c0 -119 -74 -170 -246 -170c-157 0 -224 48 -224 160h170c0 -42 18 -60 60 -60s60 15 60 50c0 90 -290 10 -290 210c0 112 69 160 230 160c154 0 220 -45 220 -150h-160c0 35 -18 50 -60 50s-60 -12 -60 -40zM340 699l80 -150h-110
l-60 70l-60 -70h-110l80 150h180z" />
    <glyph glyph-name="Scedilla" unicode="&#x15e;" horiz-adv-x="660" 
d="M274 -18h-1c-170 11 -244 78 -244 218h180c0 -63 36 -90 120 -90c77 0 110 21 110 70c0 140 -400 60 -400 310c0 161 87 230 290 230s290 -66 290 -220h-180c0 63 -33 90 -110 90c-70 0 -100 -21 -100 -70c0 -110 400 -40 400 -310c0 -151 -79 -221 -262 -229l-7 -31
s90 -20 90 -90c0 -69 -80 -110 -210 -110v70c49 0 80 10 80 40c0 20 -30 30 -70 30z" />
    <glyph glyph-name="scedilla" unicode="&#x15f;" horiz-adv-x="510" 
d="M196.76 -8.91016c-122.12 9.24023 -175.76 58.25 -175.76 157.91h170c0 -42 18 -60 60 -60s60 15 60 50c0 90 -290 10 -290 210c0 112 69 160 230 160c154 0 220 -45 220 -150h-160c0 35 -18 50 -60 50s-60 -12 -60 -40c0 -79 300 -9 300 -209c0 -108 -61 -160 -201 -169
l-10 -41s90 -20 90 -90c0 -69 -80 -110 -210 -110v70c49 0 80 10 80 40c0 20 -30 30 -70 30z" />
    <glyph glyph-name="Scaron" unicode="&#x160;" horiz-adv-x="660" 
d="M230 520c0 -110 400 -40 400 -310c0 -161 -90 -230 -300 -230s-300 66 -300 220h180c0 -63 36 -90 120 -90c77 0 110 21 110 70c0 140 -400 60 -400 310c0 161 87 230 290 230s290 -66 290 -220h-180c0 63 -33 90 -110 90c-70 0 -100 -21 -100 -70zM490 870l-80 -120
h-180l-80 120h120l50 -50l50 50h120z" />
    <glyph glyph-name="scaron" unicode="&#x161;" horiz-adv-x="510" 
d="M190 369v-1c0 -79 300 -9 300 -209c0 -119 -74 -170 -246 -170c-157 0 -224 48 -224 160h170c0 -42 18 -60 60 -60s60 15 60 50c0 90 -290 10 -290 210c0 112 69 160 230 160c154 0 220 -45 220 -150h-160c0 35 -18 50 -60 50s-60 -12 -60 -40zM420 699l-80 -150h-180
l-80 150h110l60 -70l60 70h110z" />
    <glyph glyph-name="Tcedilla" unicode="&#x162;" horiz-adv-x="620" 
d="M259 0h-49v540h-200v160h600v-160h-200v-540h-58l-12 -50s90 -20 90 -90c0 -69 -80 -110 -210 -110v70c49 0 80 10 80 40c0 20 -30 30 -70 30z" />
    <glyph glyph-name="tcedilla" unicode="&#x163;" horiz-adv-x="425" 
d="M201 6c-70 17 -111 72 -111 154v230h-80v110h80v130h180v-130h140v-110h-140v-210c0 -30 20 -50 50 -50h90v-130h-118l-12 -50s90 -20 90 -90c0 -69 -80 -110 -210 -110v70c49 0 80 10 80 40c0 20 -30 30 -70 30z" />
    <glyph glyph-name="Tcaron" unicode="&#x164;" horiz-adv-x="620" 
d="M610 700v-160h-200v-540h-200v540h-200v160h600zM470 870l-80 -120h-180l-80 120h120l50 -50l50 50h120z" />
    <glyph glyph-name="tcaron" unicode="&#x165;" horiz-adv-x="455" 
d="M270 180c0 -30 20 -50 50 -50h90v-130h-160c-100 0 -160 60 -160 160v230h-80v110h80v130h180v-130h140v-110h-140v-210zM370 730l1 -1c40 0 61 -18 67 -59c1 -9 2 -19 2 -30c0 -84 -39 -120 -130 -120v60c35 0 50 12 50 40c-42 0 -60 15 -60 50c0 5 0 9 1 13
c4 33 25 47 69 47z" />
    <glyph glyph-name="Utilde" unicode="&#x168;" horiz-adv-x="740" 
d="M60 260v440h200v-440c0 -91 33 -130 110 -130s110 39 110 130v440h200v-440c0 -196 -93 -280 -310 -280s-310 84 -310 280zM200 760c0 70 50 110 110 110c90 0 100 -40 140 -40c10 0 20 10 20 20h70c0 -70 -50 -110 -110 -110c-90 0 -100 40 -140 40
c-10 0 -20 -10 -20 -20h-70z" />
    <glyph glyph-name="utilde" unicode="&#x169;" horiz-adv-x="590" 
d="M400 0v-1l-20 34c-32 -30 -78 -44 -140 -44c-140 0 -200 72 -200 240v270h180v-270c0 -77 21 -110 70 -110s70 33 70 110v39v232h180v-500h-140zM120 599c0 70 50 130 110 130c90 0 100 -70 130 -70c10 0 20 10 20 30h80c0 -70 -50 -130 -110 -130c-90 0 -100 70 -130 70
c-10 0 -20 -10 -20 -30h-80z" />
    <glyph glyph-name="Umacron" unicode="&#x16a;" horiz-adv-x="740" 
d="M60 260v440h200v-440c0 -91 33 -130 110 -130s110 39 110 130v440h200v-440c0 -196 -93 -280 -310 -280s-310 84 -310 280zM200 750v100h340v-100h-340z" />
    <glyph glyph-name="umacron" unicode="&#x16b;" horiz-adv-x="590" 
d="M400 0v-1l-20 34c-32 -30 -78 -44 -140 -44c-140 0 -200 72 -200 240v270h180v-270c0 -77 21 -110 70 -110s70 33 70 110v39v232h180v-500h-140zM110 549v100h340v-100h-340z" />
    <glyph glyph-name="Ubreve" unicode="&#x16c;" horiz-adv-x="740" 
d="M60 260v440h200v-440c0 -91 33 -130 110 -130s110 39 110 130v440h200v-440c0 -196 -93 -280 -310 -280s-310 84 -310 280zM540 870c0 -84 -51 -120 -170 -120s-170 36 -170 120h130c0 -28 12 -40 40 -40s40 12 40 40h130z" />
    <glyph glyph-name="ubreve" unicode="&#x16d;" horiz-adv-x="590" 
d="M400 0v-1l-20 34c-32 -30 -78 -44 -140 -44c-140 0 -200 72 -200 240v270h180v-270c0 -77 21 -110 70 -110s70 33 70 110v39v232h180v-500h-140zM450 699c0 -105 -51 -150 -170 -150s-170 45 -170 150h120c0 -42 15 -60 50 -60s50 18 50 60h120z" />
    <glyph glyph-name="Uring" unicode="&#x16e;" horiz-adv-x="740" 
d="M60 260v440h200v-440c0 -91 33 -130 110 -130s110 39 110 130v440h200v-440c0 -196 -93 -280 -310 -280s-310 84 -310 280zM370 910c91 0 130 -33 130 -110s-39 -110 -130 -110s-130 33 -130 110s39 110 130 110zM370 760c28 0 40 12 40 40s-12 40 -40 40
s-40 -12 -40 -40s12 -40 40 -40z" />
    <glyph glyph-name="uring" unicode="&#x16f;" horiz-adv-x="590" 
d="M400 0v-1l-20 34c-32 -30 -78 -44 -140 -44c-140 0 -200 72 -200 240v270h180v-270c0 -77 21 -110 70 -110s70 33 70 110v39v232h180v-500h-140zM280 749c91 0 130 -33 130 -110s-39 -110 -130 -110s-130 33 -130 110s39 110 130 110zM280 599c28 0 40 12 40 40
s-12 40 -40 40s-40 -12 -40 -40s12 -40 40 -40z" />
    <glyph glyph-name="Uhungarumlaut" unicode="&#x170;" horiz-adv-x="740" 
d="M60 260v440h200v-440c0 -91 33 -130 110 -130s110 39 110 130v440h200v-440c0 -196 -93 -280 -310 -280s-310 84 -310 280zM190 750l80 150h170l-120 -150h-130zM420 750l80 150h170l-120 -150h-130z" />
    <glyph glyph-name="uhungarumlaut" unicode="&#x171;" horiz-adv-x="590" 
d="M400 0v-1l-20 34c-32 -30 -78 -44 -140 -44c-140 0 -200 72 -200 240v270h180v-270c0 -77 21 -110 70 -110s70 33 70 110v39v232h180v-500h-140zM100 549l80 150h170l-120 -150h-130zM330 549l80 150h170l-120 -150h-130z" />
    <glyph glyph-name="Uogonek" unicode="&#x172;" horiz-adv-x="740" 
d="M406.06 -20.1504c-11.3604 -0.849609 -22.7607 -0.839844 -35.0605 -0.839844c-217 0 -310 84 -310 280v440h200v-440c0 -91 33 -130 110 -130s110 39 110 130v440h200v-440c0 -146 -52 -230 -168 -263c-40 -42 -53 -97 -3 -97c19 0 40 10 40 10v-140s-30 -20 -70 -20
c-7 0 -14 1 -21 2c-96.5801 15.9297 -124.76 139.92 -52.9395 228.84z" />
    <glyph glyph-name="uogonek" unicode="&#x173;" horiz-adv-x="590" 
d="M399.56 0.580078l-17.5605 31.4199c-32 -30 -78 -44 -140 -44c-140 0 -200 72 -200 240v270h180v-270c0 -77 21 -110 70 -110s70 33 70 110v39v232h180v-500h-51c-42 -42 -57 -100 -6 -100c19 0 40 10 40 10v-140s-30 -20 -70 -20c-7 0 -14 1 -21 2
c-103.84 16.9697 -128.92 160.55 -34.4395 249.58z" />
    <glyph glyph-name="Wcircumflex" unicode="&#x174;" horiz-adv-x="1000" 
d="M380 700h240l83 -495l97 495h200l-160 -700h-260l-87 487l-73 -487h-260l-160 700h200l97 -495zM585 870l80 -120h-120l-50 50l-50 -50h-120l80 120h180z" />
    <glyph glyph-name="wcircumflex" unicode="&#x175;" horiz-adv-x="850" 
d="M710 0h-220l-65 366l-65 -366h-219h-1l-140 500h180l78 -350l62 350h220l54 -344l76 344h180zM515 700l80 -150h-110l-60 70l-60 -70h-110l80 150h180z" />
    <glyph glyph-name="Ycircumflex" unicode="&#x176;" horiz-adv-x="680" 
d="M440 260v-260h-190v260l-250 440h220l125 -250l125 250h210zM440 870l80 -120h-120l-50 50l-50 -50h-120l80 120h180z" />
    <glyph glyph-name="ycircumflex" unicode="&#x177;" horiz-adv-x="540" 
d="M210 0v1l4 13l-214 487h170l111 -278l89 278h170l-170 -490c-10 -27 -19 -50 -28 -70c-44 -100 -77 -121 -152 -121h-40h-80v110h70c30 0 48 1 70 70zM370 701l80 -150h-110l-60 70l-60 -70h-110l80 150h180z" />
    <glyph glyph-name="Ydieresis" unicode="&#x178;" horiz-adv-x="680" 
d="M440 260v-260h-190v260l-250 440h220l125 -250l125 250h210zM220 890c70 0 100 -24 100 -80s-30 -80 -100 -80s-100 24 -100 80s30 80 100 80zM480 890c70 0 100 -24 100 -80s-30 -80 -100 -80s-100 24 -100 80s30 80 100 80z" />
    <glyph glyph-name="Zacute" unicode="&#x179;" horiz-adv-x="580" 
d="M230 140h350v-140h-580v120l340 440h-330v140h560v-120zM200 750l90 120h170l-120 -120h-140z" />
    <glyph glyph-name="zacute" unicode="&#x17a;" horiz-adv-x="480" 
d="M220 120h250v-120h-460v100l240 280h-230v120h440v-100zM160 550l90 150h180l-130 -150h-140z" />
    <glyph glyph-name="Zdotaccent" unicode="&#x17b;" horiz-adv-x="580" 
d="M230 140h350v-140h-580v120l340 440h-330v140h560v-120zM290 900c70 0 100 -24 100 -80s-30 -80 -100 -80s-100 24 -100 80s30 80 100 80z" />
    <glyph glyph-name="zdotaccent" unicode="&#x17c;" horiz-adv-x="480" 
d="M220 120h250v-120h-460v100l240 280h-230v120h440v-100zM240 720l-1 1c70 0 100 -27 100 -90s-30 -90 -100 -90c-69 0 -99 27 -99 89c0 63 30 90 100 90z" />
    <glyph glyph-name="Zcaron" unicode="&#x17d;" horiz-adv-x="580" 
d="M230 140h350v-140h-580v120l340 440h-330v140h560v-120zM450 870l-80 -120h-180l-80 120h120l50 -50l50 50h120z" />
    <glyph glyph-name="zcaron" unicode="&#x17e;" horiz-adv-x="480" 
d="M220 120h250v-120h-460v100l240 280h-230v120h440v-100zM410 700l-80 -150h-180l-80 150h110l60 -70l60 70h110z" />
    <glyph glyph-name="Aacutering" unicode="&#x1fa;" horiz-adv-x="700" 
d="M-1 0h-1l220 700h90h80h110l200 -700h-210l-33 130h-221l-35 -130h-200zM269 260h152l-74 289zM417 900v-1c38 -13 60 -40 60 -80c0 -60 -50 -90 -130 -90s-130 30 -130 90c0 57 44 87 116 90l34 51h110zM347 789c30 0 50 10 50 30s-20 30 -50 30s-50 -10 -50 -30
s20 -30 50 -30z" />
    <glyph glyph-name="aacutering" unicode="&#x1fb;" horiz-adv-x="560" 
d="M359.35 36.3799c-32.9902 -31.5703 -81.79 -46.3799 -149.35 -46.3799c-133 0 -190 48 -190 160c0 119 75 170 250 170h70v20c0 49 -20 70 -66 70c-45 0 -64 -18 -64 -60h-170c0 112 72 160 240 160s240 -57 240 -190v-320h-140zM201 160l1 -1c0 -38 18 -50 60 -50
c52 0 76 23 79 76v14v20h-50h-15c-52 -2 -75 -17 -75 -59zM379 700l-1 -1c21 -17 33 -41 33 -70c0 -60 -50 -100 -130 -100s-130 40 -130 100s50 100 130 100h15l46 50h130zM281 598c30 0 40 10 40 30s-10 30 -40 30s-40 -10 -40 -30s10 -30 40 -30z" />
    <glyph glyph-name="AEacute" unicode="&#x1fc;" horiz-adv-x="950" 
d="M930 560h-290v-130h250v-140h-250v-150h290v-140h-470v130h-201l-59 -130h-200l340 700h120h60h410v-140zM460 569l-141 -309h141v309zM470 750l90 120h170l-120 -120h-140z" />
    <glyph glyph-name="aeacute" unicode="&#x1fd;" horiz-adv-x="900" 
d="M519 200l-1 -1c8 -69 37 -100 92 -100c46 0 70 18 80 60h170c-21 -119 -96 -170 -250 -170c-101 0 -164 33 -196 107c-28 -74 -93 -107 -205 -107c-133 0 -190 48 -190 160s66 164 218 170h32h70v20c0 42 -21 60 -70 60c-42 0 -60 -15 -60 -50h-170c0 112 72 160 240 160
c80 0 134 -18 166 -58c36 40 90 59 165 59c189 0 270 -78 270 -260v-50h-361zM339 218h-49c-63 0 -90 -18 -90 -60c0 -35 18 -50 60 -50c56 0 79 28 79 91v19zM610 398c-53 0 -81 -31 -90 -100h180c0 70 -27 100 -90 100zM371 548l90 150h180l-130 -150h-140z" />
    <glyph glyph-name="Oslashacute" unicode="&#x1fe;" horiz-adv-x="800" 
d="M310 -80h-120l30 86c-131 46 -190 156 -190 344c0 259 111 370 370 370c24 0 47 -1 68 -3l22 63h120l-30 -86c131 -46 190 -156 190 -344c0 -259 -111 -370 -370 -370c-24 0 -47 1 -68 3zM400 570h-1c-112 0 -160 -66 -160 -220c0 -79 13 -135 41 -171
c23 -30 57 -46 103 -49h17c112 0 160 66 160 220c0 79 -13 135 -41 171c-23 30 -57 46 -103 49h-16zM289 750l90 120h170l-120 -120h-140z" />
    <glyph glyph-name="oslashacute" unicode="&#x1ff;" horiz-adv-x="600" 
d="M230 -70v-1h-80l26 74c-107 30 -155 108 -155 245c0 182 84 260 280 260c17 0 33 -1 48 -2l21 62h80l-26 -74c108 -30 156 -108 156 -245c0 -182 -84 -260 -280 -260c-17 0 -33 1 -49 2zM299 119c70 0 100 39 100 130c0 47 -8 80 -25 101c-16 19 -39 28 -71 29h-4
c-70 0 -100 -39 -100 -130c0 -47 8 -80 25 -101c15 -19 38 -28 70 -29h5zM179 549l90 150h180l-130 -150h-140z" />
    <glyph glyph-name="Scommaaccent" unicode="&#x218;" horiz-adv-x="660" 
d="M230 520c0 -110 400 -40 400 -310c0 -161 -90 -230 -300 -230s-300 66 -300 220h180c0 -63 36 -90 120 -90c77 0 110 21 110 70c0 140 -400 60 -400 310c0 161 87 230 290 230s290 -66 290 -220h-180c0 63 -33 90 -110 90c-70 0 -100 -21 -100 -70zM330 -40l1 -1
c40 0 61 -18 67 -59c1 -9 2 -19 2 -30c0 -84 -39 -120 -130 -120v60c35 0 50 12 50 40c-42 0 -60 15 -60 50c0 5 0 9 1 13c4 33 25 47 69 47z" />
    <glyph glyph-name="scommaaccent" unicode="&#x219;" horiz-adv-x="510" 
d="M190 369v-1c0 -79 300 -9 300 -209c0 -119 -74 -170 -246 -170c-157 0 -224 48 -224 160h170c0 -42 18 -60 60 -60s60 15 60 50c0 90 -290 10 -290 210c0 112 69 160 230 160c154 0 220 -45 220 -150h-160c0 35 -18 50 -60 50s-60 -12 -60 -40zM250 -41l1 -1
c40 0 61 -18 67 -59c1 -9 2 -19 2 -30c0 -84 -39 -120 -130 -120v60c35 0 50 12 50 40c-42 0 -60 15 -60 50c0 5 0 9 1 13c4 33 25 47 69 47z" />
    <glyph glyph-name="uni021A" unicode="&#x21a;" horiz-adv-x="620" 
d="M610 700v-160h-200v-540h-200v540h-200v160h600zM310 -40l1 -1c40 0 61 -18 67 -59c1 -9 2 -19 2 -30c0 -84 -39 -120 -130 -120v60c35 0 50 12 50 40c-42 0 -60 15 -60 50c0 5 0 9 1 13c4 33 25 47 69 47z" />
    <glyph glyph-name="uni021B" unicode="&#x21b;" horiz-adv-x="425" 
d="M270 180c0 -30 20 -50 50 -50h90v-130h-160c-100 0 -160 60 -160 160v230h-80v110h80v130h180v-130h140v-110h-140v-210zM230 -40l1 -1c40 0 61 -18 67 -59c1 -9 2 -19 2 -30c0 -84 -39 -120 -130 -120v60c35 0 50 12 50 40c-42 0 -60 15 -60 50c0 5 0 9 1 13
c4 33 25 47 69 47z" />
    <glyph glyph-name="circumflex" unicode="&#x2c6;" horiz-adv-x="380" 
d="M280 700l80 -150h-110l-60 70l-60 -70h-110l80 150h180z" />
    <glyph glyph-name="caron" unicode="&#x2c7;" horiz-adv-x="380" 
d="M360 700l-80 -150h-180l-80 150h110l60 -70l60 70h110z" />
    <glyph glyph-name="breve" unicode="&#x2d8;" horiz-adv-x="380" 
d="M360 700c0 -105 -51 -150 -170 -150s-170 45 -170 150h120c0 -42 15 -60 50 -60s50 18 50 60h120z" />
    <glyph glyph-name="dotaccent" unicode="&#x2d9;" horiz-adv-x="240" 
d="M120 730l-1 1c70 0 100 -27 100 -90s-30 -90 -100 -90c-69 0 -99 27 -99 89c0 63 30 90 100 90z" />
    <glyph glyph-name="ring" unicode="&#x2da;" horiz-adv-x="300" 
d="M150 730c91 0 130 -33 130 -110s-39 -110 -130 -110s-130 33 -130 110s39 110 130 110zM150 580c28 0 40 12 40 40s-12 40 -40 40s-40 -12 -40 -40s12 -40 40 -40z" />
    <glyph glyph-name="ogonek" unicode="&#x2db;" horiz-adv-x="224" 
d="M104 20h1h90c-60 -40 -91 -120 -31 -120c19 0 40 10 40 10v-140s-30 -20 -70 -20c-7 0 -14 1 -21 2c-112 18 -132 183 -9 268z" />
    <glyph glyph-name="tilde" unicode="&#x2dc;" horiz-adv-x="380" 
d="M20 600c0 70 50 130 110 130c90 0 100 -70 130 -70c10 0 20 10 20 30h80c0 -70 -50 -130 -110 -130c-90 0 -100 70 -130 70c-10 0 -20 -10 -20 -30h-80z" />
    <glyph glyph-name="hungarumlaut" unicode="&#x2dd;" horiz-adv-x="520" 
d="M20 550l80 150h170l-120 -150h-130zM250 550l80 150h170l-120 -150h-130z" />
    <glyph glyph-name="Wgrave" unicode="&#x1e80;" horiz-adv-x="1000" 
d="M380 700h240l83 -495l97 495h200l-160 -700h-260l-87 487l-73 -487h-260l-160 700h200l97 -495zM475 870l100 -120h-130l-130 120h160z" />
    <glyph glyph-name="wgrave" unicode="&#x1e81;" horiz-adv-x="850" 
d="M710 0h-220l-65 366l-65 -366h-219h-1l-140 500h180l78 -350l62 350h220l54 -344l76 344h180zM415 700l90 -150h-140l-130 150h180z" />
    <glyph glyph-name="Wacute" unicode="&#x1e82;" horiz-adv-x="1000" 
d="M380 700h240l83 -495l97 495h200l-160 -700h-260l-87 487l-73 -487h-260l-160 700h200l97 -495zM415 750l90 120h170l-120 -120h-140z" />
    <glyph glyph-name="wacute" unicode="&#x1e83;" horiz-adv-x="850" 
d="M710 0h-220l-65 366l-65 -366h-219h-1l-140 500h180l78 -350l62 350h220l54 -344l76 344h180zM335 550l90 150h180l-130 -150h-140z" />
    <glyph glyph-name="Wdieresis" unicode="&#x1e84;" horiz-adv-x="1000" 
d="M380 700h240l83 -495l97 495h200l-160 -700h-260l-87 487l-73 -487h-260l-160 700h200l97 -495zM365 890c70 0 100 -24 100 -80s-30 -80 -100 -80s-100 24 -100 80s30 80 100 80zM625 890c70 0 100 -24 100 -80s-30 -80 -100 -80s-100 24 -100 80s30 80 100 80z" />
    <glyph glyph-name="wdieresis" unicode="&#x1e85;" horiz-adv-x="850" 
d="M710 0h-220l-65 366l-65 -366h-219h-1l-140 500h180l78 -350l62 350h220l54 -344l76 344h180zM305 710c70 0 100 -29 100 -96c0 -66 -30 -95 -100 -95s-100 28 -100 95s30 96 100 96zM545 710c70 0 100 -29 100 -96c0 -66 -30 -95 -100 -95s-100 28 -100 95s30 96 100 96
z" />
    <glyph glyph-name="uni1E9E" unicode="&#x1e9e;" horiz-adv-x="680" 
d="M340 720l1 -1c182 0 267 -52 278 -163c1 -9 1 -18 1 -27c0 -69 -27 -108 -90 -139c84 -34 120 -88 120 -180c0 -147 -66 -210 -220 -210c-60 0 -110 20 -110 20v120s30 -10 60 -10c63 0 90 27 90 90c0 70 -39 100 -130 100v120c77 0 110 21 110 70c0 56 -30 80 -100 80
c-77 0 -110 -37 -110 -100v-10v-480h-180v470c0 10 0 20 1 29c10 140 95 221 279 221z" />
    <glyph glyph-name="Ygrave" unicode="&#x1ef2;" horiz-adv-x="680" 
d="M440 260v-260h-190v260l-250 440h220l125 -250l125 250h210zM330 870l100 -120h-130l-130 120h160z" />
    <glyph glyph-name="ygrave" unicode="&#x1ef3;" horiz-adv-x="540" 
d="M210 0v1l4 13l-214 487h170l111 -278l89 278h170l-170 -490c-10 -27 -19 -50 -28 -70c-44 -100 -77 -121 -152 -121h-40h-80v110h70c30 0 48 1 70 70zM270 701l90 -150h-140l-130 150h180z" />
    <glyph glyph-name="endash" unicode="&#x2013;" horiz-adv-x="560" 
d="M540 330v-130h-520v130h520z" />
    <glyph glyph-name="emdash" unicode="&#x2014;" horiz-adv-x="780" 
d="M760 330v-130h-740v130h740z" />
    <glyph glyph-name="quoteleft" unicode="&#x2018;" horiz-adv-x="300" 
d="M160 330h-1c-63 0 -97 30 -107 98c-2 15 -3 32 -3 51c0 154 57 220 190 220v-80c-56 0 -80 -30 -80 -100c63 0 90 -28 90 -94c0 -8 0 -16 -1 -23c-6 -50 -33 -72 -88 -72z" />
    <glyph glyph-name="quoteright" unicode="&#x2019;" horiz-adv-x="300" 
d="M140 710h1c63 0 97 -30 107 -98c2 -15 3 -32 3 -51c0 -154 -57 -220 -190 -220v80c56 0 80 30 80 100c-63 0 -90 28 -90 94c0 8 0 16 1 23c6 50 33 72 88 72z" />
    <glyph glyph-name="quotesinglbase" unicode="&#x201a;" horiz-adv-x="240" 
d="M110 180h1c63 0 97 -30 107 -98c2 -15 3 -32 3 -51c0 -154 -57 -220 -190 -220v80c56 0 80 30 80 100c-63 0 -90 28 -90 94c0 8 0 16 1 23c6 50 33 72 88 72z" />
    <glyph glyph-name="quotedblleft" unicode="&#x201c;" horiz-adv-x="560" 
d="M160 330h-1c-63 0 -97 30 -107 98c-2 15 -3 32 -3 51c0 154 57 220 190 220v-80c-56 0 -80 -30 -80 -100c63 0 90 -28 90 -94c0 -8 0 -16 -1 -23c-6 -50 -33 -72 -88 -72zM419 330h-1c-63 0 -97 30 -107 98c-2 15 -3 32 -3 51c0 154 57 220 190 220v-80
c-56 0 -80 -30 -80 -100c63 0 90 -28 90 -94c0 -8 0 -16 -1 -23c-6 -50 -33 -72 -88 -72z" />
    <glyph glyph-name="quotedblright" unicode="&#x201d;" horiz-adv-x="560" 
d="M140 710h1c63 0 97 -30 107 -98c2 -15 3 -32 3 -51c0 -154 -57 -220 -190 -220v80c56 0 80 30 80 100c-63 0 -90 28 -90 94c0 8 0 16 1 23c6 50 33 72 88 72zM401 710h1c63 0 97 -30 107 -98c2 -15 3 -32 3 -51c0 -154 -57 -220 -190 -220v80c56 0 80 30 80 100
c-63 0 -90 28 -90 94c0 8 0 16 1 23c6 50 33 72 88 72z" />
    <glyph glyph-name="quotedblbase" unicode="&#x201e;" horiz-adv-x="560" 
d="M140 180h1c63 0 97 -30 107 -98c2 -15 3 -32 3 -51c0 -154 -57 -220 -190 -220v80c56 0 80 30 80 100c-63 0 -90 28 -90 94c0 8 0 16 1 23c6 50 33 72 88 72zM401 180h1c63 0 97 -30 107 -98c2 -15 3 -32 3 -51c0 -154 -57 -220 -190 -220v80c56 0 80 30 80 100
c-63 0 -90 28 -90 94c0 8 0 16 1 23c6 50 33 72 88 72z" />
    <glyph glyph-name="ellipsis" unicode="&#x2026;" horiz-adv-x="860" 
d="M120 180c70 0 100 -29 100 -96c0 -66 -30 -95 -100 -95s-100 28 -100 95s30 96 100 96zM430 180c70 0 100 -29 100 -96c0 -66 -30 -95 -100 -95s-100 28 -100 95s30 96 100 96zM740 180c70 0 100 -29 100 -96c0 -66 -30 -95 -100 -95s-100 28 -100 95s30 96 100 96z" />
    <glyph glyph-name="perthousand" unicode="&#x2030;" horiz-adv-x="1330" 
d="M710 390c126 1 180 -59 180 -199s-54 -200 -180 -200s-180 60 -180 200s54 200 180 199zM710 90c35 0 50 30 50 100s-15 100 -50 100s-50 -30 -50 -100s15 -100 50 -100zM1120 390c126 1 180 -59 180 -199s-54 -200 -180 -200s-180 60 -180 200s54 200 180 199zM1120 90
c35 0 50 30 50 100s-15 100 -50 100s-50 -30 -50 -100s15 -100 50 -100zM210 710c126 1 180 -59 180 -199s-54 -200 -180 -200s-180 60 -180 200s54 200 180 199zM210 410c35 0 50 30 50 100s-15 100 -50 100s-50 -30 -50 -100s15 -100 50 -100zM320 -30h-160l440 760h160z
" />
    <glyph glyph-name="guilsinglleft" unicode="&#x2039;" horiz-adv-x="360" 
d="M160 450h170l-120 -190l120 -200h-170l-130 200z" />
    <glyph glyph-name="guilsinglright" unicode="&#x203a;" horiz-adv-x="360" 
d="M30 450h170l130 -190l-130 -200h-170l120 200z" />
    <glyph glyph-name="lira" unicode="&#x20a4;" horiz-adv-x="680" 
d="M667 140v-140h-600v160c34 13 56 34 68 65l3 6h-70v90h80v30h-80v90h80v60c-1 154 74 220 250 220c17 0 33 -1 48 -2c134 -12 192 -79 192 -218h-170c0 70 -21 100 -70 100s-70 -30 -70 -100v-60h220v-90h-220v-30h220v-90h-229v-3c-14 -41 -43 -69 -89 -88h437z" />
    <glyph glyph-name="Euro" unicode="&#x20ac;" horiz-adv-x="830" 
d="M600 240v-2h200c-39 -182 -141 -260 -340 -260c-219 0 -332 79 -362 260h-88v90h80v21v21h-80v90h88c30 181 143 260 362 260c212 0 314 -78 340 -260h-200c-15 77 -57 110 -140 110c-80 0 -127 -34 -147 -110h208v-90h-220v-20v-20h180v-90h-168
c20 -76 67 -110 147 -110c83 0 125 33 140 110z" />
    <glyph glyph-name="trademark" unicode="&#x2122;" horiz-adv-x="1270" 
d="M460 700v-140h-140v-360h-170v360h-140v140h450zM690 489v-289h-170v500h90h80h60l115 -319l115 319h50h80h90v-500h-170v289l-105 -276l-5 -14h-120l-22 58z" />
    <glyph glyph-name="minus" unicode="&#x2212;" horiz-adv-x="390" 
d="M360 200h-330v130h330v-130z" />
    <glyph glyph-name="approxequal" unicode="&#x2248;" horiz-adv-x="660" 
d="M30 310v1v120c200 200 419 -181 599 -1v-120c-200 -200 -420 180 -599 0zM30 111v1v120c200 200 419 -181 599 -1v-120c-200 -200 -420 180 -599 0z" />
    <glyph glyph-name="notequal" unicode="&#x2260;" horiz-adv-x="660" 
d="M190 0l36 100h-196v130h243l25 70h-268v130h315l25 70h100l-25 -70h185v-130h-232l-25 -70h257v-130h-304l-36 -100h-100z" />
    <glyph glyph-name="lessequal" unicode="&#x2264;" horiz-adv-x="500" 
d="M430 0h-400v140h400v-140zM30 540l400 160v-160l-225 -90l225 -90v-160l-400 160v20v140v20z" />
    <glyph glyph-name="greaterequal" unicode="&#x2265;" horiz-adv-x="500" 
d="M470 0h-400v140h400v-140zM70 700l400 -160v-20v-140v-20l-400 -160v160l225 90l-225 90v160z" />
    <glyph glyph-name="uniE132" unicode="&#xe132;" 
d="M230 0h-180v500h180v-500zM300 -50c30 0 50 20 50 50v500h180v-520c0 -100 -60 -160 -160 -160h-160v130h90zM50 550l90 150h180l-130 -150h-140zM350 550l90 150h180l-130 -150h-140z" />
    <glyph glyph-name="uniE133" unicode="&#xe133;" horiz-adv-x="940" 
d="M70 700h200v-700h-200v700zM360 210v40h190v-40c0 -56 18 -80 60 -80s60 24 60 80v490h200v-490c0 -154 -78 -220 -260 -220c-175 0 -250 66 -250 220zM90 750l90 120h170l-120 -120h-140zM690 750l90 120h170l-120 -120h-140z" />
    <glyph glyph-name="a.alt1" 
d="M240 -10c-154 0 -220 78 -220 260s66 260 220 260c70 0 122 -16 158 -50l23 40h140v-364v-136h-140l-23 40c-36 -34 -88 -50 -158 -50zM290 120c63 0 90 39 90 130s-27 130 -90 130s-90 -39 -90 -130s27 -130 90 -130z" />
    <glyph glyph-name="aacute.alt1" 
d="M240 -10c-154 0 -220 78 -220 260s66 260 220 260c70 0 122 -16 158 -50l23 40h140v-364v-136h-140l-23 40c-36 -34 -88 -50 -158 -50zM290 120c63 0 90 39 90 130s-27 130 -90 130s-90 -39 -90 -130s27 -130 90 -130zM210 550l90 150h180l-130 -150h-140z" />
    <glyph glyph-name="aacutering.alt1" 
d="M240 -10c-154 0 -220 78 -220 260s66 260 220 260c70 0 122 -16 158 -50l23 40h140v-364v-136h-140l-23 40c-36 -34 -88 -50 -158 -50zM290 120c63 0 90 39 90 130s-27 130 -90 130s-90 -39 -90 -130s27 -130 90 -130zM387 701l-1 -1c21 -17 33 -41 33 -70
c0 -60 -50 -100 -130 -100s-130 40 -130 100s50 100 130 100h15l46 50h130zM289 599c30 0 40 10 40 30s-10 30 -40 30s-40 -10 -40 -30s10 -30 40 -30z" />
    <glyph glyph-name="abreve.alt1" 
d="M240 -10c-154 0 -220 78 -220 260s66 260 220 260c70 0 122 -16 158 -50l23 40h140v-364v-136h-140l-23 40c-36 -34 -88 -50 -158 -50zM290 120c63 0 90 39 90 130s-27 130 -90 130s-90 -39 -90 -130s27 -130 90 -130zM480 700c0 -105 -51 -150 -170 -150
s-170 45 -170 150h120c0 -42 15 -60 50 -60s50 18 50 60h120z" />
    <glyph glyph-name="acircumflex.alt1" 
d="M240 -10c-154 0 -220 78 -220 260s66 260 220 260c70 0 122 -16 158 -50l23 40h140v-364v-136h-140l-23 40c-36 -34 -88 -50 -158 -50zM290 120c63 0 90 39 90 130s-27 130 -90 130s-90 -39 -90 -130s27 -130 90 -130zM380 700l80 -150h-110l-60 70l-60 -70h-110l80 150
h180z" />
    <glyph glyph-name="acute.case" horiz-adv-x="300" 
d="M20 550l90 120h170l-120 -120h-140z" />
    <glyph glyph-name="adieresis.alt1" 
d="M240 -10c-154 0 -220 78 -220 260s66 260 220 260c70 0 122 -16 158 -50l23 40h140v-364v-136h-140l-23 40c-36 -34 -88 -50 -158 -50zM290 120c63 0 90 39 90 130s-27 130 -90 130s-90 -39 -90 -130s27 -130 90 -130zM180 710c70 0 100 -29 100 -96
c0 -66 -30 -95 -100 -95s-100 28 -100 95s30 96 100 96zM420 710c70 0 100 -29 100 -96c0 -66 -30 -95 -100 -95s-100 28 -100 95s30 96 100 96z" />
    <glyph glyph-name="agrave.alt1" 
d="M240 -10c-154 0 -220 78 -220 260s66 260 220 260c70 0 122 -16 158 -50l23 40h140v-364v-136h-140l-23 40c-36 -34 -88 -50 -158 -50zM290 120c63 0 90 39 90 130s-27 130 -90 130s-90 -39 -90 -130s27 -130 90 -130zM300 700l90 -150h-140l-130 150h180z" />
    <glyph glyph-name="amacron.alt1" 
d="M240 -10c-154 0 -220 78 -220 260s66 260 220 260c70 0 122 -16 158 -50l23 40h140v-364v-136h-140l-23 40c-36 -34 -88 -50 -158 -50zM290 120c63 0 90 39 90 130s-27 130 -90 130s-90 -39 -90 -130s27 -130 90 -130zM110 550v100h340v-100h-340z" />
    <glyph glyph-name="aogonek.alt1" 
d="M418 3l-21 37c-36 -34 -88 -50 -158 -50c-154 0 -220 78 -220 260s66 260 220 260c70 0 122 -16 158 -50l23 40h140v-364v-136h-55c-42 -42 -57 -100 -6 -100c19 0 40 10 40 10v-140s-30 -20 -70 -20c-7 0 -14 1 -21 2c-105 17 -129 163 -30 251zM290 120
c63 0 90 39 90 130s-27 130 -90 130s-90 -39 -90 -130s27 -130 90 -130z" />
    <glyph glyph-name="aring.alt1" 
d="M240 -10c-154 0 -220 78 -220 260s66 260 220 260c70 0 122 -16 158 -50l23 40h140v-364v-136h-140l-23 40c-36 -34 -88 -50 -158 -50zM290 120c63 0 90 39 90 130s-27 130 -90 130s-90 -39 -90 -130s27 -130 90 -130zM300 750c91 0 130 -33 130 -110s-39 -110 -130 -110
s-130 33 -130 110s39 110 130 110zM300 600c28 0 40 12 40 40s-12 40 -40 40s-40 -12 -40 -40s12 -40 40 -40z" />
    <glyph glyph-name="atilde.alt1" 
d="M240 -10c-154 0 -220 78 -220 260s66 260 220 260c70 0 122 -16 158 -50l23 40h140v-364v-136h-140l-23 40c-36 -34 -88 -50 -158 -50zM290 120c63 0 90 39 90 130s-27 130 -90 130s-90 -39 -90 -130s27 -130 90 -130zM120 580c0 70 50 130 110 130c90 0 100 -70 130 -70
c10 0 20 10 20 30h80c0 -70 -50 -130 -110 -130c-90 0 -100 70 -130 70c-10 0 -20 -10 -20 -30h-80z" />
    <glyph glyph-name="breve.case" horiz-adv-x="380" 
d="M360 670c0 -84 -51 -120 -170 -120s-170 36 -170 120h130c0 -28 12 -40 40 -40s40 12 40 40h130z" />
    <glyph glyph-name="caron.case" horiz-adv-x="380" 
d="M360 670l-80 -120h-180l-80 120h120l50 -50l50 50h120z" />
    <glyph glyph-name="circumflex.case" horiz-adv-x="380" 
d="M280 670l80 -120h-120l-50 50l-50 -50h-120l80 120h180z" />
    <glyph glyph-name="commaaccent" horiz-adv-x="180" 
d="M90 -40l1 -1c40 0 61 -18 67 -59c1 -9 2 -19 2 -30c0 -84 -39 -120 -130 -120v60c35 0 50 12 50 40c-42 0 -60 15 -60 50c0 5 0 9 1 13c4 33 25 47 69 47z" />
    <glyph glyph-name="dieresis.case" horiz-adv-x="500" 
d="M120 720c70 0 100 -24 100 -80s-30 -80 -100 -80s-100 24 -100 80s30 80 100 80zM380 720c70 0 100 -24 100 -80s-30 -80 -100 -80s-100 24 -100 80s30 80 100 80z" />
    <glyph glyph-name="dotaccent.case" horiz-adv-x="240" 
d="M120 710c70 0 100 -24 100 -80s-30 -80 -100 -80s-100 24 -100 80s30 80 100 80z" />
    <glyph glyph-name="grave.case" horiz-adv-x="300" 
d="M180 670l100 -120h-130l-130 120h160z" />
    <glyph glyph-name="hungarumlaut.case" horiz-adv-x="500" 
d="M20 550l80 120h160l-110 -120h-130zM240 550l80 120h160l-110 -120h-130z" />
    <glyph glyph-name="tilde.case" horiz-adv-x="380" 
d="M20 580c0 70 50 110 110 110c90 0 100 -40 140 -40c10 0 20 10 20 20h70c0 -70 -50 -110 -110 -110c-90 0 -100 40 -140 40c-10 0 -20 -10 -20 -20h-70z" />
    </font>
</defs>
</svg>
