<svg xmlns="http://www.w3.org/2000/svg" width="14" height="12" viewBox="0 0 14 12">
  <path id="Twitter" class="cls-1" d="M1790.35,2269.9a2.945,2.945,0,0,0,1.26-1.67,5.4,5.4,0,0,1-1.82.73,2.769,2.769,0,0,0-4.13-.07,2.99,2.99,0,0,0-.84,2.14,4.257,4.257,0,0,0,.07.7,7.8,7.8,0,0,1-3.3-.94,8.265,8.265,0,0,1-2.62-2.23,3.167,3.167,0,0,0-.04,2.97,3.043,3.043,0,0,0,.93,1.08,2.7,2.7,0,0,1-1.29-.39v0.04a3.022,3.022,0,0,0,.65,1.93,2.759,2.759,0,0,0,1.65,1.04,2.783,2.783,0,0,1-.76.1,3.617,3.617,0,0,1-.54-0.04,2.955,2.955,0,0,0,1.01,1.49,2.76,2.76,0,0,0,1.67.61,5.437,5.437,0,0,1-3.56,1.29,4.841,4.841,0,0,1-.69-0.04,7.627,7.627,0,0,0,4.4,1.36,7.987,7.987,0,0,0,2.87-.51,7.281,7.281,0,0,0,2.3-1.37,9.192,9.192,0,0,0,1.64-1.97,8.744,8.744,0,0,0,1.02-2.33,8.852,8.852,0,0,0,.34-2.43c0-.18,0-0.31-0.01-0.4a6.313,6.313,0,0,0,1.44-1.56,5.4,5.4,0,0,1-1.65.47h0Z" transform="translate(-1778 -2268)"/>
</svg>
