<svg xmlns="http://www.w3.org/2000/svg" width="16" height="12" viewBox="0 0 16 12">
  <path id="Youtube" class="cls-1" d="M1828.16,2274.51l-4.57,3a0.538,0.538,0,0,1-.31.09,0.609,0.609,0,0,1-.28-0.07,0.574,0.574,0,0,1-.29-0.53v-5.99a0.574,0.574,0,0,1,.29-0.53,0.528,0.528,0,0,1,.59.02l4.57,3a0.522,0.522,0,0,1,.26.5,0.538,0.538,0,0,1-.26.51h0Zm4.75-3.19a11.519,11.519,0,0,0-.19-1.38,2.2,2.2,0,0,0-.62-1.15,1.84,1.84,0,0,0-1.11-.55,78.245,78.245,0,0,0-11.99,0,1.789,1.789,0,0,0-1.1.55,2.2,2.2,0,0,0-.62,1.15,11.38,11.38,0,0,0-.2,1.38c-0.04.52-.07,0.94-0.08,1.28v2.81c0.01,0.34.04,0.76,0.08,1.28s0.11,0.98.19,1.38a2.2,2.2,0,0,0,.62,1.15,1.84,1.84,0,0,0,1.11.55,78.245,78.245,0,0,0,11.99,0,1.789,1.789,0,0,0,1.1-.55,2.2,2.2,0,0,0,.62-1.15,9.914,9.914,0,0,0,.2-1.38c0.05-.52.07-0.94,0.08-1.28s0.01-.81.01-1.41-0.01-1.06-.01-1.4S1832.96,2271.84,1832.91,2271.32Z" transform="translate(-1817 -2268)"/>
</svg>
