<?xml version="1.0" standalone="no"?>
<!DOCTYPE svg PUBLIC "-//W3C//DTD SVG 1.1//EN" "http://www.w3.org/Graphics/SVG/1.1/DTD/svg11.dtd" >
<svg xmlns="http://www.w3.org/2000/svg" xmlns:xlink="http://www.w3.org/1999/xlink" version="1.1">
<metadata>
Created by FontForge 20170925 at Fri Jun 16 01:21:04 2017
 By Jimmy Wärting
Copyright \(c\) 2017 by Alexander Slobzheninov. All rights reserved.
</metadata>
<defs>
<font id="FivoSans-Bold" horiz-adv-x="602" >
  <font-face 
    font-family="Fivo Sans"
    font-weight="700"
    font-stretch="normal"
    units-per-em="1000"
    panose-1="0 0 0 0 0 0 0 0 0 0"
    ascent="800"
    descent="-200"
    x-height="500"
    cap-height="700"
    bbox="-74 -251 1271 960"
    underline-thickness="50"
    underline-position="975"
    stemh="113"
    stemv="148"
    unicode-range="U+000D-E133"
  />
<missing-glyph horiz-adv-x="184" 
 />
    <glyph glyph-name=".notdef" horiz-adv-x="184" 
 />
    <glyph glyph-name="NULL" horiz-adv-x="768" 
d="M78 700h612v-700h-612v700zM218 569v-439h331v439h-331z" />
    <glyph glyph-name="NULL" horiz-adv-x="768" 
d="M78 700h612v-700h-612v700zM218 569v-439h331v439h-331z" />
    <glyph glyph-name="CR" unicode="&#xd;" horiz-adv-x="250" 
 />
    <glyph glyph-name="space" unicode=" " horiz-adv-x="294" 
 />
    <glyph glyph-name="exclam" unicode="!" horiz-adv-x="288" 
d="M144 161h1c60 0 86 -26 86 -86c0 -59 -26 -85 -87 -85c-60 0 -86 25 -86 85s26 86 86 86zM67 700h156v-190l-32 -253h-92l-32 253v190z" />
    <glyph glyph-name="quotedbl" unicode="&#x22;" horiz-adv-x="433" 
d="M185 700l-1 -140l-16 -222h-100l-16 222v140h133zM380 700l-1 -140l-16 -222h-100l-16 222v140h133z" />
    <glyph glyph-name="numbersign" unicode="#" horiz-adv-x="730" 
d="M370 0l26 179h-110l-26 -179h-108l26 179h-137v105h152l15 105h-137v105h152l29 206h108l-29 -206h110l29 206h108l-29 -206h141v-105h-156l-15 -105h141v-105h-156l-26 -179h-108zM426 389h-110l-15 -105h110z" />
    <glyph glyph-name="dollar" unicode="$" horiz-adv-x="656" 
d="M270 -100v82c-160 12 -230 79 -230 217h149c0 -75 41 -106 139 -106c93 0 132 26 132 87c0 155 -410 65 -410 315c0 141 67 210 220 223v82h116v-82c153 -13 220 -80 220 -218h-149c0 75 -38 107 -129 107c-86 0 -122 -25 -122 -86c0 -128 410 -46 410 -315
c0 -142 -70 -211 -230 -224v-82h-116z" />
    <glyph glyph-name="percent" unicode="%" horiz-adv-x="908" 
d="M301 -30h-133l440 760h133zM694 390c122 1 174 -58 174 -197s-52 -199 -174 -199s-174 60 -174 199s52 198 174 197zM695 81h1c46 0 65 33 65 111s-19 111 -65 111c-47 0 -66 -33 -66 -111s19 -111 65 -111zM214 710c122 1 174 -58 174 -197s-52 -199 -174 -199
s-174 60 -174 199s52 198 174 197zM216 401h1c46 0 65 33 65 111s-19 111 -65 111c-47 0 -66 -33 -66 -111s19 -111 65 -111z" />
    <glyph glyph-name="ampersand" unicode="&#x26;" horiz-adv-x="791" 
d="M784 0h-190l-53 50c-60 -46 -140 -70 -243 -70c-177 0 -258 64 -258 198c0 104 75 166 159 213c-37 44 -69 94 -69 144c0 129 65 184 217 184c146 0 209 -50 209 -157c0 -64 -48 -119 -159 -184c-2 -1 139 -137 139 -137c13 32 22 68 27 109h117
c-8 -77 -26 -143 -54 -197c79 -78 158 -153 158 -153zM457 134l-179 177c-47 -32 -81 -68 -81 -110c0 -75 35 -108 118 -109c3 0 6 1 9 1c54 2 98 16 133 41zM322 452c63 31 111 60 111 104c0 45 -25 66 -84 67c-61 -1 -87 -22 -86 -68c0 -37 28 -71 59 -103z" />
    <glyph glyph-name="quotesingle" unicode="'" horiz-adv-x="236" 
d="M185 700l-1 -140l-16 -222h-100l-16 222v140h133z" />
    <glyph glyph-name="parenleft" unicode="(" horiz-adv-x="286" 
d="M169 -200c-20 50 -130 210 -130 460s110 390 130 440h117c-20 -50 -122 -190 -122 -440s102 -410 122 -460h-117z" />
    <glyph glyph-name="parenright" unicode=")" horiz-adv-x="286" 
d="M117 -200h-117c20 50 122 210 122 460s-102 390 -122 440h117c20 -50 130 -190 130 -440s-110 -410 -130 -460z" />
    <glyph glyph-name="asterisk" unicode="*" horiz-adv-x="350" 
d="M141 400l-1 61l8 40v4l-4 -2l-31 -27l-52 -30l-34 62l52 30l39 13l2 1l-3 2l-39 13l-52 30l34 62l52 -30l31 -27l5 -3v4l-8 40v60h68v-60l-8 -40v-4l5 3l31 27l52 30l34 -62l-52 -30l-39 -13l-3 -2l3 -2l39 -13l52 -30l-34 -62l-52 30l-31 27l-4 2v-4l8 -40v-60h-68z" />
    <glyph glyph-name="plus" unicode="+" horiz-adv-x="592" 
d="M556 313v-114h-202v-199h-116v199h-202v114h202v187h116v-187h202z" />
    <glyph glyph-name="comma" unicode="," horiz-adv-x="228" 
d="M106 161l-2 -1c55 0 84 -27 92 -89c2 -14 3 -30 3 -47c0 -140 -49 -200 -162 -200v71c49 0 70 29 70 96c-55 0 -79 25 -79 84c0 7 0 14 1 20c5 46 29 66 77 66z" />
    <glyph glyph-name="hyphen" unicode="-" horiz-adv-x="402" 
d="M366 209h-330v114h330v-114z" />
    <glyph glyph-name="period" unicode="." horiz-adv-x="228" 
d="M114 161h1c60 0 86 -26 86 -86c0 -59 -26 -85 -87 -85c-60 0 -86 25 -86 85s26 86 86 86z" />
    <glyph glyph-name="slash" unicode="/" horiz-adv-x="373" 
d="M240 700h133l-240 -700h-133z" />
    <glyph glyph-name="zero" unicode="0" horiz-adv-x="712" 
d="M356 720c221 0 316 -111 316 -370s-95 -370 -316 -370s-316 111 -316 370c0 260 95 370 316 370zM356 94v-1c112 0 160 77 160 257s-48 257 -160 257s-160 -76 -160 -256s48 -257 160 -257z" />
    <glyph glyph-name="one" unicode="1" horiz-adv-x="358" 
d="M12 586v114h269v-700h-149v586h-120z" />
    <glyph glyph-name="two" unicode="2" horiz-adv-x="546" 
d="M223 114v-1h299v-114h-508v95c210 189 370 268 370 398c0 80 -31 114 -106 114c-74 0 -105 -41 -105 -137h-149c0 175 76 250 254 250s254 -68 254 -227c0 -140 -129 -220 -309 -378z" />
    <glyph glyph-name="three" unicode="3" horiz-adv-x="644" 
d="M312 309h-2h-44v105h44c91 0 130 28 130 92c0 71 -35 101 -119 101s-119 -37 -119 -126h-133c0 168 76 240 253 240s253 -62 253 -206c0 -138 -114 -144 -114 -144s144 -14 144 -164c0 -158 -85 -226 -283 -226s-283 75 -283 250h141c0 -96 42 -137 142 -137
c94 0 133 33 133 112c0 72 -43 103 -143 103z" />
    <glyph glyph-name="four" unicode="4" horiz-adv-x="598" 
d="M487 700h1h25v-417h70v-114h-70v-169h-149v169h-352v81v51l334 399h18h123zM145 283h220v267z" />
    <glyph glyph-name="five" unicode="5" horiz-adv-x="662" 
d="M276 586h-3l-23 -131c32 16 73 24 123 24c172 0 246 -75 246 -250s-86 -250 -288 -250c-168 0 -245 66 -256 220h133c11 -75 50 -107 132 -107c93 0 132 41 132 137s-38 137 -129 137c-72 0 -106 -21 -119 -73h-125l69 407h404v-114h-296z" />
    <glyph glyph-name="six" unicode="6" horiz-adv-x="634" 
d="M40 340h-1c0 266 85 380 283 380c149 0 225 -60 253 -200h-141c-17 67 -50 95 -112 95c-95 0 -134 -63 -134 -213c0 0 16 78 151 78c179 0 256 -75 256 -250s-82 -250 -273 -250c-204 0 -282 109 -282 360zM321 366v-1c-86 0 -123 -41 -123 -137c0 -95 37 -136 123 -136
c87 0 124 41 124 137s-37 137 -124 137z" />
    <glyph glyph-name="seven" unicode="7" horiz-adv-x="516" 
d="M504 605l-300 -605h-157l299 586h-334v114h492v-95z" />
    <glyph glyph-name="eight" unicode="8" horiz-adv-x="664" 
d="M70 514c0 144 79 206 263 206s263 -62 263 -206c0 -69 -24 -117 -76 -146c73 -30 106 -86 106 -172c0 -152 -88 -217 -293 -217s-293 65 -293 217c0 86 33 142 106 172c-52 29 -76 77 -76 146zM332 93v1c101 0 143 33 143 107c0 77 -42 108 -143 108s-143 -31 -143 -108
c0 -75 42 -108 143 -108zM332 607c-86 0 -122 -30 -122 -96c0 -69 36 -96 122 -96s122 27 122 96c0 66 -36 96 -122 96z" />
    <glyph glyph-name="nine" unicode="9" horiz-adv-x="634" 
d="M594 360h1c0 -266 -85 -380 -283 -380c-149 0 -225 60 -253 200h141c17 -67 50 -95 112 -95c95 0 134 63 134 213c0 0 -16 -78 -151 -78c-179 0 -256 75 -256 250s82 250 273 250c204 0 282 -109 282 -360zM313 334v1c86 0 123 41 123 137c0 95 -37 136 -123 136
c-87 0 -124 -41 -124 -137s37 -137 124 -137z" />
    <glyph glyph-name="colon" unicode=":" horiz-adv-x="276" 
d="M138 161h1c60 0 86 -26 86 -86c0 -59 -26 -85 -87 -85c-60 0 -86 25 -86 85s26 86 86 86zM139 502h1c60 0 86 -26 86 -86c0 -59 -26 -85 -87 -85c-60 0 -86 25 -86 85s26 86 86 86z" />
    <glyph glyph-name="semicolon" unicode=";" horiz-adv-x="276" 
d="M138 502h1c60 0 86 -26 86 -86c0 -59 -26 -85 -87 -85c-60 0 -86 25 -86 85s26 86 86 86zM131 161l-2 -1c55 0 84 -27 92 -89c2 -14 3 -30 3 -47c0 -140 -49 -200 -162 -200v71c49 0 70 29 70 96c-55 0 -79 25 -79 84c0 7 0 14 1 20c5 46 29 66 77 66z" />
    <glyph glyph-name="less" unicode="&#x3c;" horiz-adv-x="508" 
d="M36 329v2l400 171v-140l-258 -110l258 -110v-140l-400 171v17v122v17z" />
    <glyph glyph-name="equal" unicode="=" horiz-adv-x="664" 
d="M624 224v-114h-584v114h584zM624 419v-114h-584v114h584z" />
    <glyph glyph-name="greater" unicode="&#x3e;" horiz-adv-x="504" 
d="M68 498l400 -171v-17v-122v-17l-400 -171v140l258 110l-258 110v138z" />
    <glyph glyph-name="question" unicode="?" horiz-adv-x="548" 
d="M262 161h1c60 0 86 -26 86 -86c0 -59 -26 -85 -87 -85c-60 0 -86 25 -86 85s26 86 86 86zM199 253c0 207 166 160 166 277c0 53 -29 76 -97 76s-97 -35 -97 -116h-141c0 161 74 230 246 230s246 -57 246 -190c0 -180 -198 -131 -198 -277h-125z" />
    <glyph glyph-name="at" unicode="@" horiz-adv-x="890" 
d="M642 460v-270c0 -57 13 -82 44 -82c38 0 54 43 54 142c0 217 -86 309 -289 309c-214 0 -305 -92 -304 -309c0 -209 77 -299 257 -299c93 0 143 36 160 49v-106c-16 -13 -74 -40 -160 -40c-256 -1 -366 118 -366 396c0 284 124 406 413 406c279 0 399 -122 399 -406
c0 -161 -54 -230 -162 -230c-70 0 -116 21 -140 67c-30 -32 -76 -47 -139 -47c-131 0 -187 63 -187 210c0 154 56 220 188 220c51 0 97 -19 130 -55l20 45h82zM432 128l-1 -1c66 0 94 36 94 122c0 87 -28 124 -94 124c-67 0 -95 -36 -95 -123c0 -86 28 -122 96 -122z" />
    <glyph glyph-name="A" unicode="A" horiz-adv-x="696" 
d="M511 0l-41 140h-250l-43 -140h-165l229 700h230l213 -700h-173zM347 557l-93 -303h182z" />
    <glyph glyph-name="B" unicode="B" horiz-adv-x="694" 
d="M533 370v-1c2 0 122 -33 122 -163c0 -145 -82 -207 -271 -207h-306v700h298c174 0 248 -56 248 -187c0 -116 -90 -142 -91 -142zM360 113v-1c85 0 121 28 121 94c0 71 -36 102 -121 102h-117v-195h117zM243 585v-172h109c69 0 99 27 99 90c0 58 -29 82 -99 82h-109z" />
    <glyph glyph-name="C" unicode="C" horiz-adv-x="766" 
d="M562 237h164c-42 -180 -140 -257 -329 -257c-249 0 -356 111 -356 370s107 370 356 370c204 0 302 -77 330 -257h-165c-20 89 -68 126 -165 126c-128 0 -183 -71 -183 -239s55 -239 183 -239c94 0 142 37 165 126z" />
    <glyph glyph-name="D" unicode="D" horiz-adv-x="740" 
d="M700 350c0 -245 -104 -350 -348 -350h-274v700h274c244 0 348 -105 348 -350zM344 578h-102v-456h102c129 0 184 68 184 228s-55 228 -184 228z" />
    <glyph glyph-name="E" unicode="E" horiz-adv-x="608" 
d="M582 578v-1h-340v-155h300v-122h-300v-178h340v-122h-504v700h504v-122z" />
    <glyph glyph-name="F" unicode="F" horiz-adv-x="598" 
d="M582 578l1 -1h-340v-155h300v-122h-300v-300h-165v700h504v-122z" />
    <glyph glyph-name="G" unicode="G" horiz-adv-x="776" 
d="M398 290h1v113h338v-54c0 -259 -101 -370 -338 -370c-251 0 -358 111 -358 370s107 370 358 370c196 0 294 -72 328 -240h-157c-19 77 -70 109 -171 109c-131 0 -186 -71 -186 -239s55 -239 185 -239c128 0 182 54 182 180h-181v-1z" />
    <glyph glyph-name="H" unicode="H" horiz-adv-x="752" 
d="M510 700h165v-700h-165v309h-267v-309h-165v700h165v-260h267v260z" />
    <glyph glyph-name="I" unicode="I" horiz-adv-x="320" 
d="M78 700h165v-700h-165v700z" />
    <glyph glyph-name="J" unicode="J" horiz-adv-x="574" 
d="M12 210h-2v36h157v-36c0 -70 24 -99 82 -99s82 29 82 99v490h165v-490c0 -155 -74 -221 -246 -221c-167 0 -238 66 -238 221z" />
    <glyph glyph-name="K" unicode="K" horiz-adv-x="704" 
d="M243 700v-273l237 273h199l-296 -340l316 -360h-199l-257 293v-293h-165v700h165z" />
    <glyph glyph-name="L" unicode="L" horiz-adv-x="558" 
d="M542 131l-1 -131h-464v700h165v-569h300z" />
    <glyph glyph-name="M" unicode="M" horiz-adv-x="928" 
d="M235 0h-156v700h90h67h66l167 -466l167 466h58h67h90v-700h-157v489l-167 -449l-13 -40h-100l-8 27l-171 462v-489z" />
    <glyph glyph-name="N" unicode="N" horiz-adv-x="768" 
d="M534 700h157v-700h-191l-265 484v-484h-157v700h191l265 -484v484z" />
    <glyph glyph-name="O" unicode="O" horiz-adv-x="796" 
d="M398 720c251 0 358 -111 358 -370s-107 -370 -358 -370s-358 111 -358 370s107 370 358 370zM398 589c-130 0 -185 -71 -185 -239s55 -239 185 -239s185 71 185 239s-55 239 -185 239z" />
    <glyph glyph-name="P" unicode="P" horiz-adv-x="680" 
d="M654 473h1c0 -124 -77 -227 -268 -227h-144v-246h-165v700h308c191 0 268 -103 268 -227zM490 473c0 63 -35 105 -111 105h-135v-210h135c76 0 111 42 111 105z" />
    <glyph glyph-name="Q" unicode="Q" horiz-adv-x="796" 
d="M398 720c251 0 358 -111 358 -370c0 -141 -32 -238 -101 -297l101 -123h-150l-56 68c-43 -12 -94 -18 -152 -18c-251 0 -358 111 -358 370s107 370 358 370zM398 589c-130 0 -185 -71 -185 -239s55 -239 185 -239c20 0 38 2 55 6l-127 154h150l73 -89c23 39 34 94 34 168
c0 168 -55 239 -185 239z" />
    <glyph glyph-name="R" unicode="R" horiz-adv-x="716" 
d="M367 254h-123v-254h-165v700h320c191 0 268 -103 268 -227c0 -98 -43 -171 -143 -202l156 -271h-173zM244 368h147c76 0 111 42 111 105s-35 105 -111 105h-147v-210z" />
    <glyph glyph-name="S" unicode="S" horiz-adv-x="656" 
d="M206 520v-2c0 -128 410 -46 410 -315c0 -158 -86 -226 -288 -226s-288 66 -288 220h149c0 -75 41 -106 139 -106c93 0 132 26 132 87c0 155 -410 65 -410 315c0 158 83 226 278 226s278 -66 278 -220h-149c0 75 -38 107 -129 107c-86 0 -122 -25 -122 -86z" />
    <glyph glyph-name="T" unicode="T" horiz-adv-x="608" 
d="M592 700h1v-139h-206v-561h-165v561h-206v139h576z" />
    <glyph glyph-name="U" unicode="U" horiz-adv-x="732" 
d="M68 259l-2 441h165v-441c0 -104 40 -148 134 -148s134 44 134 148v441h165v-441c0 -195 -89 -279 -298 -279s-298 84 -298 279z" />
    <glyph glyph-name="V" unicode="V" horiz-adv-x="688" 
d="M177 700l167 -589l167 589h165l-213 -700h-238l-213 700h165z" />
    <glyph glyph-name="W" unicode="W" horiz-adv-x="1000" 
d="M401 700h2h197l103 -542l119 542h165l-171 -700h-214l-108 538l-95 -538h-214l-171 700h165l119 -541z" />
    <glyph glyph-name="X" unicode="X" horiz-adv-x="692" 
d="M204 700l143 -243l147 243h174l-214 -340l224 -360h-182l-151 262l-158 -262h-174l218 360l-208 340h181z" />
    <glyph glyph-name="Y" unicode="Y" horiz-adv-x="665" 
d="M415 266h1v-266h-157v266l-248 434h181l145 -279l145 279h173z" />
    <glyph glyph-name="Z" unicode="Z" horiz-adv-x="592" 
d="M205 122h374v-122h-564v104l364 474h-354v122h544v-104z" />
    <glyph glyph-name="bracketleft" unicode="[" horiz-adv-x="312" 
d="M78 700v1h235v-114h-110v-673h110v-114h-235v900z" />
    <glyph glyph-name="backslash" unicode="\" horiz-adv-x="373" 
d="M0 700h133l240 -700h-133z" />
    <glyph glyph-name="bracketright" unicode="]" horiz-adv-x="313" 
d="M0 699h235v-900h-235v114h110v673h-110v113z" />
    <glyph glyph-name="asciicircum" unicode="^" horiz-adv-x="492" 
d="M320 670l143 -350h-117l-101 248l-101 -248h-117l143 350h34h83h33z" />
    <glyph glyph-name="underscore" unicode="_" horiz-adv-x="504" 
d="M512 0v-114h-520v114h520z" />
    <glyph glyph-name="grave" unicode="`" horiz-adv-x="302" 
d="M178 700l96 -150h-117l-129 150h150z" />
    <glyph glyph-name="a" unicode="a" horiz-adv-x="552" 
d="M370 42h-1c-32 -36 -83 -52 -154 -52c-132 0 -188 48 -188 159c0 119 73 170 243 170h86v21c0 58 -25 82 -84 82s-83 -21 -83 -72h-141c0 112 68 160 228 160c159 0 228 -56 228 -187v-323h-116zM175 157l1 1c0 -46 23 -62 79 -62c65 0 95 28 99 93v18v24h-65h-17
c-68 -2 -97 -22 -97 -74z" />
    <glyph glyph-name="b" unicode="b" 
d="M356 -10h-1c-73 0 -126 18 -161 57l-20 -47h-116v128v572h149v-235c35 31 84 45 149 45c153 0 218 -78 218 -260s-65 -260 -218 -260zM315 104c77 0 110 44 110 146s-33 146 -110 146s-110 -44 -110 -146s33 -146 110 -146z" />
    <glyph glyph-name="c" unicode="c" horiz-adv-x="572" 
d="M396 186v2h149c-15 -137 -89 -196 -248 -196c-188 0 -268 78 -268 260s80 260 268 260c159 0 233 -59 248 -196h-149c-11 57 -41 81 -100 81c-84 0 -120 -44 -120 -146c0 -103 36 -147 120 -147c58 0 88 25 100 82z" />
    <glyph glyph-name="d" unicode="d" 
d="M246 -10h-1c-153 0 -218 78 -218 260s65 260 218 260c65 0 114 -14 149 -45v235h149v-572v-128h-116l-20 47c-35 -39 -88 -57 -161 -57zM285 104c77 0 110 44 110 146s-33 146 -110 146s-110 -44 -110 -146s33 -146 110 -146z" />
    <glyph glyph-name="e" unicode="e" horiz-adv-x="572" 
d="M176 201c9 -80 43 -115 110 -115c56 0 84 21 97 71h141c-22 -117 -93 -167 -238 -167c-181 0 -258 78 -258 260s77 260 258 260s258 -79 258 -263v-46h-368zM286 413c-69 0 -103 -37 -110 -123h220c0 87 -33 123 -110 123z" />
    <glyph glyph-name="f" unicode="f" horiz-adv-x="404" 
d="M296 586l1 -1c-32 0 -46 -14 -46 -40v-46h144v-97h-144v-403h-149v403h-84v97h84v46c0 96 56 155 154 155h138v-114h-98z" />
    <glyph glyph-name="g" unicode="g" 
d="M246 -10v-1c-153 0 -218 78 -218 260s65 260 218 260c74 0 127 -18 163 -57l19 48h116v-450c0 -182 -78 -260 -259 -260c-149 0 -220 50 -238 167h141c11 -50 37 -71 89 -71c83 0 118 41 118 137v12c-35 -31 -84 -45 -149 -45zM286 103v1c77 0 109 43 109 146
s-32 146 -109 146s-109 -43 -109 -146s32 -147 109 -147z" />
    <glyph glyph-name="h" unicode="h" horiz-adv-x="582" 
d="M59 0v700h149v-227c32 25 75 37 132 37c137 0 196 -72 196 -240v-270h-149v270c0 89 -26 126 -88 126c-65 0 -92 -37 -92 -126v-269v-1h-148z" />
    <glyph glyph-name="i" unicode="i" horiz-adv-x="272" 
d="M210 0h-149v500h149v-500zM135 724h1c60 0 86 -24 86 -81s-26 -81 -87 -81c-60 0 -86 24 -86 81s26 81 86 81z" />
    <glyph glyph-name="j" unicode="j" horiz-adv-x="276" 
d="M4 -66v1c40 0 62 23 62 57v509h149v-526c0 -96 -56 -155 -154 -155h-135v114h78zM140 726h1c60 0 86 -24 86 -81s-26 -81 -87 -81c-60 0 -86 24 -86 81s26 81 86 81z" />
    <glyph glyph-name="k" unicode="k" horiz-adv-x="575" 
d="M206 700v-393l174 193h175l-216 -240l236 -260h-175l-194 213v-213h-149v700h149z" />
    <glyph glyph-name="l" unicode="l" horiz-adv-x="264" 
d="M58 0v700h149v-700h-149z" />
    <glyph glyph-name="m" unicode="m" horiz-adv-x="862" 
d="M206 270l2 -1v-270h-149v500h116l23 -55c28 45 73 65 137 65c68 0 115 -22 143 -70c30 48 80 70 153 70c129 0 184 -72 184 -240v-270h-149v270c0 88 -23 126 -76 126c-57 0 -81 -38 -80 -126v-270h-149v270c0 89 -22 127 -75 127c-57 0 -81 -38 -80 -126z" />
    <glyph glyph-name="n" unicode="n" horiz-adv-x="582" 
d="M174 500v-1l18 -40c33 34 81 50 147 50c137 0 196 -72 196 -240v-270h-149v270c0 89 -26 127 -88 127c-65 0 -92 -38 -91 -126v-270h-149v500h116z" />
    <glyph glyph-name="o" unicode="o" horiz-adv-x="592" 
d="M296 510c188 0 268 -78 268 -260s-80 -260 -268 -260s-268 78 -268 260s80 260 268 260zM176 250l-1 -1c0 -103 36 -147 120 -147s119 44 119 147s-35 147 -119 147s-119 -43 -119 -146z" />
    <glyph glyph-name="p" unicode="p" 
d="M356 510h1c153 0 218 -78 218 -260s-65 -260 -218 -260c-65 0 -114 14 -149 45v-235h-149v572v128h116l20 -47c35 39 88 57 161 57zM317 396c-77 0 -110 -44 -110 -146s33 -146 110 -146s110 44 110 146s-33 146 -110 146z" />
    <glyph glyph-name="q" unicode="q" 
d="M246 510h1c73 0 126 -18 161 -57l20 47h116v-128v-572h-149v235c-35 -31 -84 -45 -149 -45c-153 0 -218 78 -218 260s65 260 218 260zM287 396c-77 0 -110 -44 -110 -146s33 -146 110 -146s110 44 110 146s-33 146 -110 146z" />
    <glyph glyph-name="r" unicode="r" horiz-adv-x="404" 
d="M206 250l1 1v-250h-149v500h116l21 -46c30 37 71 56 119 56h72v-131h-72c-83 0 -108 -28 -108 -130z" />
    <glyph glyph-name="s" unicode="s" horiz-adv-x="504" 
d="M170 371h3c0 -93 306 -16 306 -216c0 -116 -70 -166 -233 -166c-151 0 -216 48 -216 160h141c0 -51 23 -72 79 -72s79 18 79 61c0 103 -298 17 -298 216c0 109 65 156 218 156c147 0 210 -45 210 -150h-133c0 44 -23 62 -78 62s-78 -15 -78 -51z" />
    <glyph glyph-name="t" unicode="t" horiz-adv-x="414" 
d="M245 171l-1 -1c0 -34 22 -57 62 -57h82v-114h-138c-98 0 -154 59 -154 155v249h-80v97h80v127h149v-127h144v-97h-144v-232z" />
    <glyph glyph-name="u" unicode="u" horiz-adv-x="582" 
d="M408 0h-1l-18 40c-32 -34 -80 -50 -146 -50c-137 0 -196 72 -196 240v270h149v-270c0 -89 26 -127 88 -127c65 1 92 39 91 127v270h149v-500h-116z" />
    <glyph glyph-name="v" unicode="v" horiz-adv-x="528" 
d="M267.48 101.86l103.52 398.14h157l-153 -500h-222l-153 500h157z" />
    <glyph glyph-name="w" unicode="w" horiz-adv-x="840" 
d="M685 0h-181l-83 393l-83 -393h-181h-1l-148 500h149l96 -381l81 381h181l74 -379l95 379h149z" />
    <glyph glyph-name="x" unicode="x" horiz-adv-x="512" 
d="M167 500h1l89 -153l89 153h158l-155 -240l165 -260h-158l-99 172l-99 -172h-158l165 260l-155 240h157z" />
    <glyph glyph-name="y" unicode="y" horiz-adv-x="516" 
d="M212 1v1l4 11l-216 487h141l132 -311l102 311h141l-169 -484c-9 -25 -17 -47 -25 -66c-39 -92 -94 -131 -184 -131h-72v97h64h6c33 2 50 9 76 85z" />
    <glyph glyph-name="z" unicode="z" horiz-adv-x="476" 
d="M191 105h270v-105h-444v87l260 308h-250v105h424v-87z" />
    <glyph glyph-name="braceleft" unicode="{" horiz-adv-x="366" 
d="M223 -28c0 -40 16 -57 54 -57h90v-114h-88c-126 0 -180 47 -181 158v184c0 45 -20 64 -67 64v97c47 0 67 19 67 64v175c1 110 55 157 181 157h88v-114l-90 -1c-38 0 -54 -17 -54 -57v-150c0 -67 -17 -104 -58 -123c41 -19 58 -56 58 -124v-159z" />
    <glyph glyph-name="bar" unicode="|" horiz-adv-x="280" 
d="M78 700h125v-900h-125v900z" />
    <glyph glyph-name="braceright" unicode="}" horiz-adv-x="366" 
d="M144 -29v158c0 68 17 105 58 124c-41 19 -58 56 -58 123v150c0 40 -16 57 -54 57l-90 1v114h88c126 0 180 -47 181 -157v-175c0 -45 20 -64 67 -64v-97c-47 0 -67 -19 -67 -64v-184c-1 -110 -55 -157 -181 -157h-88v114h90c38 0 54 17 54 57z" />
    <glyph glyph-name="asciitilde" unicode="~" horiz-adv-x="672" 
d="M36 207v1v106c202 198 418 -184 600 0v-106c-202 -199 -418 182 -600 -1z" />
    <glyph glyph-name="space_" unicode="&#xa0;" horiz-adv-x="294" 
 />
    <glyph glyph-name="exclamdown" unicode="&#xa1;" horiz-adv-x="288" 
d="M228 -200h-156v190l32 253h92l32 -253v-190zM145 338h-1c-60 0 -86 26 -86 86s26 85 86 85c61 0 87 -26 87 -85c0 -60 -26 -86 -86 -86z" />
    <glyph glyph-name="cent" unicode="&#xa2;" horiz-adv-x="572" 
d="M238 -99v1v91c-146 16 -210 96 -210 258s64 242 210 258v83h116v-83c119 -14 177 -74 190 -193h-149c-11 57 -41 81 -100 81c-84 0 -120 -44 -120 -146c0 -103 36 -147 120 -147c58 0 88 25 100 82h149c-13 -119 -71 -179 -190 -193v-92h-116z" />
    <glyph glyph-name="sterling" unicode="&#xa3;" horiz-adv-x="656" 
d="M632 122v-1v-122h-586v141c43 16 71 41 81 77c7 17 10 41 10 71v9h-90v114h90v87c-1 151 68 217 230 219c16 0 31 0 46 -1c133 -10 190 -77 190 -218h-141c0 81 -26 115 -88 115h-9c-57 -2 -81 -36 -81 -114v-87h238v-114h-238v-9c0 -28 -3 -51 -9 -69
c-11 -46 -44 -78 -96 -98h453z" />
    <glyph glyph-name="currency" unicode="&#xa4;" horiz-adv-x="632" 
d="M589 476h-2l-49 -50c30 -42 44 -100 44 -176s-14 -134 -44 -176l49 -50l-75 -78l-63 64c-37 -13 -82 -19 -135 -19s-98 6 -135 19l-63 -64l-75 78l49 50c-30 42 -44 100 -44 176s14 134 44 176l-49 50l75 79l63 -64c37 13 82 19 136 19s99 -6 136 -19l63 64zM194 250
l-1 -1c0 -103 36 -147 120 -147s119 44 119 147s-35 147 -119 147s-119 -43 -119 -146z" />
    <glyph glyph-name="yen" unicode="&#xa5;" horiz-adv-x="708" 
d="M436 266h1v-53h204v-105h-204v-108h-157v108h-212v105h212v53l-19 33h-193v105h133l-169 296h181l145 -279l145 279h173l-164 -296h128v-105h-186z" />
    <glyph glyph-name="section" unicode="&#xa7;" horiz-adv-x="644" 
d="M230 533l-1 3c0 -127 374 -47 374 -293c0 -74 -24 -124 -77 -153c17 -24 27 -55 27 -94c0 -150 -74 -214 -248 -214c-158 0 -226 66 -226 220h125c0 -75 30 -107 102 -107c70 0 99 22 99 75c0 144 -366 44 -366 290c0 75 27 123 86 149c-22 27 -36 62 -36 108
c0 143 69 204 230 204c157 0 224 -66 224 -220h-125c0 75 -29 106 -99 106c-63 0 -89 -22 -89 -74zM232 343h-1c-37 -9 -53 -29 -53 -64c0 -76 140 -75 249 -118c24 13 34 34 34 66c0 71 -124 77 -229 116z" />
    <glyph glyph-name="dieresis" unicode="&#xa8;" horiz-adv-x="445" 
d="M114 710h1c60 0 86 -26 86 -86c0 -59 -26 -85 -87 -85c-60 0 -86 25 -86 85s26 86 86 86zM331 710h1c60 0 86 -26 86 -86c0 -59 -26 -85 -87 -85c-60 0 -86 25 -86 85s26 86 86 86z" />
    <glyph glyph-name="copyright" unicode="&#xa9;" horiz-adv-x="852" 
d="M425 719c270 0 386 -111 386 -370s-116 -370 -386 -370s-386 111 -386 370s116 370 386 370zM425 76l-1 1c200 0 286 82 286 273s-86 273 -286 273s-285 -82 -285 -274c0 -191 86 -273 286 -273zM426 550l-1 -1c130 0 192 -48 205 -160h-116c-11 51 -37 72 -89 72
c-64 0 -91 -33 -91 -112c0 -77 25 -110 85 -111h7c52 0 78 21 90 72h116c-14 -112 -76 -160 -206 -160c-146 0 -208 60 -208 200s62 200 208 200z" />
    <glyph glyph-name="guillemotleft" unicode="&#xab;" horiz-adv-x="535" 
d="M155 450h141l-119 -190l119 -200h-141l-127 200zM357 450h141l-119 -190l119 -200h-141l-127 200z" />
    <glyph glyph-name="logicalnot" unicode="&#xac;" 
d="M556 323v-244h-116v130h-404v114h520z" />
    <glyph glyph-name="registered" unicode="&#xae;" horiz-adv-x="852" 
d="M426 720c270 0 386 -111 386 -370s-116 -370 -386 -370s-386 111 -386 370s116 370 386 370zM425 77v-1c201 0 286 82 286 274s-85 274 -286 274s-286 -81 -286 -273s85 -274 286 -274zM511 170l-1 1l-75 123h-73v-123h-91l-1 360h178c108 0 154 -36 154 -119
c0 -60 -24 -95 -78 -110l88 -132h-101zM447 458h-86v-95h86c44 0 62 13 62 47s-18 48 -62 48z" />
    <glyph glyph-name="macron" unicode="&#xaf;" horiz-adv-x="412" 
d="M36 553v88h340v-88h-340z" />
    <glyph glyph-name="degree" unicode="&#xb0;" horiz-adv-x="436" 
d="M28 520c0 133 57 190 190 190s190 -57 190 -190s-57 -190 -190 -190s-190 57 -190 190zM120 520c0 -72 29 -102 98 -102s98 30 98 102s-29 102 -98 102s-98 -30 -98 -102z" />
    <glyph glyph-name="plusminus" unicode="&#xb1;" horiz-adv-x="592" 
d="M36 0v114h520v-114h-520zM556 394v-114h-202v-118h-116v118h-202v114h202v106h116v-106h202z" />
    <glyph glyph-name="acute" unicode="&#xb4;" horiz-adv-x="306" 
d="M28 550l97 150h150l-129 -150h-118z" />
    <glyph glyph-name="paragraph" unicode="&#xb6;" horiz-adv-x="780" 
d="M666 586l1 -786h-125v786h-163v-786h-125v500c-150 0 -214 60 -214 200s75 200 250 200h470v-114h-94z" />
    <glyph glyph-name="periodcentered" unicode="&#xb7;" horiz-adv-x="228" 
d="M114 341h1c60 0 86 -26 86 -86c0 -59 -26 -85 -87 -85c-60 0 -86 25 -86 85s26 86 86 86z" />
    <glyph glyph-name="cedilla" unicode="&#xb8;" horiz-adv-x="262" 
d="M83 34v-2h77l-21 -84s94 -18 94 -89c0 -69 -76 -110 -206 -110v63c62 0 98 13 98 48c0 26 -42 36 -80 36z" />
    <glyph glyph-name="guillemotright" unicode="&#xbb;" horiz-adv-x="537" 
d="M36 450h141l129 -190l-129 -200h-141l121 200zM238 450h141l129 -190l-129 -200h-141l121 200z" />
    <glyph glyph-name="questiondown" unicode="&#xbf;" horiz-adv-x="548" 
d="M350 247c0 -207 -166 -160 -166 -277c0 -53 29 -76 97 -76s97 35 97 116h141c0 -161 -74 -230 -246 -230s-246 57 -246 190c0 180 198 131 198 277h125zM288 337h-1c-60 0 -86 26 -86 86c0 59 26 85 87 85c60 0 86 -25 86 -85s-26 -86 -86 -86z" />
    <glyph glyph-name="Agrave" unicode="&#xc0;" horiz-adv-x="696" 
d="M511 0l-41 140h-250l-43 -140h-165l229 700h230l213 -700h-173zM347 557l-93 -303h182zM321 870l103 -120h-110l-127 120h134z" />
    <glyph glyph-name="Aacute" unicode="&#xc1;" horiz-adv-x="696" 
d="M511 0l-41 140h-250l-43 -140h-165l229 700h230l213 -700h-173zM348 557l-93 -303h182zM284 750l95 120h142l-119 -120h-118z" />
    <glyph glyph-name="Acircumflex" unicode="&#xc2;" horiz-adv-x="696" 
d="M511 0l-41 140h-250l-43 -140h-165l229 700h230l213 -700h-173zM348 557l-93 -303h182zM428 870h1l86 -120h-102l-59 58l-59 -58h-102l86 120h149z" />
    <glyph glyph-name="Atilde" unicode="&#xc3;" horiz-adv-x="696" 
d="M511 0l-41 140h-250l-43 -140h-165l229 700h230l213 -700h-173zM348 557l-93 -303h182zM188 760c0 70 46 109 102 109c86 0 100 -47 144 -47c14 0 26 12 26 29h60c0 -70 -46 -109 -102 -109c-86 0 -100 47 -144 47c-14 0 -26 -12 -26 -29h-60z" />
    <glyph glyph-name="Adieresis" unicode="&#xc4;" horiz-adv-x="692" 
d="M511 0l-41 140h-250l-43 -140h-165l229 700h230l213 -700h-173zM347 557l-93 -303h182zM239 878c60 0 86 -22 86 -73s-26 -73 -87 -73c-60 0 -86 22 -86 73s26 73 87 73zM472 878c60 0 86 -22 86 -73s-26 -73 -87 -73c-60 0 -86 22 -86 73s26 73 87 73z" />
    <glyph glyph-name="Aring" unicode="&#xc5;" horiz-adv-x="696" 
d="M511 0l-41 140h-250l-43 -140h-165l229 700h230l213 -700h-173zM348 558l-93 -303h182zM354 943c87 0 124 -32 124 -107s-37 -107 -124 -107s-124 32 -124 107s37 107 124 107zM354 792h1c34 0 47 13 47 45c0 31 -14 44 -48 44s-48 -13 -48 -45c0 -31 14 -44 48 -44z" />
    <glyph glyph-name="AE" unicode="&#xc6;" horiz-adv-x="940" 
d="M914 578v-1h-306v-155h266v-122h-266v-178h306v-122h-454v140h-216l-67 -140h-165l350 700l96 -1v1h456v-122zM460 593l-162 -340h162v340z" />
    <glyph glyph-name="Ccedilla" unicode="&#xc7;" horiz-adv-x="766" 
d="M348.49 -20.9004c-213.93 14.4297 -307.49 127.471 -307.49 368.9c0 259 107 370 356 370c204 0 302 -77 330 -257h-165c-20 89 -68 126 -165 126c-128 0 -183 -71 -183 -239s55 -239 183 -239c94 0 142 37 165 126h165c-40 -170 -130 -248 -299 -256l-8 -31
s94 -18 94 -89c0 -69 -76 -110 -206 -110v63c62 0 98 13 98 48c0 26 -42 36 -80 36z" />
    <glyph glyph-name="Egrave" unicode="&#xc8;" horiz-adv-x="608" 
d="M582 578v-1h-340v-155h300v-122h-300v-178h340v-122h-504v700h504v-122zM297 869l103 -120h-110l-127 120h134z" />
    <glyph glyph-name="Eacute" unicode="&#xc9;" horiz-adv-x="608" 
d="M582 578v-1h-340v-155h300v-122h-300v-178h340v-122h-504v700h504v-122zM260 749l95 120h142l-119 -120h-118z" />
    <glyph glyph-name="Ecircumflex" unicode="&#xca;" horiz-adv-x="608" 
d="M582 578v-1h-340v-155h300v-122h-300v-178h340v-122h-504v700h504v-122zM404 869h1l86 -120h-102l-59 58l-59 -58h-102l86 120h149z" />
    <glyph glyph-name="Edieresis" unicode="&#xcb;" horiz-adv-x="638" 
d="M580 578v-1h-340v-155h300v-122h-300v-178h340v-122h-504v700h504v-122zM213 877c60 0 86 -22 86 -73s-26 -73 -87 -73c-60 0 -86 22 -86 73s26 73 87 73zM446 877c60 0 86 -22 86 -73s-26 -73 -87 -73c-60 0 -86 22 -86 73s26 73 87 73z" />
    <glyph glyph-name="Igrave" unicode="&#xcc;" horiz-adv-x="320" 
d="M78 700h165v-700h-165v700zM128 870l103 -120h-110l-127 120h134z" />
    <glyph glyph-name="Iacute" unicode="&#xcd;" horiz-adv-x="324" 
d="M78 700h165v-700h-165v700zM91 750l95 120h142l-119 -120h-118z" />
    <glyph glyph-name="Icircumflex" unicode="&#xce;" horiz-adv-x="316" 
d="M76 700h165v-700h-165v700zM233 870h1l86 -120h-102l-59 58l-59 -58h-102l86 120h149z" />
    <glyph glyph-name="Idieresis" unicode="&#xcf;" horiz-adv-x="316" 
d="M76 700h165v-700h-165v700zM44 878c60 0 86 -22 86 -73s-26 -73 -87 -73c-60 0 -86 22 -86 73s26 73 87 73zM277 878c60 0 86 -22 86 -73s-26 -73 -87 -73c-60 0 -86 22 -86 73s26 73 87 73z" />
    <glyph glyph-name="Ntilde" unicode="&#xd1;" horiz-adv-x="768" 
d="M534 700h157v-700h-191l-265 484v-484h-157v700h191l265 -484v484zM219 760c0 70 46 109 102 109c86 0 100 -47 144 -47c14 0 26 12 26 29h60c0 -70 -46 -109 -102 -109c-86 0 -100 47 -144 47c-14 0 -26 -12 -26 -29h-60z" />
    <glyph glyph-name="Ograve" unicode="&#xd2;" horiz-adv-x="796" 
d="M398 720c251 0 358 -111 358 -370s-107 -370 -358 -370s-358 111 -358 370s107 370 358 370zM399 589c-130 0 -185 -71 -185 -239s55 -239 185 -239s185 71 185 239s-55 239 -185 239zM366 870l103 -120h-110l-127 120h134z" />
    <glyph glyph-name="Oacute" unicode="&#xd3;" horiz-adv-x="796" 
d="M398 720c251 0 358 -111 358 -370s-107 -370 -358 -370s-358 111 -358 370s107 370 358 370zM398 589c-130 0 -185 -71 -185 -239s55 -239 185 -239s185 71 185 239s-55 239 -185 239zM328 750l95 120h142l-119 -120h-118z" />
    <glyph glyph-name="Ocircumflex" unicode="&#xd4;" horiz-adv-x="796" 
d="M398 720c251 0 358 -111 358 -370s-107 -370 -358 -370s-358 111 -358 370s107 370 358 370zM399 589c-130 0 -185 -71 -185 -239s55 -239 185 -239s185 71 185 239s-55 239 -185 239zM472 870h1l86 -120h-102l-59 58l-59 -58h-102l86 120h149z" />
    <glyph glyph-name="Otilde" unicode="&#xd5;" horiz-adv-x="796" 
d="M398 720c251 0 358 -111 358 -370s-107 -370 -358 -370s-358 111 -358 370s107 370 358 370zM398 589c-130 0 -185 -71 -185 -239s55 -239 185 -239s185 71 185 239s-55 239 -185 239zM232 760c0 70 46 109 102 109c86 0 100 -47 144 -47c14 0 26 12 26 29h60
c0 -70 -46 -109 -102 -109c-86 0 -100 47 -144 47c-14 0 -26 -12 -26 -29h-60z" />
    <glyph glyph-name="Odieresis" unicode="&#xd6;" horiz-adv-x="792" 
d="M396 720c251 0 358 -111 358 -370s-107 -370 -358 -370s-358 111 -358 370s107 370 358 370zM397 589c-130 0 -185 -71 -185 -239s55 -239 185 -239s185 71 185 239s-55 239 -185 239zM282 878c60 0 86 -22 86 -73s-26 -73 -87 -73c-60 0 -86 22 -86 73s26 73 87 73z
M515 878c60 0 86 -22 86 -73s-26 -73 -87 -73c-60 0 -86 22 -86 73s26 73 87 73z" />
    <glyph glyph-name="multiply" unicode="&#xd7;" horiz-adv-x="563" 
d="M123 494l158 -158l158 158l83 -87l-156 -156l156 -156l-83 -87l-158 158l-158 -158l-83 87l156 156l-156 156z" />
    <glyph glyph-name="Oslash" unicode="&#xd8;" horiz-adv-x="796" 
d="M504 780h98l-30 -86c126 -46 182 -156 182 -343c0 -259 -107 -370 -358 -370c-25 0 -49 1 -71 3l-22 -63h-101l29 82c-133 44 -192 155 -192 347c0 259 107 370 358 370c30 0 58 -2 84 -5zM433.72 586.21c-11.6396 1.86035 -24.21 2.79004 -37.7197 2.79004
c-130 0 -185 -71 -185 -239c0 -104 21 -171 68 -207zM370 111h1c9 -1 18 -1 27 -1c130 0 185 71 185 239c0 98 -19 163 -60 200z" />
    <glyph glyph-name="Ugrave" unicode="&#xd9;" horiz-adv-x="732" 
d="M68 259l-2 441h165v-441c0 -104 40 -148 134 -148s134 44 134 148v441h165v-441c0 -195 -89 -279 -298 -279s-298 84 -298 279zM332 870l103 -120h-110l-127 120h134z" />
    <glyph glyph-name="Uacute" unicode="&#xda;" horiz-adv-x="732" 
d="M68 259l-2 441h165v-441c0 -104 40 -148 134 -148s134 44 134 148v441h165v-441c0 -195 -89 -279 -298 -279s-298 84 -298 279zM294 750l95 120h142l-119 -120h-118z" />
    <glyph glyph-name="Ucircumflex" unicode="&#xdb;" horiz-adv-x="732" 
d="M68 259l-2 441h165v-441c0 -104 40 -148 134 -148s134 44 134 148v441h165v-441c0 -195 -89 -279 -298 -279s-298 84 -298 279zM439 870h1l86 -120h-102l-59 58l-59 -58h-102l86 120h149z" />
    <glyph glyph-name="Udieresis" unicode="&#xdc;" horiz-adv-x="728" 
d="M66 259l-2 441h165v-441c0 -104 40 -148 134 -148s134 44 134 148v441h165v-441c0 -195 -89 -279 -298 -279s-298 84 -298 279zM248 878c60 0 86 -22 86 -73s-26 -73 -87 -73c-60 0 -86 22 -86 73s26 73 87 73zM481 878c60 0 86 -22 86 -73s-26 -73 -87 -73
c-60 0 -86 22 -86 73s26 73 87 73z" />
    <glyph glyph-name="Yacute" unicode="&#xdd;" horiz-adv-x="665" 
d="M415 266h1v-266h-157v266l-248 434h181l145 -279l145 279h173zM270 750l95 120h142l-119 -120h-118z" />
    <glyph glyph-name="germandbls" unicode="&#xdf;" horiz-adv-x="662" 
d="M332 720v3c182 0 260 -57 260 -190c0 -72 -35 -111 -109 -138c98 -29 140 -84 140 -184c0 -146 -63 -209 -210 -209c-58 0 -108 20 -108 20v105s36 -11 68 -11c71 0 102 31 102 103c0 80 -44 113 -150 113v107c89 0 127 24 127 80c0 61 -33 89 -112 88
c-87 -1 -123 -38 -123 -124v-483h-149v482c0 167 79 238 264 238z" />
    <glyph glyph-name="agrave" unicode="&#xe0;" horiz-adv-x="552" 
d="M370 42h-1c-32 -36 -83 -52 -154 -52c-132 0 -188 48 -188 159c0 119 73 170 243 170h86v21c0 58 -25 82 -84 82s-83 -21 -83 -72h-141c0 112 68 160 228 160c159 0 228 -56 228 -187v-323h-116zM176 157l1 1c0 -46 23 -62 79 -62c65 0 95 28 99 93v18v24h-65h-17
c-68 -2 -97 -22 -97 -74zM249 700l96 -150h-117l-129 150h150z" />
    <glyph glyph-name="aacute" unicode="&#xe1;" horiz-adv-x="552" 
d="M370 42h-1c-32 -36 -83 -52 -154 -52c-132 0 -188 48 -188 159c0 119 73 170 243 170h86v21c0 58 -25 82 -84 82s-83 -21 -83 -72h-141c0 112 68 160 228 160c159 0 228 -56 228 -187v-323h-116zM176 157l1 1c0 -46 23 -62 79 -62c65 0 95 28 99 93v18v24h-65h-17
c-68 -2 -97 -22 -97 -74zM197 550l97 150h150l-129 -150h-118z" />
    <glyph glyph-name="acircumflex" unicode="&#xe2;" horiz-adv-x="552" 
d="M370 42h-1c-32 -36 -83 -52 -154 -52c-132 0 -188 48 -188 159c0 119 73 170 243 170h86v21c0 58 -25 82 -84 82s-83 -21 -83 -72h-141c0 112 68 160 228 160c159 0 228 -56 228 -187v-323h-116zM174 157l1 1c0 -46 23 -62 79 -62c65 0 95 28 99 93v18v24h-65h-17
c-68 -2 -97 -22 -97 -74zM349 700l83 -150h-93l-65 79l-65 -79h-93l84 150h149z" />
    <glyph glyph-name="atilde" unicode="&#xe3;" horiz-adv-x="552" 
d="M370 42h-1c-32 -36 -83 -52 -154 -52c-132 0 -188 48 -188 159c0 119 73 170 243 170h86v21c0 58 -25 82 -84 82s-83 -21 -83 -72h-141c0 112 68 160 228 160c159 0 228 -56 228 -187v-323h-116zM174 157l1 1c0 -46 23 -62 79 -62c65 0 95 28 99 93v18v24h-65h-17
c-68 -2 -97 -22 -97 -74zM109 579h-1c0 70 46 127 102 127c86 0 100 -76 136 -76c14 0 26 14 26 39h68c0 -70 -46 -127 -102 -127c-86 0 -100 76 -135 76c-14 0 -26 -14 -26 -39h-68z" />
    <glyph glyph-name="adieresis" unicode="&#xe4;" horiz-adv-x="552" 
d="M370 45h-1c-32 -36 -83 -52 -154 -52c-132 0 -188 48 -188 159c0 119 73 170 243 170h86v21c0 58 -25 82 -84 82s-83 -21 -83 -72h-141c0 112 68 160 228 160c159 0 228 -56 228 -187v-323h-116zM177 160l1 1c0 -46 23 -62 79 -62c65 0 95 28 99 93v18v24h-65h-17
c-68 -2 -97 -22 -97 -74zM169 700h1c60 0 86 -26 86 -86c0 -59 -26 -85 -87 -85c-60 0 -86 25 -86 85s26 86 86 86zM386 700h1c60 0 86 -26 86 -86c0 -59 -26 -85 -87 -85c-60 0 -86 25 -86 85s26 86 86 86z" />
    <glyph glyph-name="aring" unicode="&#xe5;" horiz-adv-x="552" 
d="M370 42h-1c-32 -36 -83 -52 -154 -52c-132 0 -188 48 -188 159c0 119 73 170 243 170h86v21c0 58 -25 82 -84 82s-83 -21 -83 -72h-141c0 112 68 160 228 160c159 0 228 -56 228 -187v-323h-116zM175 157l1 1c0 -46 23 -62 79 -62c65 0 95 28 99 93v18v24h-65h-17
c-68 -2 -97 -22 -97 -74zM275 743c87 0 124 -32 124 -107s-37 -107 -124 -107s-124 32 -124 107s37 107 124 107zM276 592h1c34 0 47 13 47 45c0 31 -14 44 -48 44s-48 -13 -48 -45c0 -31 14 -44 48 -44z" />
    <glyph glyph-name="ae" unicode="&#xe6;" horiz-adv-x="900" 
d="M505.1 201c8.17969 -79.29 42.1807 -114 109.9 -114c56 0 84 21 98 71h141c-22 -117 -93 -167 -238 -167c-101 0 -164 34 -195 111c-26 -77 -91 -111 -203 -111c-131 0 -188 48 -188 159c0 113 65 165 216 170h31h80v21v5c-2 48 -28 68 -87 68c-57 0 -80 -18 -80 -63
h-141c0 112 68 160 228 160c83 0 137 -21 167 -67c35 45 91 66 170 66c181 0 258 -79 258 -263v-46h-366.9zM357.001 231l-1 -1h-70c-77 0 -109 -22 -109 -74v-4c2 -40 26 -57 80 -57h7c66 1 93 32 93 102v34zM614.001 413h0.520508
c-68.6797 -0.169922 -102.54 -37.2002 -110.521 -123h220c0 86.7998 -32.8496 122.83 -109.47 123h0.469727h-1z" />
    <glyph glyph-name="ccedilla" unicode="&#xe7;" horiz-adv-x="572" 
d="M250 -8v1c-155 12 -222 91 -222 257c0 182 80 260 268 260c159 0 233 -59 248 -196h-149c-11 57 -41 81 -100 81c-84 0 -120 -44 -120 -146c0 -103 36 -147 120 -147c58 0 88 25 100 82h149c-14 -127 -79 -187 -216 -195l-10 -41s94 -18 94 -89c0 -69 -76 -110 -206 -110
v63c62 0 98 13 98 48c0 26 -42 36 -80 36z" />
    <glyph glyph-name="egrave" unicode="&#xe8;" horiz-adv-x="572" 
d="M176 201c9 -80 43 -115 110 -115c56 0 84 21 97 71h141c-22 -117 -93 -167 -238 -167c-181 0 -258 78 -258 260s77 260 258 260s258 -79 258 -263v-46h-368zM285 413c-69 0 -103 -37 -110 -123h220c0 87 -33 123 -110 123zM259 700l96 -150h-117l-129 150h150z" />
    <glyph glyph-name="eacute" unicode="&#xe9;" horiz-adv-x="572" 
d="M176 201c9 -80 43 -115 110 -115c56 0 84 21 97 71h141c-22 -117 -93 -167 -238 -167c-181 0 -258 78 -258 260s77 260 258 260s258 -79 258 -263v-46h-368zM286 413c-69 0 -103 -37 -110 -123h220c0 87 -33 123 -110 123zM216 550l97 150h150l-129 -150h-118z" />
    <glyph glyph-name="ecircumflex" unicode="&#xea;" horiz-adv-x="572" 
d="M176 201c9 -80 43 -115 110 -115c56 0 84 21 97 71h141c-22 -117 -93 -167 -238 -167c-181 0 -258 78 -258 260s77 260 258 260s258 -79 258 -263v-46h-368zM285 413c-69 0 -103 -37 -110 -123h220c0 87 -33 123 -110 123zM360 700l83 -150h-93l-65 79l-65 -79h-93
l84 150h149z" />
    <glyph glyph-name="edieresis" unicode="&#xeb;" horiz-adv-x="572" 
d="M176 201c9 -80 43 -115 110 -115c56 0 84 21 97 71h141c-22 -117 -93 -167 -238 -167c-181 0 -258 78 -258 260s77 260 258 260s258 -79 258 -263v-46h-368zM286 413c-69 0 -103 -37 -110 -123h220c0 87 -33 123 -110 123zM180 700c60 0 86 -26 86 -86
c0 -59 -26 -85 -87 -85c-60 0 -86 26 -86 85c0 60 26 86 87 86zM396 700c60 0 86 -26 86 -86c0 -59 -26 -85 -86 -85c-61 0 -86 26 -86 85c0 60 26 86 86 86z" />
    <glyph glyph-name="igrave" unicode="&#xec;" horiz-adv-x="248" 
d="M198 0h-149v500h149v-500zM97 700l96 -150h-117l-129 150h150z" />
    <glyph glyph-name="iacute" unicode="&#xed;" horiz-adv-x="256" 
d="M206 0h-149v500h149v-500zM53 550l97 150h150l-129 -150h-118z" />
    <glyph glyph-name="icircumflex" unicode="&#xee;" horiz-adv-x="248" 
d="M198 0h-149v500h149v-500zM198 700l83 -150h-93l-65 79l-65 -79h-93l84 150h149z" />
    <glyph glyph-name="idieresis" unicode="&#xef;" horiz-adv-x="268" 
d="M206 0h-149v500h149v-500zM25 695h1c60 0 86 -26 86 -86c0 -59 -26 -85 -87 -85c-60 0 -86 25 -86 85s26 86 86 86zM242 695h1c60 0 86 -26 86 -86c0 -59 -26 -85 -87 -85c-60 0 -86 25 -86 85s26 86 86 86z" />
    <glyph glyph-name="ntilde" unicode="&#xf1;" horiz-adv-x="582" 
d="M174 500v-1l18 -40c33 34 81 50 147 50c137 0 196 -72 196 -240v-270h-149v270c0 89 -26 127 -88 127c-65 0 -92 -38 -91 -126v-270h-149v500h116zM130 578h-1c0 70 46 127 102 127c86 0 100 -76 136 -76c14 0 26 14 26 39h68c0 -70 -46 -127 -102 -127
c-86 0 -100 76 -135 76c-14 0 -26 -14 -26 -39h-68z" />
    <glyph glyph-name="ograve" unicode="&#xf2;" horiz-adv-x="592" 
d="M296 510c188 0 268 -78 268 -260s-80 -260 -268 -260s-268 78 -268 260s80 260 268 260zM177 250l-1 -1c0 -103 36 -147 120 -147s119 44 119 147s-35 147 -119 147s-119 -43 -119 -146zM270 700l96 -150h-117l-129 150h150z" />
    <glyph glyph-name="oacute" unicode="&#xf3;" horiz-adv-x="592" 
d="M296 510c188 0 268 -78 268 -260s-80 -260 -268 -260s-268 78 -268 260s80 260 268 260zM177 250l-1 -1c0 -103 36 -147 120 -147s119 44 119 147s-35 147 -119 147s-119 -43 -119 -146zM226 550l97 150h150l-129 -150h-118z" />
    <glyph glyph-name="ocircumflex" unicode="&#xf4;" horiz-adv-x="592" 
d="M296 510c188 0 268 -78 268 -260s-80 -260 -268 -260s-268 78 -268 260s80 260 268 260zM175 250l-1 -1c0 -103 36 -147 120 -147s119 44 119 147s-35 147 -119 147s-119 -43 -119 -146zM370 700l83 -150h-93l-65 79l-65 -79h-93l84 150h149z" />
    <glyph glyph-name="otilde" unicode="&#xf5;" horiz-adv-x="592" 
d="M296 510c188 0 268 -78 268 -260s-80 -260 -268 -260s-268 78 -268 260s80 260 268 260zM175 250l-1 -1c0 -103 36 -147 120 -147s119 44 119 147s-35 147 -119 147s-119 -43 -119 -146zM130 579h-1c0 70 46 127 102 127c86 0 100 -76 136 -76c14 0 26 14 26 39h68
c0 -70 -46 -127 -102 -127c-86 0 -100 76 -135 76c-14 0 -26 -14 -26 -39h-68z" />
    <glyph glyph-name="odieresis" unicode="&#xf6;" horiz-adv-x="592" 
d="M296 510c188 0 268 -78 268 -260s-80 -260 -268 -260s-268 78 -268 260s80 260 268 260zM176 250l-1 -1c0 -103 36 -147 120 -147s119 44 119 147s-35 147 -119 147s-119 -43 -119 -146zM190 700c60 0 86 -26 86 -86c0 -59 -26 -85 -87 -85c-60 0 -86 26 -86 85
c0 60 26 86 87 86zM406 700c60 0 86 -26 86 -86c0 -59 -26 -85 -86 -85c-61 0 -86 26 -86 85c0 60 26 86 86 86z" />
    <glyph glyph-name="divide" unicode="&#xf7;" horiz-adv-x="592" 
d="M216 70c0 47 32 79 80 79s80 -32 80 -79c0 -46 -32 -78 -80 -78s-80 32 -80 78zM556 199h-520v114h520v-114zM216 450c0 47 32 79 80 79s80 -32 80 -79c0 -46 -32 -78 -80 -78s-80 32 -80 78z" />
    <glyph glyph-name="oslash" unicode="&#xf8;" horiz-adv-x="592" 
d="M296 510v1c19 0 37 -1 54 -3l22 62h68l-26 -74c104 -30 150 -108 150 -246c0 -182 -80 -260 -268 -260c-19 0 -37 1 -54 3l-21 -62h-69l25 74c-103 30 -149 108 -149 245c0 182 80 260 268 260zM176 251h-1c0 -62 13 -103 42 -125l93 271h-15c-84 0 -119 -43 -119 -146z
M372 377l-93 -273h16c84 0 119 44 119 147c0 63 -13 104 -42 126z" />
    <glyph glyph-name="ugrave" unicode="&#xf9;" horiz-adv-x="582" 
d="M408 0h-1l-18 40c-32 -34 -80 -50 -146 -50c-137 0 -196 72 -196 240v270h149v-270c0 -89 26 -127 88 -127c65 1 92 39 91 127v270h149v-500h-116zM277 700l96 -150h-117l-129 150h150z" />
    <glyph glyph-name="uacute" unicode="&#xfa;" horiz-adv-x="582" 
d="M408 0h-1l-18 40c-32 -34 -80 -50 -146 -50c-137 0 -196 72 -196 240v270h149v-270c0 -89 26 -127 88 -127c65 1 92 39 91 127v270h149v-500h-116zM193 550l97 150h150l-129 -150h-118z" />
    <glyph glyph-name="ucircumflex" unicode="&#xfb;" horiz-adv-x="582" 
d="M408 0h-1l-18 40c-32 -34 -80 -50 -146 -50c-137 0 -196 72 -196 240v270h149v-270c0 -89 26 -127 88 -127c65 1 92 39 91 127v270h149v-500h-116zM357 700l83 -150h-93l-65 79l-65 -79h-93l84 150h149z" />
    <glyph glyph-name="udieresis" unicode="&#xfc;" horiz-adv-x="582" 
d="M408 0h-1l-18 40c-32 -34 -80 -50 -146 -50c-137 0 -196 72 -196 240v270h149v-270c0 -89 26 -127 88 -127c65 1 92 39 91 127v270h149v-500h-116zM167 700c60 0 86 -26 86 -86c0 -59 -26 -85 -87 -85c-60 0 -86 26 -86 85c0 60 26 86 87 86zM383 700c60 0 86 -26 86 -86
c0 -59 -26 -85 -86 -85c-61 0 -86 26 -86 85c0 60 26 86 86 86z" />
    <glyph glyph-name="yacute" unicode="&#xfd;" horiz-adv-x="516" 
d="M212 1v1l4 11l-216 487h141l132 -311l102 311h141l-169 -484c-9 -25 -17 -47 -25 -66c-39 -92 -94 -131 -184 -131h-72v97h64h6c33 2 50 9 76 85zM204 550l97 150h150l-129 -150h-118z" />
    <glyph glyph-name="ydieresis" unicode="&#xff;" horiz-adv-x="516" 
d="M212 1v1l4 11l-216 487h141l132 -311l102 311h141l-169 -484c-9 -25 -17 -47 -25 -66c-39 -92 -94 -131 -184 -131h-72v97h64h6c33 2 50 9 76 85zM160 701c60 0 86 -26 86 -86c0 -59 -26 -85 -87 -85c-60 0 -86 26 -86 85c0 60 26 86 87 86zM376 701c60 0 86 -26 86 -86
c0 -59 -26 -85 -86 -85c-61 0 -86 26 -86 85c0 60 26 86 86 86z" />
    <glyph glyph-name="Amacron" unicode="&#x100;" horiz-adv-x="696" 
d="M511 0l-41 140h-250l-43 -140h-165l229 700h230l213 -700h-173zM348 557l-93 -303h182zM184 753v88h340v-88h-340z" />
    <glyph glyph-name="amacron" unicode="&#x101;" horiz-adv-x="552" 
d="M370 42h-1c-32 -36 -83 -52 -154 -52c-132 0 -188 48 -188 159c0 119 73 170 243 170h86v21c0 58 -25 82 -84 82s-83 -21 -83 -72h-141c0 112 68 160 228 160c159 0 228 -56 228 -187v-323h-116zM176 157l1 1c0 -46 23 -62 79 -62c65 0 95 28 99 93v18v24h-65h-17
c-68 -2 -97 -22 -97 -74zM105 553v88h340v-88h-340z" />
    <glyph glyph-name="Abreve" unicode="&#x102;" horiz-adv-x="696" 
d="M511 0l-41 140h-250l-43 -140h-165l229 700h230l213 -700h-173zM348 557l-93 -303h182zM520 870c0 -84 -50 -120 -166 -120s-166 36 -166 120h108c0 -35 17 -49 58 -49s58 14 58 49h108z" />
    <glyph glyph-name="abreve" unicode="&#x103;" horiz-adv-x="552" 
d="M370 42h-1c-32 -36 -83 -52 -154 -52c-132 0 -188 48 -188 159c0 119 73 170 243 170h86v21c0 58 -25 82 -84 82s-83 -21 -83 -72h-141c0 112 68 160 228 160c159 0 228 -56 228 -187v-323h-116zM176 158l1 1c0 -46 23 -62 79 -62c65 0 95 28 99 93v18v24h-65h-17
c-68 -2 -97 -22 -97 -74zM441 700l1 1c0 -105 -50 -150 -166 -150s-166 45 -166 150h100c0 -50 19 -71 65 -71h9c40 2 57 23 57 70h100z" />
    <glyph glyph-name="Aogonek" unicode="&#x104;" horiz-adv-x="692" 
d="M567 0l-1 1h-56l-41 140h-250l-43 -140h-165l229 700h230l213 -700h-41c-55 -48 -70 -119 -9 -119h6c21 1 41 12 41 12v-123s-30 -20 -70 -20c-6 0 -12 0 -17 1c-108 14 -127 161 -26 248zM347 558l-93 -303h182z" />
    <glyph glyph-name="aogonek" unicode="&#x105;" horiz-adv-x="552" 
d="M384.68 6.75l-14.6797 34.25c-32 -36 -83 -52 -154 -52c-132 0 -188 48 -188 159c0 119 73 170 243 170h86v21c0 58 -25 82 -84 82s-83 -21 -83 -72h-141c0 112 68 160 228 160c159 0 228 -56 228 -187v-323h-52c-55 -48 -70 -119 -9 -119c24 0 46 13 46 13v-123
s-30 -20 -70 -20c-124.88 0 -149.95 166.69 -35.3203 256.75zM177 156l1 1c0 -46 23 -62 79 -62c65 0 95 28 99 93v18v24h-65h-17c-68 -2 -97 -22 -97 -74z" />
    <glyph glyph-name="Cacute" unicode="&#x106;" horiz-adv-x="766" 
d="M562 237h164c-42 -180 -140 -257 -329 -257c-249 0 -356 111 -356 370s107 370 356 370c204 0 302 -77 330 -257h-165c-20 89 -68 126 -165 126c-128 0 -183 -71 -183 -239s55 -239 183 -239c94 0 142 37 165 126zM327 750l95 120h142l-119 -120h-118z" />
    <glyph glyph-name="cacute" unicode="&#x107;" horiz-adv-x="572" 
d="M396 186v2h149c-15 -137 -89 -196 -248 -196c-188 0 -268 78 -268 260s80 260 268 260c159 0 233 -59 248 -196h-149c-11 57 -41 81 -100 81c-84 0 -120 -44 -120 -146c0 -103 36 -147 120 -147c58 0 88 25 100 82zM226 552l97 150h150l-129 -150h-118z" />
    <glyph glyph-name="Ccircumflex" unicode="&#x108;" horiz-adv-x="766" 
d="M562 237h164c-42 -180 -140 -257 -329 -257c-249 0 -356 111 -356 370s107 370 356 370c204 0 302 -77 330 -257h-165c-20 89 -68 126 -165 126c-128 0 -183 -71 -183 -239s55 -239 183 -239c94 0 142 37 165 126zM472 870h1l86 -120h-102l-59 58l-59 -58h-102l86 120
h149z" />
    <glyph glyph-name="ccircumflex" unicode="&#x109;" horiz-adv-x="572" 
d="M396 186v2h149c-15 -137 -89 -196 -248 -196c-188 0 -268 78 -268 260s80 260 268 260c159 0 233 -59 248 -196h-149c-11 57 -41 81 -100 81c-84 0 -120 -44 -120 -146c0 -103 36 -147 120 -147c58 0 88 25 100 82zM371 702l83 -150h-93l-65 79l-65 -79h-93l84 150h149z
" />
    <glyph glyph-name="Cdotaccent" unicode="&#x10a;" horiz-adv-x="766" 
d="M562 237h164c-42 -180 -140 -257 -329 -257c-249 0 -356 111 -356 370s107 370 356 370c204 0 302 -77 330 -257h-165c-20 89 -68 126 -165 126c-128 0 -183 -71 -183 -239s55 -239 183 -239c94 0 142 37 165 126zM399 887c60 0 86 -22 86 -73s-26 -73 -87 -73
c-60 0 -86 22 -86 73s26 73 87 73z" />
    <glyph glyph-name="cdotaccent" unicode="&#x10b;" horiz-adv-x="564" 
d="M396 186v2h149c-15 -137 -89 -196 -248 -196c-188 0 -268 78 -268 260s80 260 268 260c159 0 233 -59 248 -196h-149c-11 57 -41 81 -100 81c-84 0 -120 -44 -120 -146c0 -103 36 -147 120 -147c58 0 88 25 100 82zM298 706h1c60 0 86 -25 86 -82c0 -56 -26 -80 -87 -80
c-60 0 -86 25 -86 81c0 57 26 81 86 81z" />
    <glyph glyph-name="Ccaron" unicode="&#x10c;" horiz-adv-x="766" 
d="M562 237h164c-42 -180 -140 -257 -329 -257c-249 0 -356 111 -356 370s107 370 356 370c204 0 302 -77 330 -257h-165c-20 89 -68 126 -165 126c-128 0 -183 -71 -183 -239s55 -239 183 -239c94 0 142 37 165 126zM549 870l-86 -120h-149l-86 120h102l59 -58l59 58h101z
" />
    <glyph glyph-name="ccaron" unicode="&#x10d;" horiz-adv-x="572" 
d="M396 186v2h149c-15 -137 -89 -196 -248 -196c-188 0 -268 78 -268 260s80 260 268 260c159 0 233 -59 248 -196h-149c-11 57 -41 81 -100 81c-84 0 -120 -44 -120 -146c0 -103 36 -147 120 -147c58 0 88 25 100 82zM455 702h1l-84 -150h-149l-84 150h93l65 -79l65 79h93z
" />
    <glyph glyph-name="Dcaron" unicode="&#x10e;" horiz-adv-x="740" 
d="M700 350c0 -245 -104 -350 -348 -350h-274v700h274c244 0 348 -105 348 -350zM343 578h-102v-456h102c129 0 184 68 184 228s-55 228 -184 228zM493 870l-86 -120h-149l-86 120h102l59 -58l59 58h101z" />
    <glyph glyph-name="dcaron" unicode="&#x10f;" horiz-adv-x="705" 
d="M246 -10h-1c-153 0 -218 78 -218 260s65 260 218 260c65 0 114 -14 149 -45v235h149v-572v-128h-116l-20 47c-35 -39 -88 -57 -161 -57zM286 105c77 0 110 44 110 146s-33 146 -110 146s-110 -44 -110 -146s33 -146 110 -146zM648 709v1c36 0 55 -17 60 -56
c1 -9 2 -19 2 -30c-1 -80 -35 -114 -114 -114v54c32 0 46 13 46 43c-38 0 -55 14 -55 46v12c3 31 22 44 61 44z" />
    <glyph glyph-name="Dcroat" unicode="&#x110;" horiz-adv-x="750" 
d="M710 350c0 -245 -104 -350 -348 -350h-274v332h-90v105h90v263h274c244 0 348 -105 348 -350zM354 578h-102v-141h149v-105h-149v-210h102c129 0 184 68 184 228s-55 228 -184 228z" />
    <glyph glyph-name="dcroat" unicode="&#x111;" horiz-adv-x="642" 
d="M633 630v-71h-90v-431v-128h-116l-20 47c-35 -39 -88 -57 -161 -57c-153 0 -218 78 -218 260s65 260 218 260c65 0 114 -14 149 -45v94h-174v71h174v70h149v-70h89zM285 104c77 0 110 44 110 146s-33 146 -110 146s-110 -44 -110 -146s33 -146 110 -146z" />
    <glyph glyph-name="Emacron" unicode="&#x112;" horiz-adv-x="608" 
d="M582 578v-1h-340v-155h300v-122h-300v-178h340v-122h-504v700h504v-122zM160 752v88h340v-88h-340z" />
    <glyph glyph-name="emacron" unicode="&#x113;" horiz-adv-x="572" 
d="M176 201c9 -80 43 -115 110 -115c56 0 84 21 97 71h141c-22 -117 -93 -167 -238 -167c-181 0 -258 78 -258 260s77 260 258 260s258 -79 258 -263v-46h-368zM286 413c-69 0 -103 -37 -110 -123h220c0 87 -33 123 -110 123zM116 553v88h340v-88h-340z" />
    <glyph glyph-name="Ebreve" unicode="&#x114;" horiz-adv-x="608" 
d="M582 578v-1h-340v-155h300v-122h-300v-178h340v-122h-504v700h504v-122zM496 869c0 -84 -50 -120 -166 -120s-166 36 -166 120h108c0 -35 17 -49 58 -49s58 14 58 49h108z" />
    <glyph glyph-name="ebreve" unicode="&#x115;" horiz-adv-x="572" 
d="M176 201c9 -80 43 -115 110 -115c56 0 84 21 97 71h141c-22 -117 -93 -167 -238 -167c-181 0 -258 78 -258 260s77 260 258 260s258 -79 258 -263v-46h-368zM287 414c-69 0 -103 -37 -110 -123h220c0 87 -33 123 -110 123zM452 700l1 1c0 -105 -50 -150 -166 -150
s-166 45 -166 150h100c0 -50 19 -71 65 -71h9c40 2 57 23 57 70h100z" />
    <glyph glyph-name="Edotaccent" unicode="&#x116;" horiz-adv-x="632" 
d="M582 578v-1h-340v-155h300v-122h-300v-178h340v-122h-504v700h504v-122zM332 886c60 0 86 -22 86 -73s-26 -73 -87 -73c-60 0 -86 22 -86 73s26 73 87 73z" />
    <glyph glyph-name="edotaccent" unicode="&#x117;" horiz-adv-x="572" 
d="M176 201c9 -80 43 -115 110 -115c56 0 84 21 97 71h141c-22 -117 -93 -167 -238 -167c-181 0 -258 78 -258 260s77 260 258 260s258 -79 258 -263v-46h-368zM287 413c-69 0 -103 -37 -110 -123h220c0 87 -33 123 -110 123zM288 703h1c60 0 86 -25 86 -82
c0 -56 -26 -80 -87 -80c-60 0 -86 25 -86 81c0 57 26 81 86 81z" />
    <glyph glyph-name="Eogonek" unicode="&#x118;" horiz-adv-x="612" 
d="M455 0h-1h-377v700h504v-122h-340v-155h300v-122h-300v-178h340v-122h-51c-55 -48 -70 -119 -9 -119h6c21 1 41 12 41 12v-123s-30 -20 -70 -20c-6 0 -12 0 -17 1c-108 14 -127 161 -26 248z" />
    <glyph glyph-name="eogonek" unicode="&#x119;" horiz-adv-x="572" 
d="M292 -10h-2h-6c-181 0 -258 78 -258 260s77 260 258 260s258 -79 258 -263v-46h-368c9 -80 43 -115 110 -115c56 0 84 21 97 71h141c-17 -89 -62 -139 -146 -158c-54 -48 -68 -118 -7 -118h6c21 1 41 12 41 12v-123s-30 -20 -70 -20c-6 0 -12 0 -17 1
c-104 14 -125 151 -37 239zM284 413c-69 0 -103 -37 -110 -123h220c0 87 -33 123 -110 123z" />
    <glyph glyph-name="Ecaron" unicode="&#x11a;" horiz-adv-x="608" 
d="M582 578v-1h-340v-155h300v-122h-300v-178h340v-122h-504v700h504v-122zM481 869l-86 -120h-149l-86 120h102l59 -58l59 58h101z" />
    <glyph glyph-name="ecaron" unicode="&#x11b;" horiz-adv-x="572" 
d="M176 201c9 -80 43 -115 110 -115c56 0 84 21 97 71h141c-22 -117 -93 -167 -238 -167c-181 0 -258 78 -258 260s77 260 258 260s258 -79 258 -263v-46h-368zM287 413c-69 0 -103 -37 -110 -123h220c0 87 -33 123 -110 123zM444 700h1l-84 -150h-149l-84 150h93l65 -79
l65 79h93z" />
    <glyph glyph-name="Gbreve" unicode="&#x11e;" horiz-adv-x="776" 
d="M398 290h1v113h338v-54c0 -259 -101 -370 -338 -370c-251 0 -358 111 -358 370s107 370 358 370c196 0 294 -72 328 -240h-157c-19 77 -70 109 -171 109c-131 0 -186 -71 -186 -239s55 -239 185 -239c128 0 182 54 182 180h-181v-1zM565 869c0 -84 -50 -120 -166 -120
s-166 36 -166 120h108c0 -35 17 -49 58 -49s58 14 58 49h108z" />
    <glyph glyph-name="gbreve" unicode="&#x11f;" 
d="M246 -10v-1c-153 0 -218 78 -218 260s65 260 218 260c74 0 127 -18 163 -57l19 48h116v-450c0 -182 -78 -260 -259 -260c-149 0 -220 50 -238 167h141c11 -50 37 -71 89 -71c83 0 118 41 118 137v12c-35 -31 -84 -45 -149 -45zM287 104v1c77 0 109 43 109 146
s-32 146 -109 146s-109 -43 -109 -146s32 -147 109 -147zM458 699l1 1c0 -105 -50 -150 -166 -150s-166 45 -166 150h100c0 -50 19 -71 65 -71h9c40 2 57 23 57 70h100z" />
    <glyph glyph-name="Gdotaccent" unicode="&#x120;" horiz-adv-x="776" 
d="M398 290h1v113h338v-54c0 -259 -101 -370 -338 -370c-251 0 -358 111 -358 370s107 370 358 370c196 0 294 -72 328 -240h-157c-19 77 -70 109 -171 109c-131 0 -186 -71 -186 -239s55 -239 185 -239c128 0 182 54 182 180h-181v-1zM401 885c60 0 86 -22 86 -73
s-26 -73 -87 -73c-60 0 -86 22 -86 73s26 73 87 73z" />
    <glyph glyph-name="gdotaccent" unicode="&#x121;" 
d="M246 -10v-1c-153 0 -218 78 -218 260s65 260 218 260c74 0 127 -18 163 -57l19 48h116v-450c0 -182 -78 -260 -259 -260c-149 0 -220 50 -238 167h141c11 -50 37 -71 89 -71c83 0 118 41 118 137v12c-35 -31 -84 -45 -149 -45zM287 103v1c77 0 109 43 109 146
s-32 146 -109 146s-109 -43 -109 -146s32 -147 109 -147zM254 703h1c60 0 86 -25 86 -82c0 -56 -26 -80 -87 -80c-60 0 -86 25 -86 81c0 57 26 81 86 81z" />
    <glyph glyph-name="Gcedilla" unicode="&#x122;" horiz-adv-x="772" 
d="M396 290h1v113h338v-54c0 -259 -101 -370 -338 -370c-251 0 -358 111 -358 370s107 370 358 370c196 0 294 -72 328 -240h-157c-19 77 -70 109 -171 109c-131 0 -186 -71 -186 -239s55 -239 185 -239c128 0 182 54 182 180h-181v-1zM397 -43v1c36 0 55 -17 60 -56
c1 -9 2 -19 2 -30c-1 -80 -35 -114 -114 -114v54c32 0 46 13 46 43c-38 0 -55 14 -55 46v12c3 31 22 44 61 44z" />
    <glyph glyph-name="gcedilla" unicode="&#x123;" horiz-adv-x="574" 
d="M244 -10v-1c-153 0 -218 78 -218 260s65 260 218 260c74 0 127 -18 163 -57l19 48h116v-450c0 -182 -78 -260 -259 -260c-149 0 -220 50 -238 167h141c11 -50 37 -71 89 -71c83 0 118 41 118 137v12c-35 -31 -84 -45 -149 -45zM284 101v1c77 0 109 43 109 146
s-32 146 -109 146s-109 -43 -109 -146s32 -147 109 -147zM282 550v-1c-36 0 -55 17 -60 56c-1 9 -2 19 -2 30c1 80 35 114 114 114v-54c-32 0 -46 -13 -46 -43c38 0 55 -14 55 -46v-12c-3 -31 -22 -44 -61 -44z" />
    <glyph glyph-name="Itilde" unicode="&#x128;" horiz-adv-x="320" 
d="M78 700h165v-700h-165v700zM-5 760c0 70 46 109 102 109c86 0 100 -47 144 -47c14 0 26 12 26 29h60c0 -70 -46 -109 -102 -109c-86 0 -100 47 -144 47c-14 0 -26 -12 -26 -29h-60z" />
    <glyph glyph-name="itilde" unicode="&#x129;" horiz-adv-x="264" 
d="M206 0h-149v500h149v-500zM-35 579h-1c0 70 46 127 102 127c86 0 100 -76 136 -76c14 0 26 14 26 39h68c0 -70 -46 -127 -102 -127c-86 0 -100 76 -135 76c-14 0 -26 -14 -26 -39h-68z" />
    <glyph glyph-name="Imacron" unicode="&#x12a;" horiz-adv-x="320" 
d="M78 700h165v-700h-165v700zM-10 753v88h340v-88h-340z" />
    <glyph glyph-name="imacron" unicode="&#x12b;" horiz-adv-x="264" 
d="M207 0h-149v500h149v-500zM-38 553v88h340v-88h-340z" />
    <glyph glyph-name="Iogonek" unicode="&#x12e;" horiz-adv-x="320" 
d="M136 0l-1 1h-58v700h165v-700h-31c-55 -48 -70 -119 -9 -119h6c21 1 41 12 41 12v-123s-30 -20 -70 -20c-6 0 -12 0 -17 1c-108 14 -127 161 -26 248z" />
    <glyph glyph-name="iogonek" unicode="&#x12f;" horiz-adv-x="280" 
d="M107 0l-1 1h-42v500h149v-500h-31c-55 -48 -70 -119 -9 -119h6c21 1 41 12 41 12v-123s-30 -20 -70 -20c-6 0 -12 0 -17 1c-108 14 -127 161 -26 248zM135 728h1c60 0 86 -24 86 -81s-26 -81 -87 -81c-60 0 -86 24 -86 81s26 81 86 81z" />
    <glyph glyph-name="Idotaccent" unicode="&#x130;" horiz-adv-x="324" 
d="M78 700h165v-700h-165v700zM163 887c60 0 86 -22 86 -73s-26 -73 -87 -73c-60 0 -86 22 -86 73s26 73 87 73z" />
    <glyph glyph-name="dotlessi" unicode="&#x131;" horiz-adv-x="264" 
d="M206 0h-149v500h149v-500z" />
    <glyph glyph-name="IJ" unicode="&#x132;" horiz-adv-x="907" 
d="M78 700h165v-700h-165v700zM345 210h-2v36h157v-36c0 -70 24 -99 82 -99s82 29 82 99v490h165v-490c0 -155 -74 -221 -246 -221c-167 0 -238 66 -238 221z" />
    <glyph glyph-name="ij" unicode="&#x133;" horiz-adv-x="557" 
d="M214 0h-149v500h149v-500zM284 -66v1c40 0 62 23 62 57v509h149v-526c0 -96 -56 -155 -154 -155h-135v114h78zM136 729h1c60 0 86 -24 86 -81s-26 -81 -87 -81c-60 0 -86 24 -86 81s26 81 86 81zM422 729h1c60 0 86 -24 86 -81s-26 -81 -87 -81c-60 0 -86 24 -86 81
s26 81 86 81z" />
    <glyph glyph-name="Kcedilla" unicode="&#x136;" horiz-adv-x="704" 
d="M243 700v-273l237 273h199l-296 -340l316 -360h-199l-257 293v-293h-165v700h165zM345 -42v1c36 0 55 -17 60 -56c1 -9 2 -19 2 -30c-1 -80 -35 -114 -114 -114v54c32 0 46 13 46 43c-38 0 -55 14 -55 46v12c3 31 22 44 61 44z" />
    <glyph glyph-name="kcedilla" unicode="&#x137;" horiz-adv-x="575" 
d="M207 700v-393l174 193h175l-216 -240l236 -260h-175l-194 213v-213h-149v700h149zM287 -42v1c36 0 55 -17 60 -56c1 -9 2 -19 2 -30c-1 -80 -35 -114 -114 -114v54c32 0 46 13 46 43c-38 0 -55 14 -55 46v12c3 31 22 44 61 44z" />
    <glyph glyph-name="Lacute" unicode="&#x139;" horiz-adv-x="558" 
d="M542 131l-1 -131h-464v700h165v-569h300zM97 750l95 120h142l-119 -120h-118z" />
    <glyph glyph-name="lacute" unicode="&#x13a;" horiz-adv-x="289" 
d="M58 0v700h149v-700h-149zM68 750l95 120h142l-119 -120h-118z" />
    <glyph glyph-name="Lcedilla" unicode="&#x13b;" horiz-adv-x="558" 
d="M542 131l-1 -131h-464v700h165v-569h300zM309 -41v1c36 0 55 -17 60 -56c1 -9 2 -19 2 -30c-1 -80 -35 -114 -114 -114v54c32 0 46 13 46 43c-38 0 -55 14 -55 46v12c3 31 22 44 61 44z" />
    <glyph glyph-name="lcedilla" unicode="&#x13c;" horiz-adv-x="260" 
d="M56 0v700h149v-700h-149zM130 -41v1c36 0 55 -17 60 -56c1 -9 2 -19 2 -30c-1 -80 -35 -114 -114 -114v54c32 0 46 13 46 43c-38 0 -55 14 -55 46v12c3 31 22 44 61 44z" />
    <glyph glyph-name="Lcaron" unicode="&#x13d;" horiz-adv-x="562" 
d="M542 131l-1 -131h-464v700h165v-569h300zM346 709v1c36 0 55 -17 60 -56c1 -9 2 -19 2 -30c-1 -80 -35 -114 -114 -114v54c32 0 46 13 46 43c-38 0 -55 14 -55 46v12c3 31 22 44 61 44z" />
    <glyph glyph-name="lcaron" unicode="&#x13e;" horiz-adv-x="351" 
d="M58 0v700h149v-700h-149zM311 708v1c36 0 55 -17 60 -56c1 -9 2 -19 2 -30c-1 -80 -35 -114 -114 -114v54c32 0 46 13 46 43c-38 0 -55 14 -55 46v12c3 31 22 44 61 44z" />
    <glyph glyph-name="Lslash" unicode="&#x141;" horiz-adv-x="572" 
d="M556 131l-1 -131h-464v305l-92 -55v114l92 55v281h165v-183l193 115v-114l-193 -115v-272h300z" />
    <glyph glyph-name="lslash" unicode="&#x142;" horiz-adv-x="388" 
d="M28 266v114l92 55v265h149v-176l92 55v-114l-92 -55v-410h-149v321z" />
    <glyph glyph-name="Nacute" unicode="&#x143;" horiz-adv-x="768" 
d="M534 700h157v-700h-191l-265 484v-484h-157v700h191l265 -484v484zM315 750l95 120h142l-119 -120h-118z" />
    <glyph glyph-name="nacute" unicode="&#x144;" horiz-adv-x="582" 
d="M174 500v-1l18 -40c33 34 81 50 147 50c137 0 196 -72 196 -240v-270h-149v270c0 89 -26 127 -88 127c-65 0 -92 -38 -91 -126v-270h-149v500h116zM226 549l97 150h150l-129 -150h-118z" />
    <glyph glyph-name="Ncedilla" unicode="&#x145;" horiz-adv-x="764" 
d="M532 700h157v-700h-191l-265 484v-484h-157v700h191l265 -484v484zM383 -41v1c36 0 55 -17 60 -56c1 -9 2 -19 2 -30c-1 -80 -35 -114 -114 -114v54c32 0 46 13 46 43c-38 0 -55 14 -55 46v12c3 31 22 44 61 44z" />
    <glyph glyph-name="ncedilla" unicode="&#x146;" horiz-adv-x="578" 
d="M174 500v-1l18 -40c33 34 81 50 147 50c137 0 196 -72 196 -240v-270h-149v270c0 89 -26 127 -88 127c-65 0 -92 -38 -91 -126v-270h-149v500h116zM296 -42v1c36 0 55 -17 60 -56c1 -9 2 -19 2 -30c-1 -80 -35 -114 -114 -114v54c32 0 46 13 46 43c-38 0 -55 14 -55 46
v12c3 31 22 44 61 44z" />
    <glyph glyph-name="Ncaron" unicode="&#x147;" horiz-adv-x="768" 
d="M534 700h157v-700h-191l-265 484v-484h-157v700h191l265 -484v484zM536 870l-86 -120h-149l-86 120h102l59 -58l59 58h101z" />
    <glyph glyph-name="ncaron" unicode="&#x148;" horiz-adv-x="582" 
d="M174 500v-1l18 -40c33 34 81 50 147 50c137 0 196 -72 196 -240v-270h-149v270c0 89 -26 127 -88 127c-65 0 -92 -38 -91 -126v-270h-149v500h116zM454 699h1l-84 -150h-149l-84 150h93l65 -79l65 79h93z" />
    <glyph glyph-name="Omacron" unicode="&#x14c;" horiz-adv-x="796" 
d="M398 720c251 0 358 -111 358 -370s-107 -370 -358 -370s-358 111 -358 370s107 370 358 370zM398 589c-130 0 -185 -71 -185 -239s55 -239 185 -239s185 71 185 239s-55 239 -185 239zM228 753v88h340v-88h-340z" />
    <glyph glyph-name="omacron" unicode="&#x14d;" horiz-adv-x="592" 
d="M296 510c188 0 268 -78 268 -260s-80 -260 -268 -260s-268 78 -268 260s80 260 268 260zM177 250l-1 -1c0 -103 36 -147 120 -147s119 44 119 147s-35 147 -119 147s-119 -43 -119 -146zM126 553v88h340v-88h-340z" />
    <glyph glyph-name="Obreve" unicode="&#x14e;" horiz-adv-x="796" 
d="M398 720c251 0 358 -111 358 -370s-107 -370 -358 -370s-358 111 -358 370s107 370 358 370zM398 589c-130 0 -185 -71 -185 -239s55 -239 185 -239s185 71 185 239s-55 239 -185 239zM564 870c0 -84 -50 -120 -166 -120s-166 36 -166 120h108c0 -35 17 -49 58 -49
s58 14 58 49h108z" />
    <glyph glyph-name="obreve" unicode="&#x14f;" horiz-adv-x="592" 
d="M296 510c188 0 268 -78 268 -260s-80 -260 -268 -260s-268 78 -268 260s80 260 268 260zM177 251l-1 -1c0 -103 36 -147 120 -147s119 44 119 147s-35 147 -119 147s-119 -43 -119 -146zM462 700l1 1c0 -105 -50 -150 -166 -150s-166 45 -166 150h100
c0 -50 19 -71 65 -71h9c40 2 57 23 57 70h100z" />
    <glyph glyph-name="Ohungarumlaut" unicode="&#x150;" horiz-adv-x="796" 
d="M398 720c251 0 358 -111 358 -370s-107 -370 -358 -370s-358 111 -358 370s107 370 358 370zM397 589c-130 0 -185 -71 -185 -239s55 -239 185 -239s185 71 185 239s-55 239 -185 239zM238 750l86 150h142l-119 -150h-109zM446 750h-1l87 150h142l-119 -150h-109z" />
    <glyph glyph-name="ohungarumlaut" unicode="&#x151;" horiz-adv-x="608" 
d="M296 510c188 0 268 -78 268 -260s-80 -260 -268 -260s-268 78 -268 260s80 260 268 260zM175 250l-1 -1c0 -103 36 -147 120 -147s119 44 119 147s-35 147 -119 147s-119 -43 -119 -146zM136 550l86 150h142l-119 -150h-109zM344 550h-1l87 150h142l-119 -150h-109z" />
    <glyph glyph-name="OE" unicode="&#x152;" horiz-adv-x="1098" 
d="M1072 578l-1 -1h-324v-155h284v-122h-284v-178h324v-122h-472v75c-43 -63 -110 -93 -205 -95c-23 0 -46 1 -68 3c-200 17 -286 130 -286 367c0 259 103 370 343 370c101 0 172 -30 217 -96v76h472v-122zM397 588c-130 0 -185 -71 -185 -239s55 -239 185 -239
s185 71 185 239s-55 239 -185 239z" />
    <glyph glyph-name="oe" unicode="&#x153;" horiz-adv-x="944" 
d="M548.35 201c7.46973 -60.7002 32.9102 -112 109.65 -112c50 0 85 26 97 70h141c-20 -102 -112 -167 -238 -167c-74 0 -131 21 -171 59c-38 -41 -99 -60 -191 -60c-188 0 -268 78 -268 260s80 260 268 260c92 0 153 -19 191 -60c40 38 97 59 171 59
c160 0 258 -100 258 -263v-46h-367.65zM176 252l-1 -1c0 -103 36 -147 120 -147s119 44 119 147s-35 147 -119 147s-119 -43 -119 -146zM656 414l0.480469 0.0117188c-80.5898 -0.240234 -104.5 -57.1406 -110.49 -124.001h220c0 78.8096 -39.8096 123.779 -109.5 123.989
h0.509766h-1z" />
    <glyph glyph-name="Racute" unicode="&#x154;" horiz-adv-x="716" 
d="M367 254h-123v-254h-165v700h320c191 0 268 -103 268 -227c0 -98 -43 -171 -143 -202l156 -271h-173zM245 368h147c76 0 111 42 111 105s-35 105 -111 105h-147v-210zM268 750l95 120h142l-119 -120h-118z" />
    <glyph glyph-name="racute" unicode="&#x155;" horiz-adv-x="413" 
d="M207 250l1 1v-250h-149v500h116l21 -46c30 37 71 56 119 56h72v-131h-72c-83 0 -108 -28 -108 -130zM150 551l97 150h150l-129 -150h-118z" />
    <glyph glyph-name="Rcedilla" unicode="&#x156;" horiz-adv-x="728" 
d="M365 254h-123v-254h-165v700h320c191 0 268 -103 268 -227c0 -98 -43 -171 -143 -202l156 -271h-173zM242 369h147c76 0 111 42 111 105s-35 105 -111 105h-147v-210zM358 -42v1c36 0 55 -17 60 -56c1 -9 2 -19 2 -30c-1 -80 -35 -114 -114 -114v54c32 0 46 13 46 43
c-38 0 -55 14 -55 46v12c3 31 22 44 61 44z" />
    <glyph glyph-name="rcedilla" unicode="&#x157;" horiz-adv-x="405" 
d="M207 250l1 1v-250h-149v500h116l21 -46c30 37 71 56 119 56h72v-131h-72c-83 0 -108 -28 -108 -130zM132 -41v1c36 0 55 -17 60 -56c1 -9 2 -19 2 -30c-1 -80 -35 -114 -114 -114v54c32 0 46 13 46 43c-38 0 -55 14 -55 46v12c3 31 22 44 61 44z" />
    <glyph glyph-name="Rcaron" unicode="&#x158;" horiz-adv-x="716" 
d="M361 254l1 1h-118v-254h-165v700h320c192 0 268 -109 268 -228c0 -95 -44 -172 -149 -204l163 -269h-173zM243 370h155c78 0 104 49 104 105c0 57 -26 104 -104 104h-155v-209zM489 871l-86 -120h-149l-86 120h102l59 -58l59 58h101z" />
    <glyph glyph-name="rcaron" unicode="&#x159;" horiz-adv-x="405" 
d="M207 250l1 1v-250h-149v500h116l21 -46c30 37 71 56 119 56h72v-131h-72c-83 0 -108 -28 -108 -130zM378 701h1l-84 -150h-149l-84 150h93l65 -79l65 79h93z" />
    <glyph glyph-name="Sacute" unicode="&#x15a;" horiz-adv-x="656" 
d="M206 520v-2c0 -128 410 -46 410 -315c0 -158 -86 -226 -288 -226s-288 66 -288 220h149c0 -75 41 -106 139 -106c93 0 132 26 132 87c0 155 -410 65 -410 315c0 158 83 226 278 226s278 -66 278 -220h-149c0 75 -38 107 -129 107c-86 0 -122 -25 -122 -86zM257 748
l95 120h142l-119 -120h-118z" />
    <glyph glyph-name="sacute" unicode="&#x15b;" horiz-adv-x="504" 
d="M170 371h3c0 -93 306 -16 306 -216c0 -116 -70 -166 -233 -166c-151 0 -216 48 -216 160h141c0 -51 23 -72 79 -72s79 18 79 61c0 103 -298 17 -298 216c0 109 65 156 218 156c147 0 210 -45 210 -150h-133c0 44 -23 62 -78 62s-78 -15 -78 -51zM181 550l97 150h150
l-129 -150h-118z" />
    <glyph glyph-name="Scircumflex" unicode="&#x15c;" horiz-adv-x="656" 
d="M206 520v-2c0 -128 410 -46 410 -315c0 -158 -86 -226 -288 -226s-288 66 -288 220h149c0 -75 41 -106 139 -106c93 0 132 26 132 87c0 155 -410 65 -410 315c0 158 83 226 278 226s278 -66 278 -220h-149c0 75 -38 107 -129 107c-86 0 -122 -25 -122 -86zM402 868h1
l86 -120h-102l-59 58l-59 -58h-102l86 120h149z" />
    <glyph glyph-name="scircumflex" unicode="&#x15d;" horiz-adv-x="504" 
d="M170 371h3c0 -93 306 -16 306 -216c0 -116 -70 -166 -233 -166c-151 0 -216 48 -216 160h141c0 -51 23 -72 79 -72s79 18 79 61c0 103 -298 17 -298 216c0 109 65 156 218 156c147 0 210 -45 210 -150h-133c0 44 -23 62 -78 62s-78 -15 -78 -51zM325 700l83 -150h-93
l-65 79l-65 -79h-93l84 150h149z" />
    <glyph glyph-name="Scedilla" unicode="&#x15e;" horiz-adv-x="656" 
d="M278.48 -20.9102c-165.92 10.3096 -237.48 77.3398 -237.48 217.91h149c0 -75 41 -106 139 -106c93 0 132 26 132 87c0 155 -410 65 -410 315c0 158 83 226 278 226s278 -66 278 -220h-149c0 75 -38 107 -129 107c-86 0 -122 -25 -122 -86c0 -128 410 -46 410 -315
c0 -150 -78 -219 -259 -226l-8 -31s94 -18 94 -89c0 -69 -76 -110 -206 -110v63c62 0 98 13 98 48c0 26 -42 36 -80 36z" />
    <glyph glyph-name="scedilla" unicode="&#x15f;" horiz-adv-x="504" 
d="M201.51 -10.8096c-119.23 9.49023 -171.5 58.5098 -171.5 158.81h141c0 -51 23 -72 79 -72s79 18 79 61c0 103 -298 17 -298 216c0 109 65 156 218 156c147 0 210 -45 210 -150h-133c0 44 -23 62 -78 62s-78 -15 -78 -51c0 -93 306 -16 306 -216
c0 -107 -59 -158 -196 -165l-10 -41s94 -18 94 -89c0 -69 -76 -110 -206 -110v63c62 0 98 13 98 48c0 26 -42 36 -80 36z" />
    <glyph glyph-name="Scaron" unicode="&#x160;" horiz-adv-x="656" 
d="M206 520v-2c0 -128 410 -46 410 -315c0 -158 -86 -226 -288 -226s-288 66 -288 220h149c0 -75 41 -106 139 -106c93 0 132 26 132 87c0 155 -410 65 -410 315c0 158 83 226 278 226s278 -66 278 -220h-149c0 75 -38 107 -129 107c-86 0 -122 -25 -122 -86zM479 868
l-86 -120h-149l-86 120h102l59 -58l59 58h101z" />
    <glyph glyph-name="scaron" unicode="&#x161;" horiz-adv-x="504" 
d="M170 371h3c0 -93 306 -16 306 -216c0 -116 -70 -166 -233 -166c-151 0 -216 48 -216 160h141c0 -51 23 -72 79 -72s79 18 79 61c0 103 -298 17 -298 216c0 109 65 156 218 156c147 0 210 -45 210 -150h-133c0 44 -23 62 -78 62s-78 -15 -78 -51zM409 700h1l-84 -150h-149
l-84 150h93l65 -79l65 79h93z" />
    <glyph glyph-name="Tcedilla" unicode="&#x162;" horiz-adv-x="608" 
d="M260.44 -2h-37.4404v561h-206v139h576v-139h-206v-561h-48l-13 -50s94 -18 94 -89c0 -69 -76 -110 -206 -110v63c62 0 98 13 98 48c0 26 -42 36 -80 36z" />
    <glyph glyph-name="tcedilla" unicode="&#x163;" horiz-adv-x="415" 
d="M199.49 4.12988c-66.6797 17.1396 -103.49 70.0703 -103.49 147.87v249h-80v97h80v127h149v-127h144v-97h-144v-232c0 -34 22 -57 62 -57h82v-114h-112l-13 -50s94 -18 94 -89c0 -69 -76 -110 -206 -110v63c62 0 98 13 98 48c0 26 -42 36 -80 36z" />
    <glyph glyph-name="Tcaron" unicode="&#x164;" horiz-adv-x="608" 
d="M592 700h1v-139h-206v-561h-165v561h-206v139h576zM456 870l-86 -120h-149l-86 120h102l59 -58l59 58h101z" />
    <glyph glyph-name="tcaron" unicode="&#x165;" horiz-adv-x="429" 
d="M245 171l-1 -1c0 -34 22 -57 62 -57h82v-114h-138c-98 0 -154 59 -154 155v249h-80v97h80v127h149v-127h144v-97h-144v-232zM340 723v2c36 0 55 -17 60 -56c1 -9 2 -19 2 -30c-1 -81 -35 -116 -114 -116v54c32 0 46 13 46 44c-38 0 -55 14 -55 46v12c3 31 22 44 61 44z
" />
    <glyph glyph-name="Utilde" unicode="&#x168;" horiz-adv-x="732" 
d="M68 259l-2 441h165v-441c0 -104 40 -148 134 -148s134 44 134 148v441h165v-441c0 -195 -89 -279 -298 -279s-298 84 -298 279zM198 760c0 70 46 109 102 109c86 0 100 -47 144 -47c14 0 26 12 26 29h60c0 -70 -46 -109 -102 -109c-86 0 -100 47 -144 47
c-14 0 -26 -12 -26 -29h-60z" />
    <glyph glyph-name="utilde" unicode="&#x169;" horiz-adv-x="582" 
d="M408 0h-1l-18 40c-32 -34 -80 -50 -146 -50c-137 0 -196 72 -196 240v270h149v-270c0 -89 26 -127 88 -127c65 1 92 39 91 127v270h149v-500h-116zM119 600h-1c0 70 46 127 102 127c86 0 100 -76 136 -76c14 0 26 14 26 39h68c0 -70 -46 -127 -102 -127
c-86 0 -100 76 -135 76c-14 0 -26 -14 -26 -39h-68z" />
    <glyph glyph-name="Umacron" unicode="&#x16a;" horiz-adv-x="732" 
d="M68 259l-2 441h165v-441c0 -104 40 -148 134 -148s134 44 134 148v441h165v-441c0 -195 -89 -279 -298 -279s-298 84 -298 279zM194 753v88h340v-88h-340z" />
    <glyph glyph-name="umacron" unicode="&#x16b;" horiz-adv-x="582" 
d="M408 0h-1l-18 40c-32 -34 -80 -50 -146 -50c-137 0 -196 72 -196 240v270h149v-270c0 -89 26 -127 88 -127c65 1 92 39 91 127v270h149v-500h-116zM105 553v88h340v-88h-340z" />
    <glyph glyph-name="Ubreve" unicode="&#x16c;" horiz-adv-x="732" 
d="M68 259l-2 441h165v-441c0 -104 40 -148 134 -148s134 44 134 148v441h165v-441c0 -195 -89 -279 -298 -279s-298 84 -298 279zM530 870c0 -84 -50 -120 -166 -120s-166 36 -166 120h108c0 -35 17 -49 58 -49s58 14 58 49h108z" />
    <glyph glyph-name="ubreve" unicode="&#x16d;" horiz-adv-x="582" 
d="M408 0h-1l-18 40c-32 -34 -80 -50 -146 -50c-137 0 -196 72 -196 240v270h149v-270c0 -89 26 -127 88 -127c65 1 92 39 91 127v270h149v-500h-116zM441 700l1 1c0 -105 -50 -150 -166 -150s-166 45 -166 150h100c0 -50 19 -71 65 -71h9c40 2 57 23 57 70h100z" />
    <glyph glyph-name="Uring" unicode="&#x16e;" horiz-adv-x="732" 
d="M68 259l-2 441h165v-441c0 -104 40 -148 134 -148s134 44 134 148v441h165v-441c0 -195 -89 -279 -298 -279s-298 84 -298 279zM364 904c87 0 124 -32 124 -107s-37 -107 -124 -107s-124 32 -124 107s37 107 124 107zM364 753h1c34 0 47 13 47 45c0 31 -14 44 -48 44
s-48 -13 -48 -45c0 -31 14 -44 48 -44z" />
    <glyph glyph-name="uring" unicode="&#x16f;" horiz-adv-x="582" 
d="M408 0h-1l-18 40c-32 -34 -80 -50 -146 -50c-137 0 -196 72 -196 240v270h149v-270c0 -89 26 -127 88 -127c65 1 92 39 91 127v270h149v-500h-116zM275 743c87 0 124 -32 124 -107s-37 -107 -124 -107s-124 32 -124 107s37 107 124 107zM275 592h1c34 0 47 13 47 45
c0 31 -14 44 -48 44s-48 -13 -48 -45c0 -31 14 -44 48 -44z" />
    <glyph glyph-name="Uhungarumlaut" unicode="&#x170;" horiz-adv-x="732" 
d="M68 259l-2 441h165v-441c0 -104 40 -148 134 -148s134 44 134 148v441h165v-441c0 -195 -89 -279 -298 -279s-298 84 -298 279zM204 750l86 150h142l-119 -150h-109zM412 750h-1l87 150h142l-119 -150h-109z" />
    <glyph glyph-name="uhungarumlaut" unicode="&#x171;" horiz-adv-x="582" 
d="M408 0h-1l-18 40c-32 -34 -80 -50 -146 -50c-137 0 -196 72 -196 240v270h149v-270c0 -89 26 -127 88 -127c65 1 92 39 91 127v270h149v-500h-116zM115 550l86 150h142l-119 -150h-109zM323 550h-1l87 150h142l-119 -150h-109z" />
    <glyph glyph-name="Uogonek" unicode="&#x172;" horiz-adv-x="732" 
d="M406 -19h-2c-13 -1 -26 -1 -40 -1c-209 0 -298 84 -298 279v441h165v-441c0 -104 40 -148 134 -148s134 44 134 148v441h165v-441c0 -149 -52 -233 -169 -264c-50 -48 -62 -114 -3 -114h6c21 1 41 12 41 12v-123s-30 -20 -70 -20c-6 0 -12 0 -17 1
c-101 13 -124 142 -46 230z" />
    <glyph glyph-name="uogonek" unicode="&#x173;" horiz-adv-x="582" 
d="M407 1h-2l-17 39c-32 -34 -80 -50 -146 -50c-137 0 -196 72 -196 240v270h149v-270c0 -89 26 -127 88 -127c65 1 92 39 91 127v270h149v-500h-43c-55 -48 -70 -119 -9 -119h6c21 1 41 12 41 12v-123s-30 -20 -70 -20c-6 0 -12 0 -17 1c-109 14 -127 163 -24 250z" />
    <glyph glyph-name="Wcircumflex" unicode="&#x174;" horiz-adv-x="1001" 
d="M401 700h2h197l103 -542l119 542h165l-171 -700h-214l-108 538l-95 -538h-214l-171 700h165l119 -541zM572 870h1l86 -120h-102l-59 58l-59 -58h-102l86 120h149z" />
    <glyph glyph-name="wcircumflex" unicode="&#x175;" horiz-adv-x="841" 
d="M685 0h-181l-83 393l-83 -393h-181h-1l-148 500h149l96 -381l81 381h181l74 -379l95 379h149zM497 700l83 -150h-93l-65 79l-65 -79h-93l84 150h149z" />
    <glyph glyph-name="Ycircumflex" unicode="&#x176;" horiz-adv-x="665" 
d="M415 266h1v-266h-157v266l-248 434h181l145 -279l145 279h173zM414 870h1l86 -120h-102l-59 58l-59 -58h-102l86 120h149z" />
    <glyph glyph-name="ycircumflex" unicode="&#x177;" horiz-adv-x="516" 
d="M212 1v1l4 11l-216 487h141l132 -311l102 311h141l-169 -484c-9 -25 -17 -47 -25 -66c-39 -92 -94 -131 -184 -131h-72v97h64h6c33 2 50 9 76 85zM341 700l83 -150h-93l-65 79l-65 -79h-93l84 150h149z" />
    <glyph glyph-name="Ydieresis" unicode="&#x178;" horiz-adv-x="664" 
d="M408 266h1v-266h-157v266l-248 434h181l145 -279l145 279h173zM218 878c60 0 86 -22 86 -73s-26 -73 -87 -73c-60 0 -86 22 -86 73s26 73 87 73zM451 878c60 0 86 -22 86 -73s-26 -73 -87 -73c-60 0 -86 22 -86 73s26 73 87 73z" />
    <glyph glyph-name="Zacute" unicode="&#x179;" horiz-adv-x="592" 
d="M205 122h374v-122h-564v104l364 474h-354v122h544v-104zM219 750l95 120h142l-119 -120h-118z" />
    <glyph glyph-name="zacute" unicode="&#x17a;" horiz-adv-x="476" 
d="M191 105h270v-105h-444v87l260 308h-250v105h424v-87zM169 550l97 150h150l-129 -150h-118z" />
    <glyph glyph-name="Zdotaccent" unicode="&#x17b;" horiz-adv-x="608" 
d="M213 122h374v-122h-564v104l364 474h-354v122h544v-104zM307 886c60 0 86 -22 86 -73s-26 -73 -87 -73c-60 0 -86 22 -86 73s26 73 87 73z" />
    <glyph glyph-name="zdotaccent" unicode="&#x17c;" horiz-adv-x="476" 
d="M191 105h270v-105h-444v87l260 308h-250v105h424v-87zM241 704h1c60 0 86 -25 86 -82c0 -56 -26 -80 -87 -80c-60 0 -86 25 -86 81c0 57 26 81 86 81z" />
    <glyph glyph-name="Zcaron" unicode="&#x17d;" horiz-adv-x="592" 
d="M205 122h374v-122h-564v104l364 474h-354v122h544v-104zM448 870l-86 -120h-149l-86 120h102l59 -58l59 58h101z" />
    <glyph glyph-name="zcaron" unicode="&#x17e;" horiz-adv-x="476" 
d="M191 105h270v-105h-444v87l260 308h-250v105h424v-87zM397 700h1l-84 -150h-149l-84 150h93l65 -79l65 79h93z" />
    <glyph glyph-name="Aacutering" unicode="&#x1fa;" horiz-adv-x="696" 
d="M12 0l231 700h72h68h88l214 -700h-173l-40 140h-254l-41 -140h-165zM254 254h188l-92 327zM413 896h1c38 -13 60 -40 60 -80c0 -59 -48 -89 -124 -89s-124 30 -124 89c0 57 45 87 117 89l39 55h94zM350 782c34 0 56 11 56 34s-22 34 -56 34s-56 -11 -56 -34
s22 -34 56 -34z" />
    <glyph glyph-name="aacutering" unicode="&#x1fb;" horiz-adv-x="552" 
d="M370 42h-1c-32 -36 -83 -52 -154 -52c-132 0 -188 48 -188 159c0 119 73 170 243 170h86v21c0 58 -25 82 -84 82s-83 -21 -83 -72h-141c0 112 68 160 228 160c159 0 228 -56 228 -187v-323h-116zM175 157l1 1c0 -46 23 -62 79 -62c65 0 95 28 99 93v18v24h-65h-17
c-68 -2 -97 -22 -97 -74zM362 702c24 -17 37 -43 37 -75c0 -60 -46 -98 -124 -98s-124 38 -124 98s46 98 124 98h15l49 55h110zM276 592c36 0 48 11 48 36s-12 36 -48 36s-48 -11 -48 -36s12 -36 48 -36z" />
    <glyph glyph-name="AEacute" unicode="&#x1fc;" horiz-adv-x="940" 
d="M914 578v-1h-306v-155h266v-122h-266v-178h306v-122h-454v140h-216l-67 -140h-165l350 700l96 -1v1h456v-122zM460 593l-162 -340h162v340zM476 749l95 120h142l-119 -120h-118z" />
    <glyph glyph-name="aeacute" unicode="&#x1fd;" horiz-adv-x="900" 
d="M505.1 201c8.17969 -79.29 42.1807 -114 109.9 -114c56 0 84 21 98 71h141c-22 -117 -93 -167 -238 -167c-101 0 -164 34 -195 111c-26 -77 -91 -111 -203 -111c-131 0 -188 48 -188 159c0 113 65 165 216 170h31h80v21v5c-2 48 -28 68 -87 68c-57 0 -80 -18 -80 -63
h-141c0 112 68 160 228 160c83 0 137 -21 167 -67c35 45 91 66 170 66c181 0 258 -79 258 -263v-46h-366.9zM357.001 231l-1 -1h-70c-77 0 -109 -22 -109 -74v-4c2 -40 26 -57 80 -57h7c66 1 93 32 93 102v34zM614.001 413h0.520508
c-68.6797 -0.169922 -102.54 -37.2002 -110.521 -123h220c0 86.7998 -32.8496 122.83 -109.47 123h0.469727h-1zM376.991 551l97 150h150l-129 -150h-118z" />
    <glyph glyph-name="Oslashacute" unicode="&#x1fe;" horiz-adv-x="796" 
d="M504 780h98l-30 -86c126 -46 182 -156 182 -343c0 -259 -107 -370 -358 -370c-25 0 -49 1 -71 3l-22 -63h-101l29 82c-133 44 -192 155 -192 347c0 259 107 370 358 370c30 0 58 -2 84 -5zM432.72 586.21c-11.6396 1.86035 -24.21 2.79004 -37.7197 2.79004
c-130 0 -185 -71 -185 -239c0 -104 21 -171 68 -207zM369 111h1c9 -1 18 -1 27 -1c130 0 185 71 185 239c0 98 -19 163 -60 200zM301 750l95 120h142l-119 -120h-118z" />
    <glyph glyph-name="oslashacute" unicode="&#x1ff;" horiz-adv-x="592" 
d="M296 510v1c19 0 37 -1 54 -3l22 62h68l-26 -74c104 -30 150 -108 150 -246c0 -182 -80 -260 -268 -260c-19 0 -37 1 -54 3l-21 -62h-69l25 74c-103 30 -149 108 -149 245c0 182 80 260 268 260zM177 251h-1c0 -62 13 -103 42 -125l93 271h-15c-84 0 -119 -43 -119 -146z
M373 377l-93 -273h16c84 0 119 44 119 147c0 63 -13 104 -42 126zM194 551l97 150h150l-129 -150h-118z" />
    <glyph glyph-name="Scommaaccent" unicode="&#x218;" horiz-adv-x="656" 
d="M206 520v-2c0 -128 410 -46 410 -315c0 -158 -86 -226 -288 -226s-288 66 -288 220h149c0 -75 41 -106 139 -106c93 0 132 26 132 87c0 155 -410 65 -410 315c0 158 83 226 278 226s278 -66 278 -220h-149c0 75 -38 107 -129 107c-86 0 -122 -25 -122 -86zM328 -44v1
c36 0 55 -17 60 -56c1 -9 2 -19 2 -30c-1 -80 -35 -114 -114 -114v54c32 0 46 13 46 43c-38 0 -55 14 -55 46v12c3 31 22 44 61 44z" />
    <glyph glyph-name="scommaaccent" unicode="&#x219;" horiz-adv-x="500" 
d="M168 371h3c0 -93 306 -16 306 -216c0 -116 -70 -166 -233 -166c-151 0 -216 48 -216 160h141c0 -51 23 -72 79 -72s79 18 79 61c0 103 -298 17 -298 216c0 109 65 156 218 156c147 0 210 -45 210 -150h-133c0 44 -23 62 -78 62s-78 -15 -78 -51zM249 -42v1
c36 0 55 -17 60 -56c1 -9 2 -19 2 -30c-1 -80 -35 -114 -114 -114v54c32 0 46 13 46 43c-38 0 -55 14 -55 46v12c3 31 22 44 61 44z" />
    <glyph glyph-name="uni021A" unicode="&#x21a;" horiz-adv-x="608" 
d="M592 700h1v-139h-206v-561h-165v561h-206v139h576zM305 -41v1c36 0 55 -17 60 -56c1 -9 2 -19 2 -30c-1 -80 -35 -114 -114 -114v54c32 0 46 13 46 43c-38 0 -55 14 -55 46v12c3 31 22 44 61 44z" />
    <glyph glyph-name="uni021B" unicode="&#x21b;" horiz-adv-x="414" 
d="M245 171l-1 -1c0 -34 22 -57 62 -57h82v-114h-138c-98 0 -154 59 -154 155v249h-80v97h80v127h149v-127h144v-97h-144v-232zM226 -43v1c36 0 55 -17 60 -56c1 -9 2 -19 2 -30c-1 -80 -35 -114 -114 -114v54c32 0 46 13 46 43c-38 0 -55 14 -55 46v12c3 31 22 44 61 44z
" />
    <glyph glyph-name="circumflex" unicode="&#x2c6;" horiz-adv-x="372" 
d="M260 700l83 -150h-93l-65 79l-65 -79h-93l84 150h149z" />
    <glyph glyph-name="caron" unicode="&#x2c7;" horiz-adv-x="372" 
d="M344 700h1l-84 -150h-149l-84 150h93l65 -79l65 79h93z" />
    <glyph glyph-name="breve" unicode="&#x2d8;" horiz-adv-x="388" 
d="M360 700l1 1c0 -105 -50 -150 -166 -150s-166 45 -166 150h100c0 -50 19 -71 65 -71h9c40 2 57 23 57 70h100z" />
    <glyph glyph-name="dotaccent" unicode="&#x2d9;" horiz-adv-x="228" 
d="M114 726h1c60 0 86 -25 86 -82c0 -56 -26 -80 -87 -80c-60 0 -86 25 -86 81c0 57 26 81 86 81z" />
    <glyph glyph-name="ring" unicode="&#x2da;" horiz-adv-x="304" 
d="M152 727c87 0 124 -32 124 -107s-37 -107 -124 -107s-124 32 -124 107s37 107 124 107zM152 576h1c34 0 47 13 47 45c0 31 -14 44 -48 44s-48 -13 -48 -45c0 -31 14 -44 48 -44z" />
    <glyph glyph-name="ogonek" unicode="&#x2db;" horiz-adv-x="235" 
d="M117 17v1h76c-73 -46 -101 -136 -32 -136h6c21 1 41 12 41 12v-123s-30 -20 -70 -20c-6 0 -12 0 -17 1c-116 15 -129 182 -4 265z" />
    <glyph glyph-name="tilde" unicode="&#x2dc;" horiz-adv-x="388" 
d="M28 600h-1c0 70 46 127 102 127c86 0 100 -76 136 -76c14 0 26 14 26 39h68c0 -70 -46 -127 -102 -127c-86 0 -100 76 -135 76c-14 0 -26 -14 -26 -39h-68z" />
    <glyph glyph-name="hungarumlaut" unicode="&#x2dd;" horiz-adv-x="492" 
d="M28 550l86 150h142l-119 -150h-109zM236 550h-1l87 150h142l-119 -150h-109z" />
    <glyph glyph-name="Wgrave" unicode="&#x1e80;" horiz-adv-x="1000" 
d="M401 700h2h197l103 -542l119 542h165l-171 -700h-214l-108 538l-95 -538h-214l-171 700h165l119 -541zM465 870l103 -120h-110l-127 120h134z" />
    <glyph glyph-name="wgrave" unicode="&#x1e81;" horiz-adv-x="841" 
d="M685 0h-181l-83 393l-83 -393h-181h-1l-148 500h149l96 -381l81 381h181l74 -379l95 379h149zM396 700l96 -150h-117l-129 150h150z" />
    <glyph glyph-name="Wacute" unicode="&#x1e82;" horiz-adv-x="1000" 
d="M401 700h2h197l103 -542l119 542h165l-171 -700h-214l-108 538l-95 -538h-214l-171 700h165l119 -541zM428 750l95 120h142l-119 -120h-118z" />
    <glyph glyph-name="wacute" unicode="&#x1e83;" horiz-adv-x="841" 
d="M685 0h-181l-83 393l-83 -393h-181h-1l-148 500h149l96 -381l81 381h181l74 -379l95 379h149zM344 550l97 150h150l-129 -150h-118z" />
    <glyph glyph-name="Wdieresis" unicode="&#x1e84;" horiz-adv-x="996" 
d="M399 700h2h197l103 -542l119 542h165l-171 -700h-214l-108 538l-95 -538h-214l-171 700h165l119 -541zM381 878c60 0 86 -22 86 -73s-26 -73 -87 -73c-60 0 -86 22 -86 73s26 73 87 73zM614 878c60 0 86 -22 86 -73s-26 -73 -87 -73c-60 0 -86 22 -86 73s26 73 87 73z
" />
    <glyph glyph-name="wdieresis" unicode="&#x1e85;" horiz-adv-x="841" 
d="M685 0h-181l-83 393l-83 -393h-181h-1l-148 500h149l96 -381l81 381h181l74 -379l95 379h149zM314 695h1c60 0 86 -26 86 -86c0 -59 -26 -85 -87 -85c-60 0 -86 25 -86 85s26 86 86 86zM531 695h1c60 0 86 -26 86 -86c0 -59 -26 -85 -87 -85c-60 0 -86 25 -86 85
s26 86 86 86z" />
    <glyph glyph-name="uni1E9E" unicode="&#x1e9e;" horiz-adv-x="662" 
d="M332 720v3c182 0 260 -57 260 -190c0 -72 -35 -111 -109 -138c98 -29 140 -84 140 -184c0 -146 -63 -209 -210 -209c-58 0 -108 20 -108 20v105s36 -11 68 -11c71 0 102 31 102 103c0 80 -44 113 -150 113v107c89 0 127 24 127 80c0 61 -33 89 -112 88
c-87 -1 -123 -38 -123 -124v-483h-149v482c0 167 79 238 264 238z" />
    <glyph glyph-name="Ygrave" unicode="&#x1ef2;" horiz-adv-x="665" 
d="M415 266h1v-266h-157v266l-248 434h181l145 -279l145 279h173zM307 870l103 -120h-110l-127 120h134z" />
    <glyph glyph-name="ygrave" unicode="&#x1ef3;" horiz-adv-x="516" 
d="M212 1v1l4 11l-216 487h141l132 -311l102 311h141l-169 -484c-9 -25 -17 -47 -25 -66c-39 -92 -94 -131 -184 -131h-72v97h64h6c33 2 50 9 76 85zM240 700l96 -150h-117l-129 150h150z" />
    <glyph glyph-name="endash" unicode="&#x2013;" horiz-adv-x="576" 
d="M548 323v-114h-520v114h520z" />
    <glyph glyph-name="emdash" unicode="&#x2014;" horiz-adv-x="796" 
d="M768 323v-114h-740v114h740z" />
    <glyph glyph-name="quoteleft" unicode="&#x2018;" horiz-adv-x="276" 
d="M146 364l1 1c-55 0 -84 27 -92 89c-2 14 -3 30 -3 47c0 140 49 200 162 200v-71c-49 0 -70 -29 -70 -96c55 0 79 -25 80 -84c0 -7 0 -14 -1 -20c-5 -46 -29 -66 -77 -66z" />
    <glyph glyph-name="quoteright" unicode="&#x2019;" horiz-adv-x="276" 
d="M130 707l-2 -1c55 0 84 -27 92 -89c2 -14 3 -30 3 -47c0 -140 -49 -200 -162 -200v71c49 0 70 29 70 96c-55 0 -79 25 -79 84c0 7 0 14 1 20c5 46 29 66 77 66z" />
    <glyph glyph-name="quotesinglbase" unicode="&#x201a;" horiz-adv-x="228" 
d="M106 161l-2 -1c55 0 84 -27 92 -89c2 -14 3 -30 3 -47c0 -140 -49 -200 -162 -200v71c49 0 70 29 70 96c-55 0 -79 25 -79 84c0 7 0 14 1 20c5 46 29 66 77 66z" />
    <glyph glyph-name="quotedblleft" unicode="&#x201c;" horiz-adv-x="507" 
d="M146 364l1 1c-55 0 -84 27 -92 89c-2 14 -3 30 -3 47c0 140 49 200 162 200v-71c-49 0 -70 -29 -70 -96c55 0 79 -25 80 -84c0 -7 0 -14 -1 -20c-5 -46 -29 -66 -77 -66zM378 365l1 1c-55 0 -84 27 -92 89c-2 14 -3 30 -3 47c0 140 49 200 162 200v-71
c-49 0 -70 -29 -70 -96c55 0 79 -25 80 -84c0 -7 0 -14 -1 -20c-5 -46 -29 -66 -77 -66z" />
    <glyph glyph-name="quotedblright" unicode="&#x201d;" horiz-adv-x="507" 
d="M130 707l-2 -1c55 0 84 -27 92 -89c2 -14 3 -30 3 -47c0 -140 -49 -200 -162 -200v71c49 0 70 29 70 96c-55 0 -79 25 -79 84c0 7 0 14 1 20c5 46 29 66 77 66zM359 706l-2 -1c55 0 84 -27 92 -89c2 -14 3 -30 3 -47c0 -140 -49 -200 -162 -200v71c49 0 70 29 70 96
c-55 0 -79 25 -79 84c0 7 0 14 1 20c5 46 29 66 77 66z" />
    <glyph glyph-name="quotedblbase" unicode="&#x201e;" horiz-adv-x="507" 
d="M130 161l-2 -1c55 0 84 -27 92 -89c2 -14 3 -30 3 -47c0 -140 -49 -200 -162 -200v71c49 0 70 29 70 96c-55 0 -79 25 -79 84c0 7 0 14 1 20c5 46 29 66 77 66zM359 160l-2 -1c55 0 84 -27 92 -89c2 -14 3 -30 3 -47c0 -140 -49 -200 -162 -200v71c49 0 70 29 70 96
c-55 0 -79 25 -79 84c0 7 0 14 1 20c5 46 29 66 77 66z" />
    <glyph glyph-name="ellipsis" unicode="&#x2026;" horiz-adv-x="770" 
d="M114 162h1c60 0 86 -26 86 -86c0 -59 -26 -85 -87 -85c-60 0 -86 25 -86 85s26 86 86 86zM386 162h1c60 0 86 -26 86 -86c0 -59 -26 -85 -87 -85c-60 0 -86 25 -86 85s26 86 86 86zM658 162h1c60 0 86 -26 86 -86c0 -59 -26 -85 -87 -85c-60 0 -86 25 -86 85s26 86 86 86
z" />
    <glyph glyph-name="perthousand" unicode="&#x2030;" horiz-adv-x="1310" 
d="M214 710c122 1 174 -58 174 -197s-52 -199 -174 -199s-174 60 -174 199s52 198 174 197zM215 402h1c46 0 65 33 65 111s-19 111 -65 111c-47 0 -66 -33 -66 -111s19 -111 65 -111zM301 -30h-133l440 760h133zM695 390c122 1 174 -58 174 -197s-52 -199 -174 -199
s-174 60 -174 199s52 198 174 197zM694 82h1c46 0 65 33 65 111s-19 111 -65 111c-47 0 -66 -33 -66 -111s19 -111 65 -111zM1097 390c122 1 174 -58 174 -197s-52 -199 -174 -199s-174 60 -174 199s52 198 174 197zM1097 82h1c46 0 65 33 65 111s-19 111 -65 111
c-47 0 -66 -33 -66 -111s19 -111 65 -111z" />
    <glyph glyph-name="guilsinglleft" unicode="&#x2039;" horiz-adv-x="340" 
d="M163 450h141l-119 -190l119 -200h-141l-127 200z" />
    <glyph glyph-name="guilsinglright" unicode="&#x203a;" horiz-adv-x="340" 
d="M36 450h141l127 -190l-127 -200h-141l119 200z" />
    <glyph glyph-name="lira" unicode="&#x20a4;" horiz-adv-x="680" 
d="M664 122l-2 -2v-122h-586v141c43 16 71 41 81 77c2 5 4 11 5 17h-85v80h90v42h-90v80h90v64c-1 151 68 217 230 219c16 0 31 0 46 -1c133 -10 190 -77 190 -218h-141c0 81 -26 115 -88 115h-9c-57 -2 -81 -36 -81 -114v-64h238v-80h-238v-42h238v-80h-242
c-1 -5 -2 -10 -3 -14c-11 -46 -44 -78 -96 -98h453z" />
    <glyph glyph-name="Euro" unicode="&#x20ac;" horiz-adv-x="846" 
d="M641 240h165c-38 -182 -139 -260 -338 -260c-217 0 -329 81 -357 266h-91v80h84v24v26h-84v80h91c28 184 140 265 357 265c212 0 313 -78 338 -260h-165c-17 91 -68 129 -174 129c-101 0 -159 -41 -181 -134h243v-80h-253v-26v-24h213v-80h-203c22 -94 80 -135 182 -135
c103 0 154 38 173 129z" />
    <glyph glyph-name="trademark" unicode="&#x2122;" horiz-adv-x="1254" 
d="M468 700h1v-122h-154v-378h-141v378h-154v122h448zM681 517h-1v-317h-141v500h74h67h50l132 -342l132 342h42h67h74v-500h-141v317l-123 -305l-4 -12h-100l-18 50z" />
    <glyph glyph-name="minus" unicode="&#x2212;" horiz-adv-x="402" 
d="M366 209h-330v114h330v-114z" />
    <glyph glyph-name="approxequal" unicode="&#x2248;" horiz-adv-x="672" 
d="M36 317v1v106c202 198 418 -184 600 0v-106c-202 -199 -418 182 -600 -1zM36 121v1v106c202 198 418 -184 600 0v-106c-202 -199 -418 182 -600 -1z" />
    <glyph glyph-name="notequal" unicode="&#x2260;" horiz-adv-x="664" 
d="M198 0l40 110h-198v114h239l29 82h-268v114h309l29 80h85l-29 -80h191v-114h-232l-29 -82h261v-114h-302l-40 -110h-85z" />
    <glyph glyph-name="lessequal" unicode="&#x2264;" horiz-adv-x="508" 
d="M436 0h-400v122h400v-122zM36 529v2l400 171v-140l-258 -110l258 -110v-140l-400 171v17v122v17z" />
    <glyph glyph-name="greaterequal" unicode="&#x2265;" horiz-adv-x="508" 
d="M472 0h-400v122h400v-122zM72 698l400 -171v-17v-122v-17l-400 -171v140l258 110l-258 110v138z" />
    <glyph glyph-name="uniE132" unicode="&#xe132;" horiz-adv-x="561" 
d="M210 0h-149v500h149v-500zM276 -66v1c40 0 62 23 62 57v509h149v-526c0 -96 -56 -155 -154 -155h-135v114h78zM58 551l97 150h150l-129 -150h-118zM335 551l97 150h150l-129 -150h-118z" />
    <glyph glyph-name="uniE133" unicode="&#xe133;" horiz-adv-x="930" 
d="M82 700h165v-700h-165v700zM349 210h-2v36h157v-36c0 -70 24 -99 82 -99s82 29 82 99v490h165v-490c0 -155 -74 -221 -246 -221c-167 0 -238 66 -238 221zM93 750l95 120h142l-119 -120h-118zM679 750l95 120h142l-119 -120h-118z" />
    <glyph glyph-name="a.alt1" 
d="M246 -10c-153 0 -218 78 -218 260s65 260 218 260c73 0 126 -18 161 -56l21 46h116v-365v-135h-116l-21 46c-35 -38 -88 -56 -161 -56zM286 104c77 0 110 44 110 146s-33 146 -110 146s-110 -44 -110 -146s33 -146 110 -146z" />
    <glyph glyph-name="aacute.alt1" 
d="M246 -10c-153 0 -218 78 -218 260s65 260 218 260c73 0 126 -18 161 -56l21 46h116v-365v-135h-116l-21 46c-35 -38 -88 -56 -161 -56zM286 104c77 0 110 44 110 146s-33 146 -110 146s-110 -44 -110 -146s33 -146 110 -146zM203 550l97 150h150l-129 -150h-118z" />
    <glyph glyph-name="aacutering.alt1" 
d="M246 -10c-153 0 -218 78 -218 260s65 260 218 260c73 0 126 -18 161 -56l21 46h116v-365v-135h-116l-21 46c-35 -38 -88 -56 -161 -56zM286 103c77 0 110 44 110 146s-33 146 -110 146s-110 -44 -110 -146s33 -146 110 -146zM383 702c24 -17 37 -43 37 -75
c0 -60 -46 -98 -124 -98s-124 38 -124 98s46 98 124 98h15l49 55h110zM296 590c36 0 48 11 48 36s-12 36 -48 36s-48 -11 -48 -36s12 -36 48 -36z" />
    <glyph glyph-name="abreve.alt1" 
d="M246 -10c-153 0 -218 78 -218 260s65 260 218 260c73 0 126 -18 161 -56l21 46h116v-365v-135h-116l-21 46c-35 -38 -88 -56 -161 -56zM287 105c77 0 110 44 110 146s-33 146 -110 146s-110 -44 -110 -146s33 -146 110 -146zM452 700l1 1c0 -105 -50 -150 -166 -150
s-166 45 -166 150h100c0 -50 19 -71 65 -71h9c40 2 57 23 57 70h100z" />
    <glyph glyph-name="acircumflex.alt1" 
d="M246 -10c-153 0 -218 78 -218 260s65 260 218 260c73 0 126 -18 161 -56l21 46h116v-365v-135h-116l-21 46c-35 -38 -88 -56 -161 -56zM285 104c77 0 110 44 110 146s-33 146 -110 146s-110 -44 -110 -146s33 -146 110 -146zM370 700l83 -150h-93l-65 79l-65 -79h-93
l84 150h149z" />
    <glyph glyph-name="acute.case" horiz-adv-x="296" 
d="M28 550l95 120h142l-119 -120h-118z" />
    <glyph glyph-name="adieresis.alt1" 
d="M246 -10c-153 0 -218 78 -218 260s65 260 218 260c73 0 126 -18 161 -56l21 46h116v-365v-135h-116l-21 46c-35 -38 -88 -56 -161 -56zM288 104c77 0 110 44 110 146s-33 146 -110 146s-110 -44 -110 -146s33 -146 110 -146zM184 700h1c60 0 86 -26 86 -86
c0 -59 -26 -85 -87 -85c-60 0 -86 25 -86 85s26 86 86 86zM401 700h1c60 0 86 -26 86 -86c0 -59 -26 -85 -87 -85c-60 0 -86 25 -86 85s26 86 86 86z" />
    <glyph glyph-name="agrave.alt1" 
d="M246 -10c-153 0 -218 78 -218 260s65 260 218 260c73 0 126 -18 161 -56l21 46h116v-365v-135h-116l-21 46c-35 -38 -88 -56 -161 -56zM286 104c77 0 110 44 110 146s-33 146 -110 146s-110 -44 -110 -146s33 -146 110 -146zM271 700l96 -150h-117l-129 150h150z" />
    <glyph glyph-name="amacron.alt1" 
d="M246 -10c-153 0 -218 78 -218 260s65 260 218 260c73 0 126 -18 161 -56l21 46h116v-365v-135h-116l-21 46c-35 -38 -88 -56 -161 -56zM286 104c77 0 110 44 110 146s-33 146 -110 146s-110 -44 -110 -146s33 -146 110 -146zM120 562v88h340v-88h-340z" />
    <glyph glyph-name="aogonek.alt1" 
d="M428 1h-1l-21 46c-35 -38 -88 -56 -161 -56c-153 0 -218 78 -218 260s65 260 218 260c73 0 126 -18 161 -56l21 46h116v-365v-135h-41c-55 -48 -70 -119 -9 -119h6c21 1 41 12 41 12v-123s-30 -20 -70 -20c-6 0 -12 0 -17 1c-108 14 -126 162 -25 249zM285 104
c77 0 110 44 110 146s-33 146 -110 146s-110 -44 -110 -146s33 -146 110 -146z" />
    <glyph glyph-name="aring.alt1" 
d="M246 -10c-153 0 -218 78 -218 260s65 260 218 260c73 0 126 -18 161 -56l21 46h116v-365v-135h-116l-21 46c-35 -38 -88 -56 -161 -56zM286 104c77 0 110 44 110 146s-33 146 -110 146s-110 -44 -110 -146s33 -146 110 -146zM298 753c87 0 124 -32 124 -107
s-37 -107 -124 -107s-124 32 -124 107s37 107 124 107zM298 602h1c34 0 47 13 47 45c0 31 -14 44 -48 44s-48 -13 -48 -45c0 -31 14 -44 48 -44z" />
    <glyph glyph-name="atilde.alt1" 
d="M246 -10c-153 0 -218 78 -218 260s65 260 218 260c73 0 126 -18 161 -56l21 46h116v-365v-135h-116l-21 46c-35 -38 -88 -56 -161 -56zM285 104c77 0 110 44 110 146s-33 146 -110 146s-110 -44 -110 -146s33 -146 110 -146zM120 582h-1c0 70 46 127 102 127
c86 0 100 -76 136 -76c14 0 26 14 26 39h68c0 -70 -46 -127 -102 -127c-86 0 -100 76 -135 76c-14 0 -26 -14 -26 -39h-68z" />
    <glyph glyph-name="breve.case" horiz-adv-x="388" 
d="M360 670c0 -84 -50 -120 -166 -120s-166 36 -166 120h108c0 -35 17 -49 58 -49s58 14 58 49h108z" />
    <glyph glyph-name="caron.case" horiz-adv-x="376" 
d="M347 670l-86 -120h-149l-86 120h102l59 -58l59 58h101z" />
    <glyph glyph-name="circumflex.case" horiz-adv-x="376" 
d="M262 670h1l86 -120h-102l-59 58l-59 -58h-102l86 120h149z" />
    <glyph glyph-name="commaaccent" horiz-adv-x="180" 
d="M90 -41v1c36 0 55 -17 60 -56c1 -9 2 -19 2 -30c-1 -80 -35 -114 -114 -114v54c32 0 46 13 46 43c-38 0 -55 14 -55 46v12c3 31 22 44 61 44z" />
    <glyph glyph-name="dieresis.case" horiz-adv-x="461" 
d="M114 717c60 0 86 -22 86 -73s-26 -73 -87 -73c-60 0 -86 22 -86 73s26 73 87 73zM347 717c60 0 86 -22 86 -73s-26 -73 -87 -73c-60 0 -86 22 -86 73s26 73 87 73z" />
    <glyph glyph-name="dotaccent.case" horiz-adv-x="228" 
d="M114 697c60 0 86 -22 86 -73s-26 -73 -87 -73c-60 0 -86 22 -86 73s26 73 87 73z" />
    <glyph glyph-name="grave.case" horiz-adv-x="292" 
d="M162 670l103 -120h-110l-127 120h134z" />
    <glyph glyph-name="hungarumlaut.case" horiz-adv-x="477" 
d="M28 550l87 120h134l-111 -120h-110zM229 550l87 120h134l-111 -120h-110z" />
    <glyph glyph-name="tilde.case" horiz-adv-x="388" 
d="M28 580c0 70 46 109 102 109c86 0 100 -47 144 -47c14 0 26 12 26 29h60c0 -70 -46 -109 -102 -109c-86 0 -100 47 -144 47c-14 0 -26 -12 -26 -29h-60z" />
    </font>
</defs>
</svg>
